<?xml version="1.0" encoding="UTF-8" standalone="no"?>
<!-- Created with Inkscape (http://www.inkscape.org/) -->

<svg
   width="122.37591mm"
   height="78.824585mm"
   viewBox="0 0 122.37591 78.824585"
   version="1.1"
   id="svg1"
   xml:space="preserve"
   xmlns="http://www.w3.org/2000/svg"
   xmlns:svg="http://www.w3.org/2000/svg"><defs
     id="defs1"><marker
       style="overflow:visible"
       id="ConcaveTriangle"
       refX="0"
       refY="0"
       orient="auto-start-reverse"
       markerWidth="1"
       markerHeight="1"
       viewBox="0 0 1 1"
       preserveAspectRatio="xMidYMid"><path
         transform="scale(0.7)"
         d="M -2,-4 9,0 -2,4 c 2,-2.33 2,-5.66 0,-8 z"
         style="fill:context-stroke;fill-rule:evenodd;stroke:none"
         id="path7" /></marker></defs><g
     id="layer1"
     transform="translate(-15.307249,-23.771932)"><g
       id="g23"><g
         id="g16"><rect
           style="fill:none;stroke:#000000;stroke-width:0.3;stroke-dasharray:none;stroke-opacity:1"
           id="rect1"
           width="30.914499"
           height="15.089219"
           x="15.45725"
           y="23.921932" /><g
           id="g7"
           transform="translate(23.628608,30.433012)"><g
             fill="#000000"
             fill-opacity="1"
             id="g35"
             transform="matrix(0.352778,0,0,0.352778,-0.758208,-0.649287)">
    <g
   id="use34"
   transform="translate(1.993,7.5279999)">
      <path
   d="m 3.78125,-2.703125 c 0.625,-0.171875 1.375,-0.625 1.375,-1.3125 0,-0.78125 -1,-1.421875 -2.1875,-1.421875 H 0.359375 v 0.265625 h 0.1875 c 0.609375,0 0.625,0.078125 0.625,0.375 v 4.15625 c 0,0.296875 -0.015625,0.375 -0.625,0.375 h -0.1875 V 0 c 0.6875,-0.03125 0.703125,-0.03125 1.15625,-0.03125 0.46875,0 0.5,0 1.171875,0.03125 V -0.265625 H 2.515625 c -0.625,0 -0.640625,-0.078125 -0.640625,-0.375 v -1.96875 h 1.015625 c 0.578125,0 0.84375,0.296875 0.90625,0.359375 0.234375,0.25 0.234375,0.40625 0.234375,0.9375 0,0.5 0,0.84375 0.328125,1.140625 0.34375,0.296875 0.78125,0.34375 1.015625,0.34375 0.671875,0 0.828125,-0.65625 0.828125,-0.890625 0,-0.046875 0,-0.15625 -0.125,-0.15625 -0.125,0 -0.125,0.09375 -0.125,0.140625 -0.046875,0.5 -0.3125,0.671875 -0.546875,0.671875 -0.421875,0 -0.46875,-0.359375 -0.609375,-1.375 -0.0625,-0.453125 -0.140625,-1 -1.015625,-1.265625 z M 2.859375,-2.84375 H 1.875 v -2.015625 c 0,-0.203125 0.015625,-0.28125 0.203125,-0.3125 0.078125,0 0.328125,0 0.484375,0 0.71875,0 1.765625,0 1.765625,1.15625 0,0.890625 -0.625,1.171875 -1.46875,1.171875 z m 0,0"
   id="path123" />
    </g>
    <g
   id="use35"
   transform="translate(8.2224302,7.5279999)">
      <path
   d="m 3.34375,-2.375 c 0,-0.78125 -0.75,-1.171875 -1.484375,-1.171875 -0.65625,0 -1.25,0.25 -1.25,0.78125 0,0.234375 0.171875,0.375 0.375,0.375 0.234375,0 0.375,-0.15625 0.375,-0.375 0,-0.1875 -0.109375,-0.328125 -0.296875,-0.359375 0.296875,-0.203125 0.734375,-0.203125 0.78125,-0.203125 0.453125,0 0.890625,0.3125 0.890625,0.96875 V -2.125 C 2.28125,-2.09375 1.75,-2.078125 1.1875,-1.84375 c -0.703125,0.3125 -0.84375,0.765625 -0.84375,1.03125 0,0.6875 0.8125,0.890625 1.359375,0.890625 0.578125,0 0.9375,-0.328125 1.125,-0.640625 0.03125,0.296875 0.234375,0.609375 0.59375,0.609375 0.078125,0 0.75,-0.03125 0.75,-0.765625 v -0.4375 h -0.25 v 0.4375 c 0,0.328125 -0.109375,0.453125 -0.28125,0.453125 -0.296875,0 -0.296875,-0.359375 -0.296875,-0.453125 z m -0.609375,1.25 c 0,0.78125 -0.640625,0.984375 -0.96875,0.984375 C 1.359375,-0.140625 1,-0.421875 1,-0.8125 1,-1.328125 1.5,-1.875 2.734375,-1.90625 Z m 0,0"
   id="path124" />
    </g>
  </g><g
             fill="#000000"
             fill-opacity="1"
             id="g36"
             transform="matrix(0.352778,0,0,0.352778,-0.758208,-0.649287)">
    <g
   id="use36"
   transform="translate(12.217841,7.5279999)">
      <path
   d="M 5.265625,-2.625 C 5.328125,-2.8125 5.46875,-3.15625 5.9375,-3.171875 V -3.4375 c -0.265625,0.03125 -0.28125,0.03125 -0.625,0.03125 -0.25,0 -0.46875,0 -0.71875,-0.03125 v 0.265625 c 0.34375,0.015625 0.4375,0.21875 0.4375,0.359375 0,0.109375 -0.03125,0.15625 -0.046875,0.203125 L 4.234375,-0.625 3.40625,-2.796875 C 3.375,-2.90625 3.375,-2.921875 3.375,-2.953125 c 0,-0.203125 0.25,-0.21875 0.4375,-0.21875 V -3.4375 C 3.5,-3.40625 3.078125,-3.40625 3,-3.40625 c -0.171875,0 -0.5,0 -0.734375,-0.03125 v 0.265625 c 0.484375,0 0.5,0.046875 0.65625,0.46875 L 2.1875,-0.734375 1.390625,-2.8125 c 0,-0.03125 -0.03125,-0.109375 -0.03125,-0.140625 0,-0.21875 0.296875,-0.21875 0.4375,-0.21875 V -3.4375 c -0.34375,0.03125 -0.703125,0.03125 -0.84375,0.03125 -0.140625,0 -0.5625,0 -0.78125,-0.03125 v 0.265625 c 0.390625,0 0.46875,0.03125 0.5625,0.25 l 1.0625,2.8125 C 1.84375,0.015625 1.875,0.078125 2,0.078125 c 0.140625,0 0.171875,-0.09375 0.203125,-0.1875 l 0.84375,-2.234375 0.84375,2.234375 c 0.046875,0.09375 0.078125,0.1875 0.21875,0.1875 0.125,0 0.15625,-0.078125 0.1875,-0.171875 z m 0,0"
   id="path125" />
    </g>
  </g><g
             fill="#000000"
             fill-opacity="1"
             id="g41"
             transform="matrix(0.352778,0,0,0.352778,-0.758208,-0.649287)">
    <g
   id="use37"
   transform="translate(21.163483,7.5279999)">
      <path
   d="M 3.375,-5.515625 C 3.328125,-5.625 3.3125,-5.6875 3.171875,-5.6875 3.03125,-5.6875 3,-5.625 2.96875,-5.515625 l -1.78125,4.6875 c -0.078125,0.21875 -0.25,0.5625 -0.90625,0.5625 V 0 c 0.265625,-0.03125 0.6875,-0.03125 0.828125,-0.03125 0.25,0 0.5,0 0.875,0.03125 v -0.265625 c -0.34375,0 -0.546875,-0.171875 -0.546875,-0.390625 0,-0.0625 0,-0.078125 0.03125,-0.171875 l 0.375,-1 h 2.171875 l 0.453125,1.1875 C 4.5,-0.546875 4.5,-0.515625 4.5,-0.5 c 0,0.234375 -0.40625,0.234375 -0.640625,0.234375 V 0 C 4.546875,-0.03125 4.5625,-0.03125 5,-0.03125 c 0.4375,0 0.59375,0 1.046875,0.03125 V -0.265625 H 5.90625 c -0.5,0 -0.578125,-0.0625 -0.671875,-0.328125 z M 2.9375,-4.6875 3.90625,-2.09375 H 1.9375 Z m 0,0"
   id="path126" />
    </g>
    <g
   id="use38"
   transform="translate(27.506086,7.5279999)">
      <path
   d="m 2.65625,-3.421875 v 0.265625 c 0.546875,0 0.609375,0.046875 0.609375,0.4375 v 1.390625 c 0,0.6875 -0.40625,1.1875 -1.015625,1.1875 -0.6875,0 -0.71875,-0.34375 -0.71875,-0.75 v -2.625 l -1.203125,0.09375 v 0.265625 c 0.609375,0 0.609375,0.015625 0.609375,0.71875 v 1.203125 c 0,0.578125 0,1.3125 1.265625,1.3125 0.75,0 1.046875,-0.578125 1.078125,-0.640625 H 3.296875 V 0.078125 L 4.484375,0 V -0.265625 C 3.9375,-0.265625 3.875,-0.3125 3.875,-0.703125 v -2.8125 z m 0,0"
   id="path127" />
    </g>
    <g
   id="use39"
   transform="translate(32.210838,7.5279999)">
      <path
   d="m 2.625,-5.4375 v 0.265625 c 0.53125,0 0.609375,0.046875 0.609375,0.4375 v 1.6875 c -0.28125,-0.3125 -0.65625,-0.46875 -1.078125,-0.46875 -1,0 -1.875,0.78125 -1.875,1.796875 0,0.984375 0.796875,1.796875 1.796875,1.796875 0.46875,0 0.859375,-0.21875 1.125,-0.5 v 0.5 L 4.421875,0 V -0.265625 C 3.875,-0.265625 3.8125,-0.3125 3.8125,-0.703125 V -5.53125 Z m 0.578125,4.453125 c 0,0.140625 0,0.171875 -0.125,0.328125 C 2.859375,-0.328125 2.5,-0.140625 2.125,-0.140625 1.75,-0.140625 1.4375,-0.328125 1.25,-0.625 1.03125,-0.9375 0.984375,-1.328125 0.984375,-1.703125 0.984375,-2.171875 1.0625,-2.5 1.25,-2.765625 c 0.1875,-0.296875 0.546875,-0.53125 0.953125,-0.53125 0.375,0 0.765625,0.203125 1,0.609375 z m 0,0"
   id="path128" />
    </g>
    <g
   id="use40"
   transform="translate(36.915588,7.5279999)">
      <path
   d="m 1.546875,-4.90625 c 0,-0.234375 -0.171875,-0.453125 -0.4375,-0.453125 -0.234375,0 -0.4375,0.1875 -0.4375,0.4375 0,0.28125 0.234375,0.453125 0.4375,0.453125 0.28125,0 0.4375,-0.234375 0.4375,-0.4375 z m -1.1875,1.484375 v 0.265625 c 0.515625,0 0.578125,0.046875 0.578125,0.4375 V -0.625 c 0,0.359375 -0.09375,0.359375 -0.609375,0.359375 V 0 c 0.3125,-0.03125 0.765625,-0.03125 0.890625,-0.03125 0.09375,0 0.578125,0 0.859375,0.03125 v -0.265625 c -0.53125,0 -0.5625,-0.03125 -0.5625,-0.34375 v -2.90625 z m 0,0"
   id="path129" />
    </g>
    <g
   id="use41"
   transform="translate(39.267563,7.5279999)">
      <path
   d="m 3.984375,-1.703125 c 0,-0.984375 -0.828125,-1.84375 -1.875,-1.84375 -1.046875,0 -1.875,0.859375 -1.875,1.84375 0,1 0.859375,1.78125 1.875,1.78125 1.03125,0 1.875,-0.78125 1.875,-1.78125 z m -1.875,1.53125 C 1.6875,-0.171875 1.34375,-0.375 1.171875,-0.65625 0.96875,-0.984375 0.953125,-1.375 0.953125,-1.765625 c 0,-0.3125 0,-0.78125 0.234375,-1.125 0.21875,-0.28125 0.546875,-0.4375 0.921875,-0.4375 0.421875,0 0.765625,0.203125 0.9375,0.46875 0.21875,0.34375 0.234375,0.765625 0.234375,1.09375 0,0.359375 -0.015625,0.796875 -0.25,1.140625 -0.203125,0.3125 -0.5625,0.453125 -0.921875,0.453125 z m 0,0"
   id="path130" />
    </g>
  </g></g></g><g
         id="g17"
         transform="translate(0,-5.6845569)"><rect
           style="fill:none;stroke:#000000;stroke-width:0.3;stroke-dasharray:none;stroke-opacity:1"
           id="rect2"
           width="30.914499"
           height="15.089219"
           x="15.45725"
           y="50.380268" /><g
           id="g8"
           transform="translate(25.516335,43.229953)"><g
             fill="#000000"
             fill-opacity="1"
             id="g42"
             transform="matrix(0.352778,0,0,0.352778,-0.758208,-0.649287)">
    <g
   id="use42"
   transform="translate(1.993,45.386002)">
      <path
   d="M 4.9375,-5.421875 H 0.34375 v 0.265625 h 0.1875 c 0.609375,0 0.625,0.09375 0.625,0.390625 v 4.125 c 0,0.296875 -0.015625,0.375 -0.625,0.375 H 0.34375 V 0 c 0.6875,-0.03125 0.703125,-0.03125 1.234375,-0.03125 0.375,0 0.953125,0 1.3125,0.03125 v -0.265625 h -0.25 c -0.75,0 -0.75,-0.109375 -0.75,-0.390625 V -2.578125 H 2.625 c 0.78125,0 0.875,0.25 0.875,0.921875 h 0.25 v -2.125 H 3.5 c 0,0.6875 -0.09375,0.9375 -0.875,0.9375 H 1.890625 v -1.984375 c 0,-0.265625 0.015625,-0.328125 0.375,-0.328125 h 1.0625 c 1.296875,0 1.453125,0.5 1.59375,1.546875 H 5.15625 Z m 0,0"
   id="path131" />
    </g>
  </g><g
             fill="#000000"
             fill-opacity="1"
             id="g48"
             transform="matrix(0.352778,0,0,0.352778,-0.758208,-0.649287)">
    <g
   id="use43"
   transform="translate(6.8077369,45.386002)">
      <path
   d="m 1.46875,-1.8125 c 0,-0.609375 0.25,-1.46875 1.015625,-1.484375 -0.046875,0.03125 -0.140625,0.09375 -0.140625,0.28125 0,0.25 0.203125,0.359375 0.359375,0.359375 0.1875,0 0.359375,-0.125 0.359375,-0.359375 0,-0.28125 -0.25,-0.5 -0.609375,-0.5 -0.515625,0 -0.875,0.390625 -1.03125,0.84375 H 1.40625 v -0.84375 l -1.125,0.09375 v 0.265625 c 0.546875,0 0.609375,0.046875 0.609375,0.4375 V -0.625 c 0,0.359375 -0.109375,0.359375 -0.609375,0.359375 V 0 c 0.3125,-0.03125 0.75,-0.03125 0.9375,-0.03125 0.46875,0 0.484375,0 1,0.03125 V -0.265625 H 2.0625 c -0.578125,0 -0.59375,-0.078125 -0.59375,-0.375 z m 0,0"
   id="path132" />
    </g>
    <g
   id="use44"
   transform="translate(10.108156,45.386002)">
      <path
   d="m 3.34375,-2.375 c 0,-0.78125 -0.75,-1.171875 -1.484375,-1.171875 -0.65625,0 -1.25,0.25 -1.25,0.78125 0,0.234375 0.171875,0.375 0.375,0.375 0.234375,0 0.375,-0.15625 0.375,-0.375 0,-0.1875 -0.109375,-0.328125 -0.296875,-0.359375 0.296875,-0.203125 0.734375,-0.203125 0.78125,-0.203125 0.453125,0 0.890625,0.3125 0.890625,0.96875 V -2.125 C 2.28125,-2.09375 1.75,-2.078125 1.1875,-1.84375 c -0.703125,0.3125 -0.84375,0.765625 -0.84375,1.03125 0,0.6875 0.8125,0.890625 1.359375,0.890625 0.578125,0 0.9375,-0.328125 1.125,-0.640625 0.03125,0.296875 0.234375,0.609375 0.59375,0.609375 0.078125,0 0.75,-0.03125 0.75,-0.765625 v -0.4375 h -0.25 v 0.4375 c 0,0.328125 -0.109375,0.453125 -0.28125,0.453125 -0.296875,0 -0.296875,-0.359375 -0.296875,-0.453125 z m -0.609375,1.25 c 0,0.78125 -0.640625,0.984375 -0.96875,0.984375 C 1.359375,-0.140625 1,-0.421875 1,-0.8125 1,-1.328125 1.5,-1.875 2.734375,-1.90625 Z m 0,0"
   id="path133" />
    </g>
    <g
   id="use45"
   transform="translate(14.34267,45.386002)">
      <path
   d="m 6.21875,-2.421875 c 0,-0.640625 -0.28125,-1.09375 -1.140625,-1.09375 -0.734375,0 -1.109375,0.5 -1.234375,0.734375 C 3.703125,-3.359375 3.25,-3.515625 2.734375,-3.515625 c -0.78125,0 -1.140625,0.546875 -1.25,0.765625 v -0.765625 l -1.15625,0.09375 v 0.265625 c 0.546875,0 0.609375,0.046875 0.609375,0.4375 V -0.625 c 0,0.359375 -0.09375,0.359375 -0.609375,0.359375 V 0 c 0.34375,-0.03125 0.6875,-0.03125 0.90625,-0.03125 0.234375,0 0.5625,0 0.90625,0.03125 v -0.265625 c -0.5,0 -0.609375,0 -0.609375,-0.359375 v -1.4375 c 0,-0.84375 0.640625,-1.234375 1.140625,-1.234375 0.515625,0 0.609375,0.40625 0.609375,0.84375 V -0.625 c 0,0.359375 -0.109375,0.359375 -0.609375,0.359375 V 0 c 0.34375,-0.03125 0.6875,-0.03125 0.90625,-0.03125 0.234375,0 0.5625,0 0.90625,0.03125 v -0.265625 c -0.515625,0 -0.609375,0 -0.609375,-0.359375 v -1.4375 c 0,-0.84375 0.640625,-1.234375 1.140625,-1.234375 0.515625,0 0.609375,0.40625 0.609375,0.84375 V -0.625 c 0,0.359375 -0.109375,0.359375 -0.609375,0.359375 V 0 c 0.34375,-0.03125 0.6875,-0.03125 0.90625,-0.03125 0.234375,0 0.5625,0 0.90625,0.03125 v -0.265625 c -0.515625,0 -0.609375,0 -0.609375,-0.359375 z m 0,0"
   id="path134" />
    </g>
    <g
   id="use46"
   transform="translate(21.399397,45.386002)">
      <path
   d="m 1.546875,-4.90625 c 0,-0.234375 -0.171875,-0.453125 -0.4375,-0.453125 -0.234375,0 -0.4375,0.1875 -0.4375,0.4375 0,0.28125 0.234375,0.453125 0.4375,0.453125 0.28125,0 0.4375,-0.234375 0.4375,-0.4375 z m -1.1875,1.484375 v 0.265625 c 0.515625,0 0.578125,0.046875 0.578125,0.4375 V -0.625 c 0,0.359375 -0.09375,0.359375 -0.609375,0.359375 V 0 c 0.3125,-0.03125 0.765625,-0.03125 0.890625,-0.03125 0.09375,0 0.578125,0 0.859375,0.03125 v -0.265625 c -0.53125,0 -0.5625,-0.03125 -0.5625,-0.34375 v -2.90625 z m 0,0"
   id="path135" />
    </g>
    <g
   id="use47"
   transform="translate(23.751373,45.386002)">
      <path
   d="m 3.875,-2.421875 c 0,-0.65625 -0.3125,-1.09375 -1.140625,-1.09375 -0.796875,0 -1.15625,0.578125 -1.25,0.765625 v -0.765625 l -1.15625,0.09375 v 0.265625 c 0.546875,0 0.609375,0.046875 0.609375,0.4375 V -0.625 c 0,0.359375 -0.09375,0.359375 -0.609375,0.359375 V 0 c 0.34375,-0.03125 0.6875,-0.03125 0.90625,-0.03125 0.234375,0 0.5625,0 0.90625,0.03125 v -0.265625 c -0.5,0 -0.609375,0 -0.609375,-0.359375 v -1.4375 c 0,-0.84375 0.640625,-1.234375 1.125,-1.234375 0.484375,0 0.609375,0.34375 0.609375,0.84375 V -0.625 c 0,0.359375 -0.09375,0.359375 -0.609375,0.359375 V 0 C 3,-0.03125 3.359375,-0.03125 3.5625,-0.03125 c 0.234375,0 0.578125,0 0.921875,0.03125 v -0.265625 c -0.515625,0 -0.609375,0 -0.609375,-0.359375 z m 0,0"
   id="path136" />
    </g>
    <g
   id="use48"
   transform="translate(28.456123,45.386002)">
      <path
   d="m 1.375,-0.546875 c -0.25,-0.03125 -0.4375,-0.234375 -0.4375,-0.53125 0,-0.1875 0.046875,-0.265625 0.09375,-0.328125 0.34375,0.1875 0.65625,0.234375 0.84375,0.234375 0.78125,0 1.375,-0.546875 1.375,-1.171875 0,-0.296875 -0.140625,-0.5625 -0.328125,-0.765625 C 3.03125,-3.203125 3.296875,-3.375 3.6875,-3.375 c -0.03125,0.015625 -0.078125,0.0625 -0.078125,0.1875 0,0.140625 0.109375,0.25 0.25,0.25 0.109375,0 0.25,-0.078125 0.25,-0.265625 0,-0.125 -0.109375,-0.40625 -0.453125,-0.40625 -0.140625,0 -0.53125,0.046875 -0.890625,0.375 C 2.5625,-3.375 2.25,-3.515625 1.875,-3.515625 c -0.78125,0 -1.359375,0.546875 -1.359375,1.171875 0,0.375 0.203125,0.65625 0.375,0.8125 -0.1875,0.203125 -0.25,0.453125 -0.25,0.640625 0,0.328125 0.171875,0.578125 0.34375,0.71875 -0.421875,0.109375 -0.75,0.421875 -0.75,0.78125 0,0.578125 0.828125,1.03125 1.875,1.03125 1,0 1.875,-0.40625 1.875,-1.046875 0,-0.421875 -0.25,-0.765625 -0.515625,-0.890625 -0.46875,-0.25 -0.859375,-0.25 -1.640625,-0.25 z m 0.5,-0.859375 c -0.734375,0 -0.734375,-0.765625 -0.734375,-0.9375 0,-0.296875 0.03125,-0.5 0.15625,-0.65625 C 1.4375,-3.1875 1.65625,-3.28125 1.875,-3.28125 c 0.734375,0 0.734375,0.765625 0.734375,0.9375 0,0.296875 -0.03125,0.5 -0.15625,0.65625 C 2.28125,-1.453125 2.03125,-1.40625 1.875,-1.40625 Z m 0.375,1.375 c 0.21875,0 1.265625,0 1.265625,0.640625 0,0.421875 -0.609375,0.796875 -1.40625,0.796875 -0.796875,0 -1.40625,-0.375 -1.40625,-0.796875 0,-0.171875 0.140625,-0.640625 0.78125,-0.640625 z m 0,0"
   id="path137" />
    </g>
  </g></g></g><g
         id="g18"
         transform="translate(0,-11.36911)"><rect
           style="fill:none;stroke:#000000;stroke-width:0.3;stroke-dasharray:none;stroke-opacity:1"
           id="rect3"
           width="30.914499"
           height="15.089219"
           x="15.45725"
           y="76.8386" /><g
           id="g9"
           transform="translate(1.4202025,1.4017783)"><g
             fill="#000000"
             fill-opacity="1"
             id="g53"
             transform="matrix(0.352778,0,0,0.352778,21.402121,54.301042)">
    <g
   id="use49"
   transform="translate(1.993,83.244003)">
      <path
   d="M 7.734375,-4.640625 C 7.84375,-4.96875 8.0625,-5.171875 8.53125,-5.171875 V -5.4375 C 8.265625,-5.421875 8,-5.421875 7.75,-5.421875 c -0.25,0 -0.484375,0 -0.921875,-0.015625 v 0.265625 c 0.4375,0 0.65625,0.203125 0.65625,0.421875 0,0.03125 0,0.046875 -0.03125,0.15625 L 6.1875,-0.921875 4.84375,-4.796875 C 4.8125,-4.890625 4.8125,-4.90625 4.8125,-4.9375 c 0,-0.234375 0.40625,-0.234375 0.640625,-0.234375 V -5.4375 C 4.765625,-5.421875 4.75,-5.421875 4.34375,-5.421875 c -0.296875,0 -0.625,0 -0.984375,-0.015625 v 0.265625 c 0.421875,0 0.546875,0.015625 0.640625,0.140625 0.0625,0.09375 0.203125,0.5625 0.203125,0.578125 0,0 -0.03125,0.09375 -0.03125,0.09375 l -1.1875,3.4375 -1.328125,-3.875 C 1.609375,-4.90625 1.609375,-4.921875 1.609375,-4.9375 c 0,-0.234375 0.421875,-0.234375 0.65625,-0.234375 V -5.4375 c -0.6875,0.015625 -0.703125,0.015625 -1.109375,0.015625 -0.296875,0 -0.640625,0 -1,-0.015625 v 0.265625 c 0.46875,0 0.609375,0 0.71875,0.296875 l 1.671875,4.859375 C 2.59375,0.09375 2.625,0.171875 2.75,0.171875 c 0.109375,0 0.15625,-0.078125 0.1875,-0.1875 l 1.40625,-4.0625 1.40625,4.0625 c 0.03125,0.09375 0.0625,0.1875 0.1875,0.1875 0.125,0 0.15625,-0.078125 0.203125,-0.1875 z m 0,0"
   id="path138" />
    </g>
    <g
   id="use50"
   transform="translate(10.688379,83.244003)">
      <path
   d="m 1.546875,-4.90625 c 0,-0.234375 -0.171875,-0.453125 -0.4375,-0.453125 -0.234375,0 -0.4375,0.1875 -0.4375,0.4375 0,0.28125 0.234375,0.453125 0.4375,0.453125 0.28125,0 0.4375,-0.234375 0.4375,-0.4375 z m -1.1875,1.484375 v 0.265625 c 0.515625,0 0.578125,0.046875 0.578125,0.4375 V -0.625 c 0,0.359375 -0.09375,0.359375 -0.609375,0.359375 V 0 c 0.3125,-0.03125 0.765625,-0.03125 0.890625,-0.03125 0.09375,0 0.578125,0 0.859375,0.03125 v -0.265625 c -0.53125,0 -0.5625,-0.03125 -0.5625,-0.34375 v -2.90625 z m 0,0"
   id="path139" />
    </g>
    <g
   id="use51"
   transform="translate(13.040356,83.244003)">
      <path
   d="m 3.875,-2.421875 c 0,-0.65625 -0.3125,-1.09375 -1.140625,-1.09375 -0.796875,0 -1.15625,0.578125 -1.25,0.765625 v -0.765625 l -1.15625,0.09375 v 0.265625 c 0.546875,0 0.609375,0.046875 0.609375,0.4375 V -0.625 c 0,0.359375 -0.09375,0.359375 -0.609375,0.359375 V 0 c 0.34375,-0.03125 0.6875,-0.03125 0.90625,-0.03125 0.234375,0 0.5625,0 0.90625,0.03125 v -0.265625 c -0.5,0 -0.609375,0 -0.609375,-0.359375 v -1.4375 c 0,-0.84375 0.640625,-1.234375 1.125,-1.234375 0.484375,0 0.609375,0.34375 0.609375,0.84375 V -0.625 c 0,0.359375 -0.09375,0.359375 -0.609375,0.359375 V 0 C 3,-0.03125 3.359375,-0.03125 3.5625,-0.03125 c 0.234375,0 0.578125,0 0.921875,0.03125 v -0.265625 c -0.515625,0 -0.609375,0 -0.609375,-0.359375 z m 0,0"
   id="path140" />
    </g>
    <g
   id="use52"
   transform="translate(17.745106,83.244003)">
      <path
   d="m 2.625,-5.4375 v 0.265625 c 0.53125,0 0.609375,0.046875 0.609375,0.4375 v 1.6875 c -0.28125,-0.3125 -0.65625,-0.46875 -1.078125,-0.46875 -1,0 -1.875,0.78125 -1.875,1.796875 0,0.984375 0.796875,1.796875 1.796875,1.796875 0.46875,0 0.859375,-0.21875 1.125,-0.5 v 0.5 L 4.421875,0 V -0.265625 C 3.875,-0.265625 3.8125,-0.3125 3.8125,-0.703125 V -5.53125 Z m 0.578125,4.453125 c 0,0.140625 0,0.171875 -0.125,0.328125 C 2.859375,-0.328125 2.5,-0.140625 2.125,-0.140625 1.75,-0.140625 1.4375,-0.328125 1.25,-0.625 1.03125,-0.9375 0.984375,-1.328125 0.984375,-1.703125 0.984375,-2.171875 1.0625,-2.5 1.25,-2.765625 c 0.1875,-0.296875 0.546875,-0.53125 0.953125,-0.53125 0.375,0 0.765625,0.203125 1,0.609375 z m 0,0"
   id="path141" />
    </g>
    <g
   id="use53"
   transform="translate(22.449856,83.244003)">
      <path
   d="m 3.984375,-1.703125 c 0,-0.984375 -0.828125,-1.84375 -1.875,-1.84375 -1.046875,0 -1.875,0.859375 -1.875,1.84375 0,1 0.859375,1.78125 1.875,1.78125 1.03125,0 1.875,-0.78125 1.875,-1.78125 z m -1.875,1.53125 C 1.6875,-0.171875 1.34375,-0.375 1.171875,-0.65625 0.96875,-0.984375 0.953125,-1.375 0.953125,-1.765625 c 0,-0.3125 0,-0.78125 0.234375,-1.125 0.21875,-0.28125 0.546875,-0.4375 0.921875,-0.4375 0.421875,0 0.765625,0.203125 0.9375,0.46875 0.21875,0.34375 0.234375,0.765625 0.234375,1.09375 0,0.359375 -0.015625,0.796875 -0.25,1.140625 -0.203125,0.3125 -0.5625,0.453125 -0.921875,0.453125 z m 0,0"
   id="path142" />
    </g>
  </g><g
             fill="#000000"
             fill-opacity="1"
             id="g57"
             transform="matrix(0.352778,0,0,0.352778,21.402121,54.301042)">
    <g
   id="use54"
   transform="translate(26.445267,83.244003)">
      <path
   d="M 5.265625,-2.625 C 5.328125,-2.8125 5.46875,-3.15625 5.9375,-3.171875 V -3.4375 c -0.265625,0.03125 -0.28125,0.03125 -0.625,0.03125 -0.25,0 -0.46875,0 -0.71875,-0.03125 v 0.265625 c 0.34375,0.015625 0.4375,0.21875 0.4375,0.359375 0,0.109375 -0.03125,0.15625 -0.046875,0.203125 L 4.234375,-0.625 3.40625,-2.796875 C 3.375,-2.90625 3.375,-2.921875 3.375,-2.953125 c 0,-0.203125 0.25,-0.21875 0.4375,-0.21875 V -3.4375 C 3.5,-3.40625 3.078125,-3.40625 3,-3.40625 c -0.171875,0 -0.5,0 -0.734375,-0.03125 v 0.265625 c 0.484375,0 0.5,0.046875 0.65625,0.46875 L 2.1875,-0.734375 1.390625,-2.8125 c 0,-0.03125 -0.03125,-0.109375 -0.03125,-0.140625 0,-0.21875 0.296875,-0.21875 0.4375,-0.21875 V -3.4375 c -0.34375,0.03125 -0.703125,0.03125 -0.84375,0.03125 -0.140625,0 -0.5625,0 -0.78125,-0.03125 v 0.265625 c 0.390625,0 0.46875,0.03125 0.5625,0.25 l 1.0625,2.8125 C 1.84375,0.015625 1.875,0.078125 2,0.078125 c 0.140625,0 0.171875,-0.09375 0.203125,-0.1875 l 0.84375,-2.234375 0.84375,2.234375 c 0.046875,0.09375 0.078125,0.1875 0.21875,0.1875 0.125,0 0.15625,-0.078125 0.1875,-0.171875 z m 0,0"
   id="path143" />
    </g>
    <g
   id="use55"
   transform="translate(32.561523,83.244003)">
      <path
   d="m 1.546875,-4.90625 c 0,-0.234375 -0.171875,-0.453125 -0.4375,-0.453125 -0.234375,0 -0.4375,0.1875 -0.4375,0.4375 0,0.28125 0.234375,0.453125 0.4375,0.453125 0.28125,0 0.4375,-0.234375 0.4375,-0.4375 z m -1.1875,1.484375 v 0.265625 c 0.515625,0 0.578125,0.046875 0.578125,0.4375 V -0.625 c 0,0.359375 -0.09375,0.359375 -0.609375,0.359375 V 0 c 0.3125,-0.03125 0.765625,-0.03125 0.890625,-0.03125 0.09375,0 0.578125,0 0.859375,0.03125 v -0.265625 c -0.53125,0 -0.5625,-0.03125 -0.5625,-0.34375 v -2.90625 z m 0,0"
   id="path144" />
    </g>
    <g
   id="use56"
   transform="translate(34.913498,83.244003)">
      <path
   d="m 3.875,-2.421875 c 0,-0.65625 -0.3125,-1.09375 -1.140625,-1.09375 -0.796875,0 -1.15625,0.578125 -1.25,0.765625 v -0.765625 l -1.15625,0.09375 v 0.265625 c 0.546875,0 0.609375,0.046875 0.609375,0.4375 V -0.625 c 0,0.359375 -0.09375,0.359375 -0.609375,0.359375 V 0 c 0.34375,-0.03125 0.6875,-0.03125 0.90625,-0.03125 0.234375,0 0.5625,0 0.90625,0.03125 v -0.265625 c -0.5,0 -0.609375,0 -0.609375,-0.359375 v -1.4375 c 0,-0.84375 0.640625,-1.234375 1.125,-1.234375 0.484375,0 0.609375,0.34375 0.609375,0.84375 V -0.625 c 0,0.359375 -0.09375,0.359375 -0.609375,0.359375 V 0 C 3,-0.03125 3.359375,-0.03125 3.5625,-0.03125 c 0.234375,0 0.578125,0 0.921875,0.03125 v -0.265625 c -0.515625,0 -0.609375,0 -0.609375,-0.359375 z m 0,0"
   id="path145" />
    </g>
    <g
   id="use57"
   transform="translate(39.618248,83.244003)">
      <path
   d="m 1.375,-0.546875 c -0.25,-0.03125 -0.4375,-0.234375 -0.4375,-0.53125 0,-0.1875 0.046875,-0.265625 0.09375,-0.328125 0.34375,0.1875 0.65625,0.234375 0.84375,0.234375 0.78125,0 1.375,-0.546875 1.375,-1.171875 0,-0.296875 -0.140625,-0.5625 -0.328125,-0.765625 C 3.03125,-3.203125 3.296875,-3.375 3.6875,-3.375 c -0.03125,0.015625 -0.078125,0.0625 -0.078125,0.1875 0,0.140625 0.109375,0.25 0.25,0.25 0.109375,0 0.25,-0.078125 0.25,-0.265625 0,-0.125 -0.109375,-0.40625 -0.453125,-0.40625 -0.140625,0 -0.53125,0.046875 -0.890625,0.375 C 2.5625,-3.375 2.25,-3.515625 1.875,-3.515625 c -0.78125,0 -1.359375,0.546875 -1.359375,1.171875 0,0.375 0.203125,0.65625 0.375,0.8125 -0.1875,0.203125 -0.25,0.453125 -0.25,0.640625 0,0.328125 0.171875,0.578125 0.34375,0.71875 -0.421875,0.109375 -0.75,0.421875 -0.75,0.78125 0,0.578125 0.828125,1.03125 1.875,1.03125 1,0 1.875,-0.40625 1.875,-1.046875 0,-0.421875 -0.25,-0.765625 -0.515625,-0.890625 -0.46875,-0.25 -0.859375,-0.25 -1.640625,-0.25 z m 0.5,-0.859375 c -0.734375,0 -0.734375,-0.765625 -0.734375,-0.9375 0,-0.296875 0.03125,-0.5 0.15625,-0.65625 C 1.4375,-3.1875 1.65625,-3.28125 1.875,-3.28125 c 0.734375,0 0.734375,0.765625 0.734375,0.9375 0,0.296875 -0.03125,0.5 -0.15625,0.65625 C 2.28125,-1.453125 2.03125,-1.40625 1.875,-1.40625 Z m 0.375,1.375 c 0.21875,0 1.265625,0 1.265625,0.640625 0,0.421875 -0.609375,0.796875 -1.40625,0.796875 -0.796875,0 -1.40625,-0.375 -1.40625,-0.796875 0,-0.171875 0.140625,-0.640625 0.78125,-0.640625 z m 0,0"
   id="path146" />
    </g>
  </g></g></g><g
         id="g12"
         transform="translate(-31.132309)"><rect
           style="fill:none;stroke:#000000;stroke-width:0.3;stroke-dasharray:none;stroke-opacity:1"
           id="rect4"
           width="30.914499"
           height="15.089219"
           x="121.29057"
           y="23.921932" /><g
           fill="#000000"
           fill-opacity="1"
           id="g66"
           transform="matrix(0.352778,0,0,0.352778,130.38353,-10.569316)">
    <g
   id="use58"
   transform="translate(1.993,121.102)">
      <path
   d="M 4.9375,-5.421875 H 0.34375 v 0.265625 h 0.1875 c 0.609375,0 0.625,0.09375 0.625,0.390625 v 4.125 c 0,0.296875 -0.015625,0.375 -0.625,0.375 H 0.34375 V 0 c 0.6875,-0.03125 0.703125,-0.03125 1.234375,-0.03125 0.375,0 0.953125,0 1.3125,0.03125 v -0.265625 h -0.25 c -0.75,0 -0.75,-0.109375 -0.75,-0.390625 V -2.578125 H 2.625 c 0.78125,0 0.875,0.25 0.875,0.921875 h 0.25 v -2.125 H 3.5 c 0,0.6875 -0.09375,0.9375 -0.875,0.9375 H 1.890625 v -1.984375 c 0,-0.265625 0.015625,-0.328125 0.375,-0.328125 h 1.0625 c 1.296875,0 1.453125,0.5 1.59375,1.546875 H 5.15625 Z m 0,0"
   id="path147" />
    </g>
    <g
   id="use59"
   transform="translate(7.517076,121.102)">
      <path
   d="m 1.546875,-4.90625 c 0,-0.234375 -0.171875,-0.453125 -0.4375,-0.453125 -0.234375,0 -0.4375,0.1875 -0.4375,0.4375 0,0.28125 0.234375,0.453125 0.4375,0.453125 0.28125,0 0.4375,-0.234375 0.4375,-0.4375 z m -1.1875,1.484375 v 0.265625 c 0.515625,0 0.578125,0.046875 0.578125,0.4375 V -0.625 c 0,0.359375 -0.09375,0.359375 -0.609375,0.359375 V 0 c 0.3125,-0.03125 0.765625,-0.03125 0.890625,-0.03125 0.09375,0 0.578125,0 0.859375,0.03125 v -0.265625 c -0.53125,0 -0.5625,-0.03125 -0.5625,-0.34375 v -2.90625 z m 0,0"
   id="path148" />
    </g>
    <g
   id="use60"
   transform="translate(9.8690529,121.102)">
      <path
   d="m 1.515625,-5.53125 -1.1875,0.09375 v 0.265625 c 0.546875,0 0.609375,0.046875 0.609375,0.4375 V -0.625 c 0,0.359375 -0.09375,0.359375 -0.609375,0.359375 V 0 c 0.3125,-0.03125 0.765625,-0.03125 0.90625,-0.03125 0.15625,0 0.578125,0 0.890625,0.03125 v -0.265625 c -0.5,0 -0.609375,0 -0.609375,-0.359375 z m 0,0"
   id="path149" />
    </g>
    <g
   id="use61"
   transform="translate(12.221029,121.102)">
      <path
   d="m 1.484375,-3.171875 h 1.1875 V -3.4375 h -1.1875 v -1.46875 h -0.25 c 0,0.734375 -0.328125,1.484375 -1.078125,1.515625 v 0.21875 H 0.875 V -1 c 0,0.9375 0.71875,1.078125 1.078125,1.078125 C 2.5,0.078125 2.8125,-0.390625 2.8125,-1 v -0.4375 h -0.25 v 0.421875 c 0,0.546875 -0.25,0.84375 -0.546875,0.84375 -0.53125,0 -0.53125,-0.6875 -0.53125,-0.8125 z m 0,0"
   id="path150" />
    </g>
    <g
   id="use62"
   transform="translate(15.514275,121.102)">
      <path
   d="m 3.296875,-1.8125 c 0.171875,0 0.21875,0 0.21875,-0.1875 C 3.515625,-2.703125 3.125,-3.546875 2,-3.546875 c -0.984375,0 -1.765625,0.8125 -1.765625,1.796875 0,1.03125 0.859375,1.828125 1.875,1.828125 1,0 1.40625,-0.84375 1.40625,-1.03125 0,-0.03125 -0.03125,-0.109375 -0.125,-0.109375 -0.09375,0 -0.109375,0.046875 -0.125,0.09375 -0.28125,0.78125 -0.96875,0.796875 -1.109375,0.796875 -0.359375,0 -0.734375,-0.15625 -0.96875,-0.53125 C 0.953125,-1.0625 0.953125,-1.578125 0.953125,-1.8125 Z M 0.953125,-2.03125 C 1.03125,-3.140625 1.703125,-3.328125 2,-3.328125 c 0.9375,0 0.96875,1.125 0.96875,1.296875 z m 0,0"
   id="path151" />
    </g>
    <g
   id="use63"
   transform="translate(19.277756,121.102)">
      <path
   d="m 1.46875,-1.8125 c 0,-0.609375 0.25,-1.46875 1.015625,-1.484375 -0.046875,0.03125 -0.140625,0.09375 -0.140625,0.28125 0,0.25 0.203125,0.359375 0.359375,0.359375 0.1875,0 0.359375,-0.125 0.359375,-0.359375 0,-0.28125 -0.25,-0.5 -0.609375,-0.5 -0.515625,0 -0.875,0.390625 -1.03125,0.84375 H 1.40625 v -0.84375 l -1.125,0.09375 v 0.265625 c 0.546875,0 0.609375,0.046875 0.609375,0.4375 V -0.625 c 0,0.359375 -0.109375,0.359375 -0.609375,0.359375 V 0 c 0.3125,-0.03125 0.75,-0.03125 0.9375,-0.03125 0.46875,0 0.484375,0 1,0.03125 V -0.265625 H 2.0625 c -0.578125,0 -0.59375,-0.078125 -0.59375,-0.375 z m 0,0"
   id="path152" />
    </g>
    <g
   id="use64"
   transform="translate(22.578175,121.102)">
      <path
   d="m 1.546875,-4.90625 c 0,-0.234375 -0.171875,-0.453125 -0.4375,-0.453125 -0.234375,0 -0.4375,0.1875 -0.4375,0.4375 0,0.28125 0.234375,0.453125 0.4375,0.453125 0.28125,0 0.4375,-0.234375 0.4375,-0.4375 z m -1.1875,1.484375 v 0.265625 c 0.515625,0 0.578125,0.046875 0.578125,0.4375 V -0.625 c 0,0.359375 -0.09375,0.359375 -0.609375,0.359375 V 0 c 0.3125,-0.03125 0.765625,-0.03125 0.890625,-0.03125 0.09375,0 0.578125,0 0.859375,0.03125 v -0.265625 c -0.53125,0 -0.5625,-0.03125 -0.5625,-0.34375 v -2.90625 z m 0,0"
   id="path153" />
    </g>
    <g
   id="use65"
   transform="translate(24.930151,121.102)">
      <path
   d="m 3.875,-2.421875 c 0,-0.65625 -0.3125,-1.09375 -1.140625,-1.09375 -0.796875,0 -1.15625,0.578125 -1.25,0.765625 v -0.765625 l -1.15625,0.09375 v 0.265625 c 0.546875,0 0.609375,0.046875 0.609375,0.4375 V -0.625 c 0,0.359375 -0.09375,0.359375 -0.609375,0.359375 V 0 c 0.34375,-0.03125 0.6875,-0.03125 0.90625,-0.03125 0.234375,0 0.5625,0 0.90625,0.03125 v -0.265625 c -0.5,0 -0.609375,0 -0.609375,-0.359375 v -1.4375 c 0,-0.84375 0.640625,-1.234375 1.125,-1.234375 0.484375,0 0.609375,0.34375 0.609375,0.84375 V -0.625 c 0,0.359375 -0.09375,0.359375 -0.609375,0.359375 V 0 C 3,-0.03125 3.359375,-0.03125 3.5625,-0.03125 c 0.234375,0 0.578125,0 0.921875,0.03125 v -0.265625 c -0.515625,0 -0.609375,0 -0.609375,-0.359375 z m 0,0"
   id="path154" />
    </g>
    <g
   id="use66"
   transform="translate(29.634901,121.102)">
      <path
   d="m 1.375,-0.546875 c -0.25,-0.03125 -0.4375,-0.234375 -0.4375,-0.53125 0,-0.1875 0.046875,-0.265625 0.09375,-0.328125 0.34375,0.1875 0.65625,0.234375 0.84375,0.234375 0.78125,0 1.375,-0.546875 1.375,-1.171875 0,-0.296875 -0.140625,-0.5625 -0.328125,-0.765625 C 3.03125,-3.203125 3.296875,-3.375 3.6875,-3.375 c -0.03125,0.015625 -0.078125,0.0625 -0.078125,0.1875 0,0.140625 0.109375,0.25 0.25,0.25 0.109375,0 0.25,-0.078125 0.25,-0.265625 0,-0.125 -0.109375,-0.40625 -0.453125,-0.40625 -0.140625,0 -0.53125,0.046875 -0.890625,0.375 C 2.5625,-3.375 2.25,-3.515625 1.875,-3.515625 c -0.78125,0 -1.359375,0.546875 -1.359375,1.171875 0,0.375 0.203125,0.65625 0.375,0.8125 -0.1875,0.203125 -0.25,0.453125 -0.25,0.640625 0,0.328125 0.171875,0.578125 0.34375,0.71875 -0.421875,0.109375 -0.75,0.421875 -0.75,0.78125 0,0.578125 0.828125,1.03125 1.875,1.03125 1,0 1.875,-0.40625 1.875,-1.046875 0,-0.421875 -0.25,-0.765625 -0.515625,-0.890625 -0.46875,-0.25 -0.859375,-0.25 -1.640625,-0.25 z m 0.5,-0.859375 c -0.734375,0 -0.734375,-0.765625 -0.734375,-0.9375 0,-0.296875 0.03125,-0.5 0.15625,-0.65625 C 1.4375,-3.1875 1.65625,-3.28125 1.875,-3.28125 c 0.734375,0 0.734375,0.765625 0.734375,0.9375 0,0.296875 -0.03125,0.5 -0.15625,0.65625 C 2.28125,-1.453125 2.03125,-1.40625 1.875,-1.40625 Z m 0.375,1.375 c 0.21875,0 1.265625,0 1.265625,0.640625 0,0.421875 -0.609375,0.796875 -1.40625,0.796875 -0.796875,0 -1.40625,-0.375 -1.40625,-0.796875 0,-0.171875 0.140625,-0.640625 0.78125,-0.640625 z m 0,0"
   id="path155" />
    </g>
  </g></g><g
         id="g13"
         transform="translate(-31.132309,-5.1515865)"><rect
           style="fill:none;stroke:#000000;stroke-width:0.3;stroke-dasharray:none;stroke-opacity:1"
           id="rect5"
           width="30.914499"
           height="15.089219"
           x="121.29057"
           y="50.380268" /><g
           fill="#000000"
           fill-opacity="1"
           id="g69"
           transform="matrix(0.352778,0,0,0.352778,133.01282,2.8036423)">
    <g
   id="use67"
   transform="translate(1.993,158.96001)">
      <path
   d="M 4.9375,-5.421875 H 0.34375 v 0.265625 h 0.1875 c 0.609375,0 0.625,0.09375 0.625,0.390625 v 4.125 c 0,0.296875 -0.015625,0.375 -0.625,0.375 H 0.34375 V 0 c 0.6875,-0.03125 0.703125,-0.03125 1.234375,-0.03125 0.375,0 0.953125,0 1.3125,0.03125 v -0.265625 h -0.25 c -0.75,0 -0.75,-0.109375 -0.75,-0.390625 V -2.578125 H 2.625 c 0.78125,0 0.875,0.25 0.875,0.921875 h 0.25 v -2.125 H 3.5 c 0,0.6875 -0.09375,0.9375 -0.875,0.9375 H 1.890625 v -1.984375 c 0,-0.265625 0.015625,-0.328125 0.375,-0.328125 h 1.0625 c 1.296875,0 1.453125,0.5 1.59375,1.546875 H 5.15625 Z m 0,0"
   id="path156" />
    </g>
    <g
   id="use68"
   transform="translate(7.517076,158.96001)">
      <path
   d="M 4.9375,-5.421875 H 0.34375 v 0.265625 h 0.1875 c 0.609375,0 0.625,0.09375 0.625,0.390625 v 4.125 c 0,0.296875 -0.015625,0.375 -0.625,0.375 H 0.34375 V 0 c 0.6875,-0.03125 0.703125,-0.03125 1.234375,-0.03125 0.375,0 0.953125,0 1.3125,0.03125 v -0.265625 h -0.25 c -0.75,0 -0.75,-0.109375 -0.75,-0.390625 V -2.578125 H 2.625 c 0.78125,0 0.875,0.25 0.875,0.921875 h 0.25 v -2.125 H 3.5 c 0,0.6875 -0.09375,0.9375 -0.875,0.9375 H 1.890625 v -1.984375 c 0,-0.265625 0.015625,-0.328125 0.375,-0.328125 h 1.0625 c 1.296875,0 1.453125,0.5 1.59375,1.546875 H 5.15625 Z m 0,0"
   id="path157" />
    </g>
    <g
   id="use69"
   transform="translate(13.041153,158.96001)">
      <path
   d="M 5.640625,-5.390625 H 0.46875 l -0.171875,1.8125 h 0.25 C 0.65625,-4.921875 0.84375,-5.125 2.0625,-5.125 c 0.15625,0 0.40625,0 0.46875,0.015625 C 2.671875,-5.078125 2.6875,-5 2.6875,-4.796875 v 4.140625 c 0,0.28125 0,0.390625 -0.828125,0.390625 h -0.3125 V 0 c 0.296875,-0.03125 1.15625,-0.03125 1.5,-0.03125 0.34375,0 1.203125,0 1.5,0.03125 V -0.265625 H 4.25 c -0.828125,0 -0.828125,-0.109375 -0.828125,-0.390625 v -4.140625 c 0,-0.1875 0,-0.28125 0.15625,-0.3125 C 3.65625,-5.125 3.890625,-5.125 4.046875,-5.125 c 1.21875,0 1.390625,0.203125 1.5,1.546875 h 0.25 z m 0,0"
   id="path158" />
    </g>
  </g></g><g
         id="g14"
         transform="translate(-34.478988,-10.480995)"><rect
           style="fill:none;stroke:#000000;stroke-width:0.3;stroke-dasharray:none;stroke-opacity:1"
           id="rect6"
           width="37.277397"
           height="14.733581"
           x="121.4558"
           y="77.016426" /><g
           id="g10"
           transform="translate(2.3721568,-1.622937)"><g
             fill="#000000"
             fill-opacity="1"
             id="g78"
             transform="matrix(0.352778,0,0,0.352778,121.94379,17.25936)">
    <g
   id="use70"
   transform="translate(1.993,196.81799)">
      <path
   d="M 2.03125,-5.265625 C 1.953125,-5.421875 1.953125,-5.4375 1.734375,-5.4375 h -1.34375 v 0.265625 H 0.5625 c 0.609375,0 0.625,0.078125 0.625,0.375 v 3.9375 c 0,0.21875 0,0.59375 -0.796875,0.59375 V 0 C 0.75,-0.03125 1.125,-0.03125 1.328125,-0.03125 c 0.203125,0 0.578125,0 0.9375,0.03125 v -0.265625 c -0.796875,0 -0.796875,-0.375 -0.796875,-0.59375 V -5.09375 L 3.484375,-0.1875 C 3.53125,-0.09375 3.5625,0 3.671875,0 3.78125,0 3.8125,-0.09375 3.859375,-0.1875 l 2.03125,-4.96875 v 4.515625 c 0,0.296875 -0.015625,0.375 -0.625,0.375 H 5.09375 V 0 c 0.625,-0.03125 0.640625,-0.03125 1.125,-0.03125 0.484375,0 0.5,0 1.140625,0.03125 V -0.265625 H 7.1875 c -0.625,0 -0.640625,-0.078125 -0.640625,-0.375 v -4.15625 c 0,-0.296875 0.015625,-0.375 0.640625,-0.375 H 7.359375 V -5.4375 h -1.34375 c -0.21875,0 -0.234375,0.015625 -0.296875,0.15625 L 3.875,-0.75 Z m 0,0"
   id="path159" />
    </g>
    <g
   id="use71"
   transform="translate(9.7471104,196.81799)">
      <path
   d="m 3.34375,-2.375 c 0,-0.78125 -0.75,-1.171875 -1.484375,-1.171875 -0.65625,0 -1.25,0.25 -1.25,0.78125 0,0.234375 0.171875,0.375 0.375,0.375 0.234375,0 0.375,-0.15625 0.375,-0.375 0,-0.1875 -0.109375,-0.328125 -0.296875,-0.359375 0.296875,-0.203125 0.734375,-0.203125 0.78125,-0.203125 0.453125,0 0.890625,0.3125 0.890625,0.96875 V -2.125 C 2.28125,-2.09375 1.75,-2.078125 1.1875,-1.84375 c -0.703125,0.3125 -0.84375,0.765625 -0.84375,1.03125 0,0.6875 0.8125,0.890625 1.359375,0.890625 0.578125,0 0.9375,-0.328125 1.125,-0.640625 0.03125,0.296875 0.234375,0.609375 0.59375,0.609375 0.078125,0 0.75,-0.03125 0.75,-0.765625 v -0.4375 h -0.25 v 0.4375 c 0,0.328125 -0.109375,0.453125 -0.28125,0.453125 -0.296875,0 -0.296875,-0.359375 -0.296875,-0.453125 z m -0.609375,1.25 c 0,0.78125 -0.640625,0.984375 -0.96875,0.984375 C 1.359375,-0.140625 1,-0.421875 1,-0.8125 1,-1.328125 1.5,-1.875 2.734375,-1.90625 Z m 0,0"
   id="path160" />
    </g>
    <g
   id="use72"
   transform="translate(13.981624,196.81799)">
      <path
   d="m 1.375,-0.546875 c -0.25,-0.03125 -0.4375,-0.234375 -0.4375,-0.53125 0,-0.1875 0.046875,-0.265625 0.09375,-0.328125 0.34375,0.1875 0.65625,0.234375 0.84375,0.234375 0.78125,0 1.375,-0.546875 1.375,-1.171875 0,-0.296875 -0.140625,-0.5625 -0.328125,-0.765625 C 3.03125,-3.203125 3.296875,-3.375 3.6875,-3.375 c -0.03125,0.015625 -0.078125,0.0625 -0.078125,0.1875 0,0.140625 0.109375,0.25 0.25,0.25 0.109375,0 0.25,-0.078125 0.25,-0.265625 0,-0.125 -0.109375,-0.40625 -0.453125,-0.40625 -0.140625,0 -0.53125,0.046875 -0.890625,0.375 C 2.5625,-3.375 2.25,-3.515625 1.875,-3.515625 c -0.78125,0 -1.359375,0.546875 -1.359375,1.171875 0,0.375 0.203125,0.65625 0.375,0.8125 -0.1875,0.203125 -0.25,0.453125 -0.25,0.640625 0,0.328125 0.171875,0.578125 0.34375,0.71875 -0.421875,0.109375 -0.75,0.421875 -0.75,0.78125 0,0.578125 0.828125,1.03125 1.875,1.03125 1,0 1.875,-0.40625 1.875,-1.046875 0,-0.421875 -0.25,-0.765625 -0.515625,-0.890625 -0.46875,-0.25 -0.859375,-0.25 -1.640625,-0.25 z m 0.5,-0.859375 c -0.734375,0 -0.734375,-0.765625 -0.734375,-0.9375 0,-0.296875 0.03125,-0.5 0.15625,-0.65625 C 1.4375,-3.1875 1.65625,-3.28125 1.875,-3.28125 c 0.734375,0 0.734375,0.765625 0.734375,0.9375 0,0.296875 -0.03125,0.5 -0.15625,0.65625 C 2.28125,-1.453125 2.03125,-1.40625 1.875,-1.40625 Z m 0.375,1.375 c 0.21875,0 1.265625,0 1.265625,0.640625 0,0.421875 -0.609375,0.796875 -1.40625,0.796875 -0.796875,0 -1.40625,-0.375 -1.40625,-0.796875 0,-0.171875 0.140625,-0.640625 0.78125,-0.640625 z m 0,0"
   id="path161" />
    </g>
    <g
   id="use73"
   transform="translate(18.216139,196.81799)">
      <path
   d="m 3.875,-2.421875 c 0,-0.65625 -0.3125,-1.09375 -1.140625,-1.09375 -0.796875,0 -1.15625,0.578125 -1.25,0.765625 v -0.765625 l -1.15625,0.09375 v 0.265625 c 0.546875,0 0.609375,0.046875 0.609375,0.4375 V -0.625 c 0,0.359375 -0.09375,0.359375 -0.609375,0.359375 V 0 c 0.34375,-0.03125 0.6875,-0.03125 0.90625,-0.03125 0.234375,0 0.5625,0 0.90625,0.03125 v -0.265625 c -0.5,0 -0.609375,0 -0.609375,-0.359375 v -1.4375 c 0,-0.84375 0.640625,-1.234375 1.125,-1.234375 0.484375,0 0.609375,0.34375 0.609375,0.84375 V -0.625 c 0,0.359375 -0.09375,0.359375 -0.609375,0.359375 V 0 C 3,-0.03125 3.359375,-0.03125 3.5625,-0.03125 c 0.234375,0 0.578125,0 0.921875,0.03125 v -0.265625 c -0.515625,0 -0.609375,0 -0.609375,-0.359375 z m 0,0"
   id="path162" />
    </g>
    <g
   id="use74"
   transform="translate(22.920889,196.81799)">
      <path
   d="m 1.546875,-4.90625 c 0,-0.234375 -0.171875,-0.453125 -0.4375,-0.453125 -0.234375,0 -0.4375,0.1875 -0.4375,0.4375 0,0.28125 0.234375,0.453125 0.4375,0.453125 0.28125,0 0.4375,-0.234375 0.4375,-0.4375 z m -1.1875,1.484375 v 0.265625 c 0.515625,0 0.578125,0.046875 0.578125,0.4375 V -0.625 c 0,0.359375 -0.09375,0.359375 -0.609375,0.359375 V 0 c 0.3125,-0.03125 0.765625,-0.03125 0.890625,-0.03125 0.09375,0 0.578125,0 0.859375,0.03125 v -0.265625 c -0.53125,0 -0.5625,-0.03125 -0.5625,-0.34375 v -2.90625 z m 0,0"
   id="path163" />
    </g>
    <g
   id="use75"
   transform="translate(25.272865,196.81799)">
      <path
   d="m 1.484375,-3.171875 h 1.1875 V -3.4375 h -1.1875 v -1.46875 h -0.25 c 0,0.734375 -0.328125,1.484375 -1.078125,1.515625 v 0.21875 H 0.875 V -1 c 0,0.9375 0.71875,1.078125 1.078125,1.078125 C 2.5,0.078125 2.8125,-0.390625 2.8125,-1 v -0.4375 h -0.25 v 0.421875 c 0,0.546875 -0.25,0.84375 -0.546875,0.84375 -0.53125,0 -0.53125,-0.6875 -0.53125,-0.8125 z m 0,0"
   id="path164" />
    </g>
    <g
   id="use76"
   transform="translate(28.566111,196.81799)">
      <path
   d="m 2.65625,-3.421875 v 0.265625 c 0.546875,0 0.609375,0.046875 0.609375,0.4375 v 1.390625 c 0,0.6875 -0.40625,1.1875 -1.015625,1.1875 -0.6875,0 -0.71875,-0.34375 -0.71875,-0.75 v -2.625 l -1.203125,0.09375 v 0.265625 c 0.609375,0 0.609375,0.015625 0.609375,0.71875 v 1.203125 c 0,0.578125 0,1.3125 1.265625,1.3125 0.75,0 1.046875,-0.578125 1.078125,-0.640625 H 3.296875 V 0.078125 L 4.484375,0 V -0.265625 C 3.9375,-0.265625 3.875,-0.3125 3.875,-0.703125 v -2.8125 z m 0,0"
   id="path165" />
    </g>
    <g
   id="use77"
   transform="translate(33.270859,196.81799)">
      <path
   d="m 2.625,-5.4375 v 0.265625 c 0.53125,0 0.609375,0.046875 0.609375,0.4375 v 1.6875 c -0.28125,-0.3125 -0.65625,-0.46875 -1.078125,-0.46875 -1,0 -1.875,0.78125 -1.875,1.796875 0,0.984375 0.796875,1.796875 1.796875,1.796875 0.46875,0 0.859375,-0.21875 1.125,-0.5 v 0.5 L 4.421875,0 V -0.265625 C 3.875,-0.265625 3.8125,-0.3125 3.8125,-0.703125 V -5.53125 Z m 0.578125,4.453125 c 0,0.140625 0,0.171875 -0.125,0.328125 C 2.859375,-0.328125 2.5,-0.140625 2.125,-0.140625 1.75,-0.140625 1.4375,-0.328125 1.25,-0.625 1.03125,-0.9375 0.984375,-1.328125 0.984375,-1.703125 0.984375,-2.171875 1.0625,-2.5 1.25,-2.765625 c 0.1875,-0.296875 0.546875,-0.53125 0.953125,-0.53125 0.375,0 0.765625,0.203125 1,0.609375 z m 0,0"
   id="path166" />
    </g>
    <g
   id="use78"
   transform="translate(37.975609,196.81799)">
      <path
   d="m 3.296875,-1.8125 c 0.171875,0 0.21875,0 0.21875,-0.1875 C 3.515625,-2.703125 3.125,-3.546875 2,-3.546875 c -0.984375,0 -1.765625,0.8125 -1.765625,1.796875 0,1.03125 0.859375,1.828125 1.875,1.828125 1,0 1.40625,-0.84375 1.40625,-1.03125 0,-0.03125 -0.03125,-0.109375 -0.125,-0.109375 -0.09375,0 -0.109375,0.046875 -0.125,0.09375 -0.28125,0.78125 -0.96875,0.796875 -1.109375,0.796875 -0.359375,0 -0.734375,-0.15625 -0.96875,-0.53125 C 0.953125,-1.0625 0.953125,-1.578125 0.953125,-1.8125 Z M 0.953125,-2.03125 C 1.03125,-3.140625 1.703125,-3.328125 2,-3.328125 c 0.9375,0 0.96875,1.125 0.96875,1.296875 z m 0,0"
   id="path167" />
    </g>
  </g><g
             fill="#000000"
             fill-opacity="1"
             id="g81"
             transform="matrix(0.352778,0,0,0.352778,121.94379,17.25936)">
    <g
   id="use79"
   transform="translate(44.560509,196.81799)">
      <path
   d="m 3.34375,-2.375 c 0,-0.78125 -0.75,-1.171875 -1.484375,-1.171875 -0.65625,0 -1.25,0.25 -1.25,0.78125 0,0.234375 0.171875,0.375 0.375,0.375 0.234375,0 0.375,-0.15625 0.375,-0.375 0,-0.1875 -0.109375,-0.328125 -0.296875,-0.359375 0.296875,-0.203125 0.734375,-0.203125 0.78125,-0.203125 0.453125,0 0.890625,0.3125 0.890625,0.96875 V -2.125 C 2.28125,-2.09375 1.75,-2.078125 1.1875,-1.84375 c -0.703125,0.3125 -0.84375,0.765625 -0.84375,1.03125 0,0.6875 0.8125,0.890625 1.359375,0.890625 0.578125,0 0.9375,-0.328125 1.125,-0.640625 0.03125,0.296875 0.234375,0.609375 0.59375,0.609375 0.078125,0 0.75,-0.03125 0.75,-0.765625 v -0.4375 h -0.25 v 0.4375 c 0,0.328125 -0.109375,0.453125 -0.28125,0.453125 -0.296875,0 -0.296875,-0.359375 -0.296875,-0.453125 z m -0.609375,1.25 c 0,0.78125 -0.640625,0.984375 -0.96875,0.984375 C 1.359375,-0.140625 1,-0.421875 1,-0.8125 1,-1.328125 1.5,-1.875 2.734375,-1.90625 Z m 0,0"
   id="path168" />
    </g>
    <g
   id="use80"
   transform="translate(48.795021,196.81799)">
      <path
   d="m 3.875,-2.421875 c 0,-0.65625 -0.3125,-1.09375 -1.140625,-1.09375 -0.796875,0 -1.15625,0.578125 -1.25,0.765625 v -0.765625 l -1.15625,0.09375 v 0.265625 c 0.546875,0 0.609375,0.046875 0.609375,0.4375 V -0.625 c 0,0.359375 -0.09375,0.359375 -0.609375,0.359375 V 0 c 0.34375,-0.03125 0.6875,-0.03125 0.90625,-0.03125 0.234375,0 0.5625,0 0.90625,0.03125 v -0.265625 c -0.5,0 -0.609375,0 -0.609375,-0.359375 v -1.4375 c 0,-0.84375 0.640625,-1.234375 1.125,-1.234375 0.484375,0 0.609375,0.34375 0.609375,0.84375 V -0.625 c 0,0.359375 -0.09375,0.359375 -0.609375,0.359375 V 0 C 3,-0.03125 3.359375,-0.03125 3.5625,-0.03125 c 0.234375,0 0.578125,0 0.921875,0.03125 v -0.265625 c -0.515625,0 -0.609375,0 -0.609375,-0.359375 z m 0,0"
   id="path169" />
    </g>
    <g
   id="use81"
   transform="translate(53.499771,196.81799)">
      <path
   d="m 2.625,-5.4375 v 0.265625 c 0.53125,0 0.609375,0.046875 0.609375,0.4375 v 1.6875 c -0.28125,-0.3125 -0.65625,-0.46875 -1.078125,-0.46875 -1,0 -1.875,0.78125 -1.875,1.796875 0,0.984375 0.796875,1.796875 1.796875,1.796875 0.46875,0 0.859375,-0.21875 1.125,-0.5 v 0.5 L 4.421875,0 V -0.265625 C 3.875,-0.265625 3.8125,-0.3125 3.8125,-0.703125 V -5.53125 Z m 0.578125,4.453125 c 0,0.140625 0,0.171875 -0.125,0.328125 C 2.859375,-0.328125 2.5,-0.140625 2.125,-0.140625 1.75,-0.140625 1.4375,-0.328125 1.25,-0.625 1.03125,-0.9375 0.984375,-1.328125 0.984375,-1.703125 0.984375,-2.171875 1.0625,-2.5 1.25,-2.765625 c 0.1875,-0.296875 0.546875,-0.53125 0.953125,-0.53125 0.375,0 0.765625,0.203125 1,0.609375 z m 0,0"
   id="path170" />
    </g>
  </g><g
             fill="#000000"
             fill-opacity="1"
             id="g87"
             transform="matrix(0.352778,0,0,0.352778,121.94379,17.25936)">
    <g
   id="use82"
   transform="translate(61.025936,196.81799)">
      <path
   d="m 5.515625,-2.078125 h -0.25 c -0.203125,1.203125 -0.375,1.8125 -1.8125,1.8125 h -1.1875 c -0.359375,0 -0.375,-0.046875 -0.375,-0.328125 V -2.6875 H 2.65625 c 0.796875,0 0.90625,0.234375 0.90625,0.9375 h 0.25 v -2.125 h -0.25 c 0,0.6875 -0.109375,0.921875 -0.90625,0.921875 H 1.890625 v -1.875 c 0,-0.265625 0.015625,-0.328125 0.375,-0.328125 H 3.40625 c 1.3125,0 1.484375,0.484375 1.625,1.546875 h 0.25 l -0.234375,-1.8125 H 0.34375 v 0.265625 h 0.1875 c 0.609375,0 0.625,0.09375 0.625,0.390625 v 4.125 c 0,0.296875 -0.015625,0.375 -0.625,0.375 H 0.34375 V 0 h 4.8125 z m 0,0"
   id="path171" />
    </g>
    <g
   id="use83"
   transform="translate(66.785133,196.81799)">
      <path
   d="m 3.875,-2.421875 c 0,-0.65625 -0.3125,-1.09375 -1.140625,-1.09375 -0.796875,0 -1.15625,0.578125 -1.25,0.765625 v -0.765625 l -1.15625,0.09375 v 0.265625 c 0.546875,0 0.609375,0.046875 0.609375,0.4375 V -0.625 c 0,0.359375 -0.09375,0.359375 -0.609375,0.359375 V 0 c 0.34375,-0.03125 0.6875,-0.03125 0.90625,-0.03125 0.234375,0 0.5625,0 0.90625,0.03125 v -0.265625 c -0.5,0 -0.609375,0 -0.609375,-0.359375 v -1.4375 c 0,-0.84375 0.640625,-1.234375 1.125,-1.234375 0.484375,0 0.609375,0.34375 0.609375,0.84375 V -0.625 c 0,0.359375 -0.09375,0.359375 -0.609375,0.359375 V 0 C 3,-0.03125 3.359375,-0.03125 3.5625,-0.03125 c 0.234375,0 0.578125,0 0.921875,0.03125 v -0.265625 c -0.515625,0 -0.609375,0 -0.609375,-0.359375 z m 0,0"
   id="path172" />
    </g>
    <g
   id="use84"
   transform="translate(71.489883,196.81799)">
      <path
   d="m 3.296875,-1.8125 c 0.171875,0 0.21875,0 0.21875,-0.1875 C 3.515625,-2.703125 3.125,-3.546875 2,-3.546875 c -0.984375,0 -1.765625,0.8125 -1.765625,1.796875 0,1.03125 0.859375,1.828125 1.875,1.828125 1,0 1.40625,-0.84375 1.40625,-1.03125 0,-0.03125 -0.03125,-0.109375 -0.125,-0.109375 -0.09375,0 -0.109375,0.046875 -0.125,0.09375 -0.28125,0.78125 -0.96875,0.796875 -1.109375,0.796875 -0.359375,0 -0.734375,-0.15625 -0.96875,-0.53125 C 0.953125,-1.0625 0.953125,-1.578125 0.953125,-1.8125 Z M 0.953125,-2.03125 C 1.03125,-3.140625 1.703125,-3.328125 2,-3.328125 c 0.9375,0 0.96875,1.125 0.96875,1.296875 z m 0,0"
   id="path173" />
    </g>
    <g
   id="use85"
   transform="translate(75.253365,196.81799)">
      <path
   d="m 1.46875,-1.8125 c 0,-0.609375 0.25,-1.46875 1.015625,-1.484375 -0.046875,0.03125 -0.140625,0.09375 -0.140625,0.28125 0,0.25 0.203125,0.359375 0.359375,0.359375 0.1875,0 0.359375,-0.125 0.359375,-0.359375 0,-0.28125 -0.25,-0.5 -0.609375,-0.5 -0.515625,0 -0.875,0.390625 -1.03125,0.84375 H 1.40625 v -0.84375 l -1.125,0.09375 v 0.265625 c 0.546875,0 0.609375,0.046875 0.609375,0.4375 V -0.625 c 0,0.359375 -0.109375,0.359375 -0.609375,0.359375 V 0 c 0.3125,-0.03125 0.75,-0.03125 0.9375,-0.03125 0.46875,0 0.484375,0 1,0.03125 V -0.265625 H 2.0625 c -0.578125,0 -0.59375,-0.078125 -0.59375,-0.375 z m 0,0"
   id="path174" />
    </g>
    <g
   id="use86"
   transform="translate(78.55378,196.81799)">
      <path
   d="m 1.375,-0.546875 c -0.25,-0.03125 -0.4375,-0.234375 -0.4375,-0.53125 0,-0.1875 0.046875,-0.265625 0.09375,-0.328125 0.34375,0.1875 0.65625,0.234375 0.84375,0.234375 0.78125,0 1.375,-0.546875 1.375,-1.171875 0,-0.296875 -0.140625,-0.5625 -0.328125,-0.765625 C 3.03125,-3.203125 3.296875,-3.375 3.6875,-3.375 c -0.03125,0.015625 -0.078125,0.0625 -0.078125,0.1875 0,0.140625 0.109375,0.25 0.25,0.25 0.109375,0 0.25,-0.078125 0.25,-0.265625 0,-0.125 -0.109375,-0.40625 -0.453125,-0.40625 -0.140625,0 -0.53125,0.046875 -0.890625,0.375 C 2.5625,-3.375 2.25,-3.515625 1.875,-3.515625 c -0.78125,0 -1.359375,0.546875 -1.359375,1.171875 0,0.375 0.203125,0.65625 0.375,0.8125 -0.1875,0.203125 -0.25,0.453125 -0.25,0.640625 0,0.328125 0.171875,0.578125 0.34375,0.71875 -0.421875,0.109375 -0.75,0.421875 -0.75,0.78125 0,0.578125 0.828125,1.03125 1.875,1.03125 1,0 1.875,-0.40625 1.875,-1.046875 0,-0.421875 -0.25,-0.765625 -0.515625,-0.890625 -0.46875,-0.25 -0.859375,-0.25 -1.640625,-0.25 z m 0.5,-0.859375 c -0.734375,0 -0.734375,-0.765625 -0.734375,-0.9375 0,-0.296875 0.03125,-0.5 0.15625,-0.65625 C 1.4375,-3.1875 1.65625,-3.28125 1.875,-3.28125 c 0.734375,0 0.734375,0.765625 0.734375,0.9375 0,0.296875 -0.03125,0.5 -0.15625,0.65625 C 2.28125,-1.453125 2.03125,-1.40625 1.875,-1.40625 Z m 0.375,1.375 c 0.21875,0 1.265625,0 1.265625,0.640625 0,0.421875 -0.609375,0.796875 -1.40625,0.796875 -0.796875,0 -1.40625,-0.375 -1.40625,-0.796875 0,-0.171875 0.140625,-0.640625 0.78125,-0.640625 z m 0,0"
   id="path175" />
    </g>
    <g
   id="use87"
   transform="translate(82.788292,196.81799)">
      <path
   d="m 3.53125,-2.625 c 0.203125,-0.453125 0.5,-0.53125 0.75,-0.546875 V -3.4375 C 4.015625,-3.40625 4,-3.40625 3.65625,-3.40625 c -0.03125,0 -0.453125,0 -0.6875,-0.03125 v 0.265625 c 0.234375,0.015625 0.34375,0.140625 0.34375,0.328125 0,0.046875 0,0.109375 -0.046875,0.203125 L 2.421875,-0.71875 1.484375,-2.8125 C 1.4375,-2.921875 1.4375,-2.9375 1.4375,-2.96875 c 0,-0.1875 0.25,-0.203125 0.421875,-0.203125 V -3.4375 C 1.5,-3.40625 1.15625,-3.40625 0.984375,-3.40625 c -0.171875,0 -0.546875,0 -0.8125,-0.03125 v 0.265625 c 0.421875,0 0.53125,0.015625 0.671875,0.3125 L 2.09375,0 C 1.734375,0.84375 1.5,1.40625 0.9375,1.40625 0.734375,1.40625 0.609375,1.3125 0.609375,1.3125 c 0.0625,-0.015625 0.25,-0.109375 0.25,-0.34375 C 0.859375,0.75 0.6875,0.625 0.515625,0.625 c -0.171875,0 -0.34375,0.109375 -0.34375,0.359375 0,0.34375 0.34375,0.640625 0.765625,0.640625 0.71875,0 1.09375,-0.859375 1.125,-0.9375 z m 0,0"
   id="path176" />
    </g>
  </g></g></g><g
         id="g15"
         transform="translate(-47.657309,-15.875)"><g
           id="g11"
           transform="translate(19.721638,-110.21191)"><g
             fill="#000000"
             fill-opacity="1"
             id="g100"
             transform="matrix(0.352778,0,0,0.352778,106.06879,138.96771)">
    <g
   id="use88"
   transform="translate(1.993,234.67599)">
      <path
   d="M 5.28125,-4.640625 C 5.5,-5.171875 6,-5.171875 6.15625,-5.171875 V -5.4375 c -0.234375,0.015625 -0.640625,0.015625 -0.78125,0.015625 -0.15625,0 -0.515625,0 -0.875,-0.015625 v 0.265625 c 0.34375,0 0.53125,0.171875 0.53125,0.375 0,0.078125 0,0.09375 -0.046875,0.1875 L 3.40625,-0.75 1.75,-4.8125 C 1.71875,-4.890625 1.703125,-4.921875 1.703125,-4.953125 c 0,-0.21875 0.421875,-0.21875 0.609375,-0.21875 V -5.4375 c -0.671875,0.015625 -0.6875,0.015625 -1.109375,0.015625 -0.375,0 -0.625,0 -1.03125,-0.015625 v 0.265625 c 0.484375,0 0.65625,0 0.78125,0.296875 l 2,4.859375 c 0.0625,0.15625 0.125,0.1875 0.203125,0.1875 0.15625,0 0.171875,-0.0625 0.21875,-0.1875 z m 0,0"
   id="path177" />
    </g>
    <g
   id="use89"
   transform="translate(8.3356056,234.67599)">
      <path
   d="m 1.546875,-4.90625 c 0,-0.234375 -0.171875,-0.453125 -0.4375,-0.453125 -0.234375,0 -0.4375,0.1875 -0.4375,0.4375 0,0.28125 0.234375,0.453125 0.4375,0.453125 0.28125,0 0.4375,-0.234375 0.4375,-0.4375 z m -1.1875,1.484375 v 0.265625 c 0.515625,0 0.578125,0.046875 0.578125,0.4375 V -0.625 c 0,0.359375 -0.09375,0.359375 -0.609375,0.359375 V 0 c 0.3125,-0.03125 0.765625,-0.03125 0.890625,-0.03125 0.09375,0 0.578125,0 0.859375,0.03125 v -0.265625 c -0.53125,0 -0.5625,-0.03125 -0.5625,-0.34375 v -2.90625 z m 0,0"
   id="path178" />
    </g>
    <g
   id="use90"
   transform="translate(10.687582,234.67599)">
      <path
   d="m 2.84375,-3.34375 c 0,-0.125 0,-0.203125 -0.109375,-0.203125 -0.046875,0 -0.0625,0 -0.1875,0.125 -0.015625,0 -0.09375,0.078125 -0.109375,0.078125 -0.015625,0 -0.03125,0 -0.078125,-0.03125 C 2.234375,-3.46875 2,-3.546875 1.640625,-3.546875 c -1.109375,0 -1.359375,0.59375 -1.359375,0.984375 0,0.390625 0.296875,0.625 0.3125,0.65625 0.328125,0.234375 0.5,0.265625 1.046875,0.359375 0.375,0.078125 0.984375,0.1875 0.984375,0.71875 0,0.3125 -0.203125,0.6875 -0.9375,0.6875 -0.8125,0 -1.046875,-0.625 -1.140625,-1.046875 C 0.515625,-1.296875 0.5,-1.328125 0.40625,-1.328125 c -0.125,0 -0.125,0.0625 -0.125,0.21875 V -0.125 c 0,0.125 0,0.203125 0.09375,0.203125 0.0625,0 0.0625,0 0.203125,-0.15625 C 0.625,-0.125 0.703125,-0.21875 0.75,-0.265625 c 0.359375,0.328125 0.734375,0.34375 0.9375,0.34375 1.015625,0 1.359375,-0.578125 1.359375,-1.109375 0,-0.375 -0.21875,-0.9375 -1.171875,-1.109375 -0.0625,-0.015625 -0.515625,-0.09375 -0.546875,-0.09375 -0.25,-0.0625 -0.625,-0.234375 -0.625,-0.546875 0,-0.234375 0.1875,-0.578125 0.9375,-0.578125 0.890625,0 0.9375,0.65625 0.953125,0.875 0,0.0625 0.0625,0.09375 0.109375,0.09375 0.140625,0 0.140625,-0.0625 0.140625,-0.203125 z m 0,0"
   id="path179" />
    </g>
    <g
   id="use91"
   transform="translate(14.027851,234.67599)">
      <path
   d="m 2.65625,-3.421875 v 0.265625 c 0.546875,0 0.609375,0.046875 0.609375,0.4375 v 1.390625 c 0,0.6875 -0.40625,1.1875 -1.015625,1.1875 -0.6875,0 -0.71875,-0.34375 -0.71875,-0.75 v -2.625 l -1.203125,0.09375 v 0.265625 c 0.609375,0 0.609375,0.015625 0.609375,0.71875 v 1.203125 c 0,0.578125 0,1.3125 1.265625,1.3125 0.75,0 1.046875,-0.578125 1.078125,-0.640625 H 3.296875 V 0.078125 L 4.484375,0 V -0.265625 C 3.9375,-0.265625 3.875,-0.3125 3.875,-0.703125 v -2.8125 z m 0,0"
   id="path180" />
    </g>
    <g
   id="use92"
   transform="translate(18.732601,234.67599)">
      <path
   d="m 3.34375,-2.375 c 0,-0.78125 -0.75,-1.171875 -1.484375,-1.171875 -0.65625,0 -1.25,0.25 -1.25,0.78125 0,0.234375 0.171875,0.375 0.375,0.375 0.234375,0 0.375,-0.15625 0.375,-0.375 0,-0.1875 -0.109375,-0.328125 -0.296875,-0.359375 0.296875,-0.203125 0.734375,-0.203125 0.78125,-0.203125 0.453125,0 0.890625,0.3125 0.890625,0.96875 V -2.125 C 2.28125,-2.09375 1.75,-2.078125 1.1875,-1.84375 c -0.703125,0.3125 -0.84375,0.765625 -0.84375,1.03125 0,0.6875 0.8125,0.890625 1.359375,0.890625 0.578125,0 0.9375,-0.328125 1.125,-0.640625 0.03125,0.296875 0.234375,0.609375 0.59375,0.609375 0.078125,0 0.75,-0.03125 0.75,-0.765625 v -0.4375 h -0.25 v 0.4375 c 0,0.328125 -0.109375,0.453125 -0.28125,0.453125 -0.296875,0 -0.296875,-0.359375 -0.296875,-0.453125 z m -0.609375,1.25 c 0,0.78125 -0.640625,0.984375 -0.96875,0.984375 C 1.359375,-0.140625 1,-0.421875 1,-0.8125 1,-1.328125 1.5,-1.875 2.734375,-1.90625 Z m 0,0"
   id="path181" />
    </g>
    <g
   id="use93"
   transform="translate(22.967115,234.67599)">
      <path
   d="m 1.515625,-5.53125 -1.1875,0.09375 v 0.265625 c 0.546875,0 0.609375,0.046875 0.609375,0.4375 V -0.625 c 0,0.359375 -0.09375,0.359375 -0.609375,0.359375 V 0 c 0.3125,-0.03125 0.765625,-0.03125 0.90625,-0.03125 0.15625,0 0.578125,0 0.890625,0.03125 v -0.265625 c -0.5,0 -0.609375,0 -0.609375,-0.359375 z m 0,0"
   id="path182" />
    </g>
    <g
   id="use94"
   transform="translate(25.319092,234.67599)">
      <path
   d="m 1.546875,-4.90625 c 0,-0.234375 -0.171875,-0.453125 -0.4375,-0.453125 -0.234375,0 -0.4375,0.1875 -0.4375,0.4375 0,0.28125 0.234375,0.453125 0.4375,0.453125 0.28125,0 0.4375,-0.234375 0.4375,-0.4375 z m -1.1875,1.484375 v 0.265625 c 0.515625,0 0.578125,0.046875 0.578125,0.4375 V -0.625 c 0,0.359375 -0.09375,0.359375 -0.609375,0.359375 V 0 c 0.3125,-0.03125 0.765625,-0.03125 0.890625,-0.03125 0.09375,0 0.578125,0 0.859375,0.03125 v -0.265625 c -0.53125,0 -0.5625,-0.03125 -0.5625,-0.34375 v -2.90625 z m 0,0"
   id="path183" />
    </g>
    <g
   id="use95"
   transform="translate(27.671068,234.67599)">
      <path
   d="M 3.3125,-3.15625 C 3.359375,-3.234375 3.375,-3.25 3.375,-3.3125 c 0,-0.125 -0.09375,-0.125 -0.21875,-0.125 H 0.453125 L 0.34375,-2.109375 h 0.25 C 0.640625,-2.9375 0.828125,-3.21875 1.71875,-3.21875 H 2.625 L 0.3125,-0.296875 C 0.25,-0.21875 0.234375,-0.203125 0.234375,-0.140625 0.234375,0 0.328125,0 0.46875,0 H 3.265625 L 3.40625,-1.53125 h -0.25 C 3.078125,-0.609375 2.921875,-0.25 1.9375,-0.25 H 1 Z m 0,0"
   id="path184" />
    </g>
    <g
   id="use96"
   transform="translate(31.434549,234.67599)">
      <path
   d="m 3.34375,-2.375 c 0,-0.78125 -0.75,-1.171875 -1.484375,-1.171875 -0.65625,0 -1.25,0.25 -1.25,0.78125 0,0.234375 0.171875,0.375 0.375,0.375 0.234375,0 0.375,-0.15625 0.375,-0.375 0,-0.1875 -0.109375,-0.328125 -0.296875,-0.359375 0.296875,-0.203125 0.734375,-0.203125 0.78125,-0.203125 0.453125,0 0.890625,0.3125 0.890625,0.96875 V -2.125 C 2.28125,-2.09375 1.75,-2.078125 1.1875,-1.84375 c -0.703125,0.3125 -0.84375,0.765625 -0.84375,1.03125 0,0.6875 0.8125,0.890625 1.359375,0.890625 0.578125,0 0.9375,-0.328125 1.125,-0.640625 0.03125,0.296875 0.234375,0.609375 0.59375,0.609375 0.078125,0 0.75,-0.03125 0.75,-0.765625 v -0.4375 h -0.25 v 0.4375 c 0,0.328125 -0.109375,0.453125 -0.28125,0.453125 -0.296875,0 -0.296875,-0.359375 -0.296875,-0.453125 z m -0.609375,1.25 c 0,0.78125 -0.640625,0.984375 -0.96875,0.984375 C 1.359375,-0.140625 1,-0.421875 1,-0.8125 1,-1.328125 1.5,-1.875 2.734375,-1.90625 Z m 0,0"
   id="path185" />
    </g>
    <g
   id="use97"
   transform="translate(35.669064,234.67599)">
      <path
   d="m 1.484375,-3.171875 h 1.1875 V -3.4375 h -1.1875 v -1.46875 h -0.25 c 0,0.734375 -0.328125,1.484375 -1.078125,1.515625 v 0.21875 H 0.875 V -1 c 0,0.9375 0.71875,1.078125 1.078125,1.078125 C 2.5,0.078125 2.8125,-0.390625 2.8125,-1 v -0.4375 h -0.25 v 0.421875 c 0,0.546875 -0.25,0.84375 -0.546875,0.84375 -0.53125,0 -0.53125,-0.6875 -0.53125,-0.8125 z m 0,0"
   id="path186" />
    </g>
    <g
   id="use98"
   transform="translate(38.962311,234.67599)">
      <path
   d="m 1.546875,-4.90625 c 0,-0.234375 -0.171875,-0.453125 -0.4375,-0.453125 -0.234375,0 -0.4375,0.1875 -0.4375,0.4375 0,0.28125 0.234375,0.453125 0.4375,0.453125 0.28125,0 0.4375,-0.234375 0.4375,-0.4375 z m -1.1875,1.484375 v 0.265625 c 0.515625,0 0.578125,0.046875 0.578125,0.4375 V -0.625 c 0,0.359375 -0.09375,0.359375 -0.609375,0.359375 V 0 c 0.3125,-0.03125 0.765625,-0.03125 0.890625,-0.03125 0.09375,0 0.578125,0 0.859375,0.03125 v -0.265625 c -0.53125,0 -0.5625,-0.03125 -0.5625,-0.34375 v -2.90625 z m 0,0"
   id="path187" />
    </g>
    <g
   id="use99"
   transform="translate(41.314285,234.67599)">
      <path
   d="m 3.984375,-1.703125 c 0,-0.984375 -0.828125,-1.84375 -1.875,-1.84375 -1.046875,0 -1.875,0.859375 -1.875,1.84375 0,1 0.859375,1.78125 1.875,1.78125 1.03125,0 1.875,-0.78125 1.875,-1.78125 z m -1.875,1.53125 C 1.6875,-0.171875 1.34375,-0.375 1.171875,-0.65625 0.96875,-0.984375 0.953125,-1.375 0.953125,-1.765625 c 0,-0.3125 0,-0.78125 0.234375,-1.125 0.21875,-0.28125 0.546875,-0.4375 0.921875,-0.4375 0.421875,0 0.765625,0.203125 0.9375,0.46875 0.21875,0.34375 0.234375,0.765625 0.234375,1.09375 0,0.359375 -0.015625,0.796875 -0.25,1.140625 -0.203125,0.3125 -0.5625,0.453125 -0.921875,0.453125 z m 0,0"
   id="path188" />
    </g>
    <g
   id="use100"
   transform="translate(45.548798,234.67599)">
      <path
   d="m 3.875,-2.421875 c 0,-0.65625 -0.3125,-1.09375 -1.140625,-1.09375 -0.796875,0 -1.15625,0.578125 -1.25,0.765625 v -0.765625 l -1.15625,0.09375 v 0.265625 c 0.546875,0 0.609375,0.046875 0.609375,0.4375 V -0.625 c 0,0.359375 -0.09375,0.359375 -0.609375,0.359375 V 0 c 0.34375,-0.03125 0.6875,-0.03125 0.90625,-0.03125 0.234375,0 0.5625,0 0.90625,0.03125 v -0.265625 c -0.5,0 -0.609375,0 -0.609375,-0.359375 v -1.4375 c 0,-0.84375 0.640625,-1.234375 1.125,-1.234375 0.484375,0 0.609375,0.34375 0.609375,0.84375 V -0.625 c 0,0.359375 -0.09375,0.359375 -0.609375,0.359375 V 0 C 3,-0.03125 3.359375,-0.03125 3.5625,-0.03125 c 0.234375,0 0.578125,0 0.921875,0.03125 v -0.265625 c -0.515625,0 -0.609375,0 -0.609375,-0.359375 z m 0,0"
   id="path189" />
    </g>
  </g><g
             fill="#000000"
             fill-opacity="1"
             id="g102"
             transform="matrix(0.352778,0,0,0.352778,106.06879,138.96771)">
    <g
   id="use101"
   transform="translate(53.074966,234.67599)">
      <path
   d="m 3.984375,-1.703125 c 0,-0.984375 -0.828125,-1.84375 -1.875,-1.84375 -1.046875,0 -1.875,0.859375 -1.875,1.84375 0,1 0.859375,1.78125 1.875,1.78125 1.03125,0 1.875,-0.78125 1.875,-1.78125 z m -1.875,1.53125 C 1.6875,-0.171875 1.34375,-0.375 1.171875,-0.65625 0.96875,-0.984375 0.953125,-1.375 0.953125,-1.765625 c 0,-0.3125 0,-0.78125 0.234375,-1.125 0.21875,-0.28125 0.546875,-0.4375 0.921875,-0.4375 0.421875,0 0.765625,0.203125 0.9375,0.46875 0.21875,0.34375 0.234375,0.765625 0.234375,1.09375 0,0.359375 -0.015625,0.796875 -0.25,1.140625 -0.203125,0.3125 -0.5625,0.453125 -0.921875,0.453125 z m 0,0"
   id="path190" />
    </g>
    <g
   id="use102"
   transform="translate(57.309479,234.67599)">
      <path
   d="m 1.515625,-3.171875 h 0.96875 V -3.4375 H 1.5 v -0.890625 c 0,-0.703125 0.390625,-1.0625 0.734375,-1.0625 0.125,0 0.203125,0.03125 0.234375,0.046875 -0.140625,0.0625 -0.1875,0.203125 -0.1875,0.3125 0,0.203125 0.15625,0.359375 0.359375,0.359375 C 2.859375,-4.671875 3,-4.828125 3,-5.03125 3,-5.375 2.671875,-5.609375 2.25,-5.609375 c -0.59375,0 -1.3125,0.4375 -1.3125,1.28125 V -3.4375 H 0.28125 v 0.265625 H 0.9375 V -0.625 c 0,0.359375 -0.09375,0.359375 -0.609375,0.359375 V 0 c 0.3125,-0.03125 0.75,-0.03125 0.953125,-0.03125 0.46875,0 0.484375,0 1,0.03125 V -0.265625 H 2.125 c -0.59375,0 -0.609375,-0.078125 -0.609375,-0.375 z m 0,0"
   id="path191" />
    </g>
  </g><g
             fill="#000000"
             fill-opacity="1"
             id="g104"
             transform="matrix(0.352778,0,0,0.352778,106.06879,138.96771)">
    <g
   id="use103"
   transform="translate(62.718784,234.67599)">
      <path
   d="M 1.859375,-3.328125 C 1.34375,-3.4375 0.96875,-3.84375 0.96875,-4.328125 0.96875,-4.875 1.4375,-5.375 2.125,-5.375 c 1.375,0 1.5625,1.296875 1.609375,1.59375 0.015625,0.09375 0.015625,0.140625 0.125,0.140625 0.125,0 0.125,-0.046875 0.125,-0.203125 v -1.5625 c 0,-0.125 0,-0.203125 -0.109375,-0.203125 -0.0625,0 -0.078125,0.015625 -0.125,0.109375 l -0.28125,0.453125 c -0.40625,-0.4375 -0.90625,-0.5625 -1.34375,-0.5625 -0.953125,0 -1.65625,0.71875 -1.65625,1.53125 0,0.609375 0.34375,0.9375 0.5,1.09375 0.28125,0.28125 0.546875,0.34375 1.40625,0.546875 0.6875,0.15625 0.796875,0.1875 1.0625,0.46875 0.078125,0.078125 0.28125,0.34375 0.28125,0.734375 0,0.5625 -0.421875,1.140625 -1.171875,1.140625 -0.875,0 -1.78125,-0.421875 -1.828125,-1.53125 -0.015625,-0.125 -0.015625,-0.1875 -0.125,-0.1875 -0.125,0 -0.125,0.0625 -0.125,0.21875 v 1.546875 c 0,0.140625 0,0.21875 0.109375,0.21875 0.0625,0 0.0625,-0.015625 0.125,-0.09375 0.03125,-0.046875 0.0625,-0.125 0.28125,-0.453125 0.5,0.4375 1.09375,0.546875 1.578125,0.546875 0.984375,0 1.65625,-0.796875 1.65625,-1.640625 0,-0.703125 -0.453125,-1.40625 -1.265625,-1.59375 z m 0,0"
   id="path192" />
    </g>
    <g
   id="use104"
   transform="translate(67.423538,234.67599)">
      <path
   d="m 2.09375,1.28125 c -0.515625,0 -0.609375,0 -0.609375,-0.359375 v -1.3125 c 0.375,0.40625 0.78125,0.46875 1.046875,0.46875 1,0 1.890625,-0.78125 1.890625,-1.796875 0,-1 -0.8125,-1.796875 -1.78125,-1.796875 -0.3125,0 -0.765625,0.078125 -1.171875,0.5 v -0.5 l -1.1875,0.09375 v 0.265625 c 0.5625,0 0.609375,0.046875 0.609375,0.375 v 3.703125 c 0,0.359375 -0.109375,0.359375 -0.609375,0.359375 v 0.265625 c 0.34375,-0.03125 0.6875,-0.03125 0.90625,-0.03125 0.234375,0 0.5625,0 0.90625,0.03125 z m -0.609375,-3.9375 c 0.1875,-0.3125 0.59375,-0.609375 1.09375,-0.609375 0.609375,0 1.125,0.671875 1.125,1.546875 0,0.90625 -0.578125,1.578125 -1.21875,1.578125 -0.28125,0 -0.640625,-0.125 -0.90625,-0.515625 -0.09375,-0.140625 -0.09375,-0.15625 -0.09375,-0.296875 z m 0,0"
   id="path193" />
    </g>
  </g><g
             fill="#000000"
             fill-opacity="1"
             id="g113"
             transform="matrix(0.352778,0,0,0.352778,106.06879,138.96771)">
    <g
   id="use105"
   transform="translate(72.367386,234.67599)">
      <path
   d="m 3.296875,-1.8125 c 0.171875,0 0.21875,0 0.21875,-0.1875 C 3.515625,-2.703125 3.125,-3.546875 2,-3.546875 c -0.984375,0 -1.765625,0.8125 -1.765625,1.796875 0,1.03125 0.859375,1.828125 1.875,1.828125 1,0 1.40625,-0.84375 1.40625,-1.03125 0,-0.03125 -0.03125,-0.109375 -0.125,-0.109375 -0.09375,0 -0.109375,0.046875 -0.125,0.09375 -0.28125,0.78125 -0.96875,0.796875 -1.109375,0.796875 -0.359375,0 -0.734375,-0.15625 -0.96875,-0.53125 C 0.953125,-1.0625 0.953125,-1.578125 0.953125,-1.8125 Z M 0.953125,-2.03125 C 1.03125,-3.140625 1.703125,-3.328125 2,-3.328125 c 0.9375,0 0.96875,1.125 0.96875,1.296875 z m 0,0"
   id="path194" />
    </g>
    <g
   id="use106"
   transform="translate(76.130867,234.67599)">
      <path
   d="m 2.9375,-3.15625 c -0.234375,0.0625 -0.265625,0.25 -0.265625,0.34375 0,0.21875 0.15625,0.375 0.375,0.375 0.21875,0 0.375,-0.140625 0.375,-0.390625 0,-0.484375 -0.53125,-0.71875 -1.28125,-0.71875 -1.109375,0 -1.859375,0.875 -1.859375,1.828125 0,1.015625 0.828125,1.796875 1.828125,1.796875 1.125,0 1.40625,-0.9375 1.40625,-1.03125 0,-0.09375 -0.109375,-0.09375 -0.125,-0.09375 -0.0625,0 -0.09375,0 -0.125,0.078125 -0.046875,0.171875 -0.28125,0.796875 -1.078125,0.796875 -0.484375,0 -1.203125,-0.375 -1.203125,-1.5625 0,-1.140625 0.59375,-1.578125 1.171875,-1.578125 0.078125,0 0.5,0 0.78125,0.15625 z m 0,0"
   id="path195" />
    </g>
    <g
   id="use107"
   transform="translate(79.894348,234.67599)">
      <path
   d="m 1.484375,-3.171875 h 1.1875 V -3.4375 h -1.1875 v -1.46875 h -0.25 c 0,0.734375 -0.328125,1.484375 -1.078125,1.515625 v 0.21875 H 0.875 V -1 c 0,0.9375 0.71875,1.078125 1.078125,1.078125 C 2.5,0.078125 2.8125,-0.390625 2.8125,-1 v -0.4375 h -0.25 v 0.421875 c 0,0.546875 -0.25,0.84375 -0.546875,0.84375 -0.53125,0 -0.53125,-0.6875 -0.53125,-0.8125 z m 0,0"
   id="path196" />
    </g>
    <g
   id="use108"
   transform="translate(83.187599,234.67599)">
      <path
   d="m 1.46875,-1.8125 c 0,-0.609375 0.25,-1.46875 1.015625,-1.484375 -0.046875,0.03125 -0.140625,0.09375 -0.140625,0.28125 0,0.25 0.203125,0.359375 0.359375,0.359375 0.1875,0 0.359375,-0.125 0.359375,-0.359375 0,-0.28125 -0.25,-0.5 -0.609375,-0.5 -0.515625,0 -0.875,0.390625 -1.03125,0.84375 H 1.40625 v -0.84375 l -1.125,0.09375 v 0.265625 c 0.546875,0 0.609375,0.046875 0.609375,0.4375 V -0.625 c 0,0.359375 -0.109375,0.359375 -0.609375,0.359375 V 0 c 0.3125,-0.03125 0.75,-0.03125 0.9375,-0.03125 0.46875,0 0.484375,0 1,0.03125 V -0.265625 H 2.0625 c -0.578125,0 -0.59375,-0.078125 -0.59375,-0.375 z m 0,0"
   id="path197" />
    </g>
    <g
   id="use109"
   transform="translate(86.488014,234.67599)">
      <path
   d="m 3.984375,-1.703125 c 0,-0.984375 -0.828125,-1.84375 -1.875,-1.84375 -1.046875,0 -1.875,0.859375 -1.875,1.84375 0,1 0.859375,1.78125 1.875,1.78125 1.03125,0 1.875,-0.78125 1.875,-1.78125 z m -1.875,1.53125 C 1.6875,-0.171875 1.34375,-0.375 1.171875,-0.65625 0.96875,-0.984375 0.953125,-1.375 0.953125,-1.765625 c 0,-0.3125 0,-0.78125 0.234375,-1.125 0.21875,-0.28125 0.546875,-0.4375 0.921875,-0.4375 0.421875,0 0.765625,0.203125 0.9375,0.46875 0.21875,0.34375 0.234375,0.765625 0.234375,1.09375 0,0.359375 -0.015625,0.796875 -0.25,1.140625 -0.203125,0.3125 -0.5625,0.453125 -0.921875,0.453125 z m 0,0"
   id="path198" />
    </g>
    <g
   id="use110"
   transform="translate(90.722527,234.67599)">
      <path
   d="m 1.375,-0.546875 c -0.25,-0.03125 -0.4375,-0.234375 -0.4375,-0.53125 0,-0.1875 0.046875,-0.265625 0.09375,-0.328125 0.34375,0.1875 0.65625,0.234375 0.84375,0.234375 0.78125,0 1.375,-0.546875 1.375,-1.171875 0,-0.296875 -0.140625,-0.5625 -0.328125,-0.765625 C 3.03125,-3.203125 3.296875,-3.375 3.6875,-3.375 c -0.03125,0.015625 -0.078125,0.0625 -0.078125,0.1875 0,0.140625 0.109375,0.25 0.25,0.25 0.109375,0 0.25,-0.078125 0.25,-0.265625 0,-0.125 -0.109375,-0.40625 -0.453125,-0.40625 -0.140625,0 -0.53125,0.046875 -0.890625,0.375 C 2.5625,-3.375 2.25,-3.515625 1.875,-3.515625 c -0.78125,0 -1.359375,0.546875 -1.359375,1.171875 0,0.375 0.203125,0.65625 0.375,0.8125 -0.1875,0.203125 -0.25,0.453125 -0.25,0.640625 0,0.328125 0.171875,0.578125 0.34375,0.71875 -0.421875,0.109375 -0.75,0.421875 -0.75,0.78125 0,0.578125 0.828125,1.03125 1.875,1.03125 1,0 1.875,-0.40625 1.875,-1.046875 0,-0.421875 -0.25,-0.765625 -0.515625,-0.890625 -0.46875,-0.25 -0.859375,-0.25 -1.640625,-0.25 z m 0.5,-0.859375 c -0.734375,0 -0.734375,-0.765625 -0.734375,-0.9375 0,-0.296875 0.03125,-0.5 0.15625,-0.65625 C 1.4375,-3.1875 1.65625,-3.28125 1.875,-3.28125 c 0.734375,0 0.734375,0.765625 0.734375,0.9375 0,0.296875 -0.03125,0.5 -0.15625,0.65625 C 2.28125,-1.453125 2.03125,-1.40625 1.875,-1.40625 Z m 0.375,1.375 c 0.21875,0 1.265625,0 1.265625,0.640625 0,0.421875 -0.609375,0.796875 -1.40625,0.796875 -0.796875,0 -1.40625,-0.375 -1.40625,-0.796875 0,-0.171875 0.140625,-0.640625 0.78125,-0.640625 z m 0,0"
   id="path199" />
    </g>
    <g
   id="use111"
   transform="translate(94.957047,234.67599)">
      <path
   d="m 1.46875,-1.8125 c 0,-0.609375 0.25,-1.46875 1.015625,-1.484375 -0.046875,0.03125 -0.140625,0.09375 -0.140625,0.28125 0,0.25 0.203125,0.359375 0.359375,0.359375 0.1875,0 0.359375,-0.125 0.359375,-0.359375 0,-0.28125 -0.25,-0.5 -0.609375,-0.5 -0.515625,0 -0.875,0.390625 -1.03125,0.84375 H 1.40625 v -0.84375 l -1.125,0.09375 v 0.265625 c 0.546875,0 0.609375,0.046875 0.609375,0.4375 V -0.625 c 0,0.359375 -0.109375,0.359375 -0.609375,0.359375 V 0 c 0.3125,-0.03125 0.75,-0.03125 0.9375,-0.03125 0.46875,0 0.484375,0 1,0.03125 V -0.265625 H 2.0625 c -0.578125,0 -0.59375,-0.078125 -0.59375,-0.375 z m 0,0"
   id="path200" />
    </g>
    <g
   id="use112"
   transform="translate(98.257462,234.67599)">
      <path
   d="m 3.34375,-2.375 c 0,-0.78125 -0.75,-1.171875 -1.484375,-1.171875 -0.65625,0 -1.25,0.25 -1.25,0.78125 0,0.234375 0.171875,0.375 0.375,0.375 0.234375,0 0.375,-0.15625 0.375,-0.375 0,-0.1875 -0.109375,-0.328125 -0.296875,-0.359375 0.296875,-0.203125 0.734375,-0.203125 0.78125,-0.203125 0.453125,0 0.890625,0.3125 0.890625,0.96875 V -2.125 C 2.28125,-2.09375 1.75,-2.078125 1.1875,-1.84375 c -0.703125,0.3125 -0.84375,0.765625 -0.84375,1.03125 0,0.6875 0.8125,0.890625 1.359375,0.890625 0.578125,0 0.9375,-0.328125 1.125,-0.640625 0.03125,0.296875 0.234375,0.609375 0.59375,0.609375 0.078125,0 0.75,-0.03125 0.75,-0.765625 v -0.4375 h -0.25 v 0.4375 c 0,0.328125 -0.109375,0.453125 -0.28125,0.453125 -0.296875,0 -0.296875,-0.359375 -0.296875,-0.453125 z m -0.609375,1.25 c 0,0.78125 -0.640625,0.984375 -0.96875,0.984375 C 1.359375,-0.140625 1,-0.421875 1,-0.8125 1,-1.328125 1.5,-1.875 2.734375,-1.90625 Z m 0,0"
   id="path201" />
    </g>
    <g
   id="use113"
   transform="translate(102.49197,234.67599)">
      <path
   d="m 6.21875,-2.421875 c 0,-0.640625 -0.28125,-1.09375 -1.140625,-1.09375 -0.734375,0 -1.109375,0.5 -1.234375,0.734375 C 3.703125,-3.359375 3.25,-3.515625 2.734375,-3.515625 c -0.78125,0 -1.140625,0.546875 -1.25,0.765625 v -0.765625 l -1.15625,0.09375 v 0.265625 c 0.546875,0 0.609375,0.046875 0.609375,0.4375 V -0.625 c 0,0.359375 -0.09375,0.359375 -0.609375,0.359375 V 0 c 0.34375,-0.03125 0.6875,-0.03125 0.90625,-0.03125 0.234375,0 0.5625,0 0.90625,0.03125 v -0.265625 c -0.5,0 -0.609375,0 -0.609375,-0.359375 v -1.4375 c 0,-0.84375 0.640625,-1.234375 1.140625,-1.234375 0.515625,0 0.609375,0.40625 0.609375,0.84375 V -0.625 c 0,0.359375 -0.109375,0.359375 -0.609375,0.359375 V 0 c 0.34375,-0.03125 0.6875,-0.03125 0.90625,-0.03125 0.234375,0 0.5625,0 0.90625,0.03125 v -0.265625 c -0.515625,0 -0.609375,0 -0.609375,-0.359375 v -1.4375 c 0,-0.84375 0.640625,-1.234375 1.140625,-1.234375 0.515625,0 0.609375,0.40625 0.609375,0.84375 V -0.625 c 0,0.359375 -0.109375,0.359375 -0.609375,0.359375 V 0 c 0.34375,-0.03125 0.6875,-0.03125 0.90625,-0.03125 0.234375,0 0.5625,0 0.90625,0.03125 v -0.265625 c -0.515625,0 -0.609375,0 -0.609375,-0.359375 z m 0,0"
   id="path202" />
    </g>
  </g><g
             fill="#000000"
             fill-opacity="1"
             id="g115"
             transform="matrix(0.352778,0,0,0.352778,106.06879,138.96771)">
    <g
   id="use114"
   transform="translate(112.37012,234.67599)">
      <path
   d="m 2.65625,1.984375 c 0.0625,0 0.15625,0 0.15625,-0.09375 0,-0.03125 0,-0.03125 -0.109375,-0.140625 -1.09375,-1.03125 -1.359375,-2.5 -1.359375,-3.734375 0,-2.296875 0.9375,-3.375 1.34375,-3.75 0.125,-0.09375 0.125,-0.109375 0.125,-0.140625 0,-0.046875 -0.03125,-0.09375 -0.109375,-0.09375 -0.125,0 -0.53125,0.40625 -0.59375,0.46875 -1.0625,1.125 -1.28125,2.546875 -1.28125,3.515625 0,1.78125 0.734375,3.21875 1.828125,3.96875 z m 0,0"
   id="path203" />
    </g>
    <g
   id="use115"
   transform="translate(115.66336,234.67599)">
      <path
   d="m 3.890625,-2.546875 c 0,-0.84375 -0.078125,-1.359375 -0.34375,-1.875 -0.34375,-0.703125 -1,-0.875 -1.4375,-0.875 -1,0 -1.375,0.75 -1.484375,0.96875 -0.28125,0.578125 -0.296875,1.375 -0.296875,1.78125 0,0.53125 0.015625,1.328125 0.40625,1.96875 0.359375,0.59375 0.953125,0.75 1.375,0.75 0.390625,0 1.0625,-0.125 1.46875,-0.90625 0.296875,-0.578125 0.3125,-1.296875 0.3125,-1.8125 z M 2.109375,-0.0625 C 1.84375,-0.0625 1.296875,-0.1875 1.125,-1.015625 1.03125,-1.46875 1.03125,-2.21875 1.03125,-2.640625 1.03125,-3.1875 1.03125,-3.75 1.125,-4.1875 1.296875,-5 1.90625,-5.078125 2.109375,-5.078125 c 0.265625,0 0.828125,0.140625 0.984375,0.859375 0.09375,0.4375 0.09375,1.046875 0.09375,1.578125 0,0.46875 0,1.1875 -0.09375,1.640625 -0.171875,0.828125 -0.71875,0.9375 -0.984375,0.9375 z m 0,0"
   id="path204" />
    </g>
  </g><g
             fill="#000000"
             fill-opacity="1"
             id="g116"
             transform="matrix(0.352778,0,0,0.352778,106.06879,138.96771)">
    <g
   id="use116"
   transform="translate(119.89788,234.67599)">
      <path
   d="m 1.484375,-0.125 c 0,0.515625 -0.109375,0.984375 -0.59375,1.46875 C 0.859375,1.375 0.84375,1.390625 0.84375,1.421875 c 0,0.0625 0.0625,0.109375 0.109375,0.109375 0.09375,0 0.765625,-0.625 0.765625,-1.5625 0,-0.5 -0.203125,-0.859375 -0.546875,-0.859375 -0.28125,0 -0.4375,0.234375 -0.4375,0.4375 C 0.734375,-0.21875 0.890625,0 1.171875,0 1.375,0 1.484375,-0.109375 1.484375,-0.125 Z m 0,0"
   id="path205" />
    </g>
  </g><g
             fill="#000000"
             fill-opacity="1"
             id="g123"
             transform="matrix(0.352778,0,0,0.352778,106.06879,138.96771)">
    <g
   id="use117"
   transform="translate(123.66056,234.67599)">
      <path
   d="m 2.5,-5.078125 c 0,-0.21875 -0.015625,-0.21875 -0.234375,-0.21875 -0.328125,0.3125 -0.75,0.5 -1.5,0.5 v 0.265625 c 0.21875,0 0.640625,0 1.109375,-0.203125 v 4.078125 c 0,0.296875 -0.03125,0.390625 -0.78125,0.390625 H 0.8125 V 0 c 0.328125,-0.03125 1.015625,-0.03125 1.375,-0.03125 0.359375,0 1.046875,0 1.375,0.03125 V -0.265625 H 3.28125 c -0.75,0 -0.78125,-0.09375 -0.78125,-0.390625 z m 0,0"
   id="path206" />
    </g>
    <g
   id="use118"
   transform="translate(127.89507,234.67599)">
      <path
   d="m 3.890625,-2.546875 c 0,-0.84375 -0.078125,-1.359375 -0.34375,-1.875 -0.34375,-0.703125 -1,-0.875 -1.4375,-0.875 -1,0 -1.375,0.75 -1.484375,0.96875 -0.28125,0.578125 -0.296875,1.375 -0.296875,1.78125 0,0.53125 0.015625,1.328125 0.40625,1.96875 0.359375,0.59375 0.953125,0.75 1.375,0.75 0.390625,0 1.0625,-0.125 1.46875,-0.90625 0.296875,-0.578125 0.3125,-1.296875 0.3125,-1.8125 z M 2.109375,-0.0625 C 1.84375,-0.0625 1.296875,-0.1875 1.125,-1.015625 1.03125,-1.46875 1.03125,-2.21875 1.03125,-2.640625 1.03125,-3.1875 1.03125,-3.75 1.125,-4.1875 1.296875,-5 1.90625,-5.078125 2.109375,-5.078125 c 0.265625,0 0.828125,0.140625 0.984375,0.859375 0.09375,0.4375 0.09375,1.046875 0.09375,1.578125 0,0.46875 0,1.1875 -0.09375,1.640625 -0.171875,0.828125 -0.71875,0.9375 -0.984375,0.9375 z m 0,0"
   id="path207" />
    </g>
    <g
   id="use119"
   transform="translate(132.12959,234.67599)">
      <path
   d="m 3.890625,-2.546875 c 0,-0.84375 -0.078125,-1.359375 -0.34375,-1.875 -0.34375,-0.703125 -1,-0.875 -1.4375,-0.875 -1,0 -1.375,0.75 -1.484375,0.96875 -0.28125,0.578125 -0.296875,1.375 -0.296875,1.78125 0,0.53125 0.015625,1.328125 0.40625,1.96875 0.359375,0.59375 0.953125,0.75 1.375,0.75 0.390625,0 1.0625,-0.125 1.46875,-0.90625 0.296875,-0.578125 0.3125,-1.296875 0.3125,-1.8125 z M 2.109375,-0.0625 C 1.84375,-0.0625 1.296875,-0.1875 1.125,-1.015625 1.03125,-1.46875 1.03125,-2.21875 1.03125,-2.640625 1.03125,-3.1875 1.03125,-3.75 1.125,-4.1875 1.296875,-5 1.90625,-5.078125 2.109375,-5.078125 c 0.265625,0 0.828125,0.140625 0.984375,0.859375 0.09375,0.4375 0.09375,1.046875 0.09375,1.578125 0,0.46875 0,1.1875 -0.09375,1.640625 -0.171875,0.828125 -0.71875,0.9375 -0.984375,0.9375 z m 0,0"
   id="path208" />
    </g>
    <g
   id="use120"
   transform="translate(136.36411,234.67599)">
      <path
   d="m 3.890625,-2.546875 c 0,-0.84375 -0.078125,-1.359375 -0.34375,-1.875 -0.34375,-0.703125 -1,-0.875 -1.4375,-0.875 -1,0 -1.375,0.75 -1.484375,0.96875 -0.28125,0.578125 -0.296875,1.375 -0.296875,1.78125 0,0.53125 0.015625,1.328125 0.40625,1.96875 0.359375,0.59375 0.953125,0.75 1.375,0.75 0.390625,0 1.0625,-0.125 1.46875,-0.90625 0.296875,-0.578125 0.3125,-1.296875 0.3125,-1.8125 z M 2.109375,-0.0625 C 1.84375,-0.0625 1.296875,-0.1875 1.125,-1.015625 1.03125,-1.46875 1.03125,-2.21875 1.03125,-2.640625 1.03125,-3.1875 1.03125,-3.75 1.125,-4.1875 1.296875,-5 1.90625,-5.078125 2.109375,-5.078125 c 0.265625,0 0.828125,0.140625 0.984375,0.859375 0.09375,0.4375 0.09375,1.046875 0.09375,1.578125 0,0.46875 0,1.1875 -0.09375,1.640625 -0.171875,0.828125 -0.71875,0.9375 -0.984375,0.9375 z m 0,0"
   id="path209" />
    </g>
    <g
   id="use121"
   transform="translate(140.59862,234.67599)">
      <path
   d="m 2.46875,-1.984375 c 0,-0.765625 -0.140625,-1.671875 -0.625,-2.609375 -0.390625,-0.734375 -1.125,-1.375 -1.265625,-1.375 -0.078125,0 -0.09375,0.046875 -0.09375,0.09375 0,0.03125 0,0.046875 0.09375,0.140625 1.109375,1.0625 1.359375,2.515625 1.359375,3.75 C 1.9375,0.296875 1,1.375 0.59375,1.75 0.484375,1.84375 0.484375,1.859375 0.484375,1.890625 c 0,0.046875 0.015625,0.09375 0.09375,0.09375 0.125,0 0.53125,-0.40625 0.59375,-0.46875 1.0625,-1.125 1.296875,-2.546875 1.296875,-3.5 z m 0,0"
   id="path210" />
    </g>
    <g
   id="use122"
   transform="translate(143.89186,234.67599)">
      <path
   d="m 5.171875,-4.796875 c 0,-0.296875 0.03125,-0.375 0.640625,-0.375 H 5.984375 V -5.4375 c -0.671875,0.015625 -0.6875,0.015625 -1.171875,0.015625 -0.484375,0 -0.5,0 -1.171875,-0.015625 v 0.265625 H 3.8125 c 0.625,0 0.640625,0.078125 0.640625,0.375 v 1.828125 h -2.5625 v -1.828125 c 0,-0.296875 0.015625,-0.375 0.625,-0.375 H 2.6875 V -5.4375 C 2.015625,-5.421875 2,-5.421875 1.515625,-5.421875 c -0.46875,0 -0.484375,0 -1.171875,-0.015625 v 0.265625 h 0.1875 c 0.609375,0 0.625,0.078125 0.625,0.375 v 4.15625 c 0,0.296875 -0.015625,0.375 -0.625,0.375 H 0.34375 V 0 c 0.6875,-0.03125 0.703125,-0.03125 1.171875,-0.03125 0.484375,0 0.5,0 1.171875,0.03125 V -0.265625 H 2.515625 c -0.609375,0 -0.625,-0.078125 -0.625,-0.375 v -2.0625 h 2.5625 v 2.0625 c 0,0.296875 -0.015625,0.375 -0.640625,0.375 H 3.640625 V 0 c 0.671875,-0.03125 0.6875,-0.03125 1.171875,-0.03125 0.484375,0 0.5,0 1.171875,0.03125 V -0.265625 H 5.8125 c -0.609375,0 -0.640625,-0.078125 -0.640625,-0.375 z m 0,0"
   id="path211" />
    </g>
    <g
   id="use123"
   transform="translate(150.23447,234.67599)">
      <path
   d="M 3.3125,-3.15625 C 3.359375,-3.234375 3.375,-3.25 3.375,-3.3125 c 0,-0.125 -0.09375,-0.125 -0.21875,-0.125 H 0.453125 L 0.34375,-2.109375 h 0.25 C 0.640625,-2.9375 0.828125,-3.21875 1.71875,-3.21875 H 2.625 L 0.3125,-0.296875 C 0.25,-0.21875 0.234375,-0.203125 0.234375,-0.140625 0.234375,0 0.328125,0 0.46875,0 H 3.265625 L 3.40625,-1.53125 h -0.25 C 3.078125,-0.609375 2.921875,-0.25 1.9375,-0.25 H 1 Z m 0,0"
   id="path212" />
    </g>
  </g></g><rect
           style="fill:none;stroke:#000000;stroke-width:0.3;stroke-dasharray:none;stroke-opacity:1"
           id="rect8"
           width="63.83527"
           height="14.959977"
           x="121.35519"
           y="103.36154" /></g><path
         style="fill:none;stroke:#000000;stroke-width:0.3;stroke-dasharray:none;stroke-opacity:1;marker-end:url(#ConcaveTriangle)"
         d="m 30.914498,39.01115 2e-6,3.732789"
         id="path18" /><path
         style="fill:none;stroke:#000000;stroke-width:0.3;stroke-dasharray:none;stroke-opacity:1;marker-end:url(#ConcaveTriangle)"
         d="m 30.914498,59.784932 v 3.700255"
         id="path19" /><path
         style="fill:none;stroke:#000000;stroke-width:0.3;stroke-dasharray:none;stroke-opacity:1;marker-end:url(#ConcaveTriangle)"
         d="M 30.914498,80.558708 V 93.554959 H 60.374826 V 28.886232 h 27.864193"
         id="path20" /><path
         style="fill:none;stroke:#000000;stroke-width:0.3;stroke-dasharray:none;stroke-opacity:1;marker-end:url(#ConcaveTriangle)"
         d="m 105.61552,39.01115 v 4.395877"
         id="path21" /><path
         style="fill:none;stroke:#000000;stroke-width:0.3;stroke-dasharray:none;stroke-opacity:1;marker-end:url(#ConcaveTriangle)"
         d="M 105.61552,60.317903 V 64.45354"
         id="path22" /><path
         style="fill:none;stroke:#000000;stroke-width:0.3;stroke-dasharray:none;stroke-opacity:1;marker-end:url(#ConcaveTriangle)"
         d="m 105.61551,81.269011 v 4.13564"
         id="path23" /></g></g></svg>
