<?xml version="1.0" encoding="UTF-8" standalone="no"?>
<!-- Created with Inkscape (http://www.inkscape.org/) -->

<svg
   width="114.94324mm"
   height="53.98365mm"
   viewBox="0 0 114.94324 53.983649"
   version="1.1"
   id="svg1"
   xml:space="preserve"
   xmlns="http://www.w3.org/2000/svg"
   xmlns:svg="http://www.w3.org/2000/svg"><defs
     id="defs1"><clipPath
       clipPathUnits="userSpaceOnUse"
       id="clipPath17"><path
         d="m 375.30742,-10.43784 h 295.32806 v 125.2479 H 375.30742 Z"
         id="path17" /></clipPath></defs><g
     id="g1"
     transform="matrix(0.26458333,0,0,0.26458333,-53.631868,-44.026915)"><g
       id="g143"><rect
         style="opacity:1;fill:#fffe00;fill-opacity:0.410448;stroke:#000000;stroke-width:0.268;stroke-dasharray:none;stroke-opacity:1"
         id="rect2"
         width="36.175041"
         height="31.787374"
         x="318.32471"
         y="52.812267"
         transform="matrix(3.7795276,0,0,3.7795275,-831.49611,0)" /><g
         transform="matrix(3.7795276,0,0,3.7795275,340.6886,185.63343)"
         id="g2"><g
   fill="#000000"
   fill-opacity="1"
   id="g8"
   transform="matrix(0.352778,0,0,0.352778,-0.99523,-0.705996)">
    <g
   id="use7"
   transform="translate(1.993,7.9699998)">
      <path
   d="m 2.65625,1.984375 c 0.0625,0 0.15625,0 0.15625,-0.09375 0,-0.03125 0,-0.03125 -0.109375,-0.140625 -1.09375,-1.03125 -1.359375,-2.5 -1.359375,-3.734375 0,-2.296875 0.9375,-3.375 1.34375,-3.75 0.125,-0.09375 0.125,-0.109375 0.125,-0.140625 0,-0.046875 -0.03125,-0.09375 -0.109375,-0.09375 -0.125,0 -0.53125,0.40625 -0.59375,0.46875 -1.0625,1.125 -1.28125,2.546875 -1.28125,3.515625 0,1.78125 0.734375,3.21875 1.828125,3.96875 z m 0,0"
   id="path16-1" />
    </g>
  </g>
  <g
   fill="#000000"
   fill-opacity="1"
   id="g9"
   transform="matrix(0.352778,0,0,0.352778,-0.99523,-0.705996)">
    <g
   id="use8"
   transform="translate(5.2862449,7.9699998)">
      <path
   d="m 5.5625,-1.8125 c 0.140625,0 0.3125,0 0.3125,-0.171875 0,-0.1875 -0.171875,-0.1875 -0.3125,-0.1875 H 1 c -0.125,0 -0.296875,0 -0.296875,0.1875 C 0.703125,-1.8125 0.875,-1.8125 1,-1.8125 Z m 0,0"
   id="path17-1" />
    </g>
  </g>
  <g
   fill="#000000"
   fill-opacity="1"
   id="g10"
   transform="matrix(0.352778,0,0,0.352778,-0.99523,-0.705996)">
    <g
   id="use9"
   transform="translate(11.872736,7.9699998)">
      <path
   d="m 5.734375,-1.3125 h -0.25 c -0.015625,0.078125 -0.109375,0.484375 -0.15625,0.625 -0.046875,0.078125 -0.0625,0.140625 -0.53125,0.140625 h -0.65625 c 0.140625,-0.46875 0.375,-0.8125 0.734375,-1.3125 0.359375,-0.5 0.765625,-1.078125 0.765625,-1.765625 0,-1.078125 -1.125,-1.984375 -2.59375,-1.984375 -1.46875,0 -2.578125,0.90625 -2.578125,1.984375 0,0.703125 0.390625,1.25 0.828125,1.859375 0.28125,0.40625 0.53125,0.765625 0.65625,1.21875 H 1.3125 c -0.46875,0 -0.484375,-0.0625 -0.53125,-0.140625 C 0.71875,-0.828125 0.640625,-1.234375 0.625,-1.3125 H 0.375 L 0.65625,0 H 2.015625 C 2.1875,0 2.234375,0 2.234375,-0.171875 2.234375,-0.75 1.953125,-1.4375 1.75,-1.921875 1.53125,-2.46875 1.296875,-3.046875 1.296875,-3.625 c 0,-1.1875 0.90625,-1.765625 1.75,-1.765625 0.859375,0 1.765625,0.59375 1.765625,1.765625 0,0.578125 -0.234375,1.125 -0.4375,1.609375 C 4.140625,-1.421875 3.859375,-0.75 3.859375,-0.1875 3.859375,0 3.90625,0 4.09375,0 h 1.359375 z m 0,0"
   id="path18-1" />
    </g>
  </g>
  <g
   fill="#000000"
   fill-opacity="1"
   id="g11"
   transform="matrix(0.352778,0,0,0.352778,-0.99523,-0.705996)">
    <g
   id="use10"
   transform="translate(17.988991,7.9699998)">
      <path
   d="M 3.703125,-5.640625 C 3.75,-5.75 3.75,-5.765625 3.75,-5.796875 c 0,-0.09375 -0.078125,-0.171875 -0.1875,-0.171875 -0.125,0 -0.15625,0.09375 -0.1875,0.171875 L 0.515625,1.65625 C 0.46875,1.765625 0.46875,1.78125 0.46875,1.8125 c 0,0.09375 0.078125,0.171875 0.1875,0.171875 0.125,0 0.15625,-0.09375 0.1875,-0.171875 z m 0,0"
   id="path19-1" />
    </g>
  </g>
  <g
   fill="#000000"
   fill-opacity="1"
   id="g12"
   transform="matrix(0.352778,0,0,0.352778,-0.99523,-0.705996)">
    <g
   id="use11"
   transform="translate(22.223505,7.9699998)">
      <path
   d="m 2.25,-1.625 c 0.125,-0.125 0.453125,-0.390625 0.59375,-0.5 0.484375,-0.453125 0.953125,-0.890625 0.953125,-1.609375 0,-0.953125 -0.796875,-1.5625 -1.78125,-1.5625 -0.96875,0 -1.59375,0.71875 -1.59375,1.4375 0,0.390625 0.3125,0.4375 0.421875,0.4375 0.171875,0 0.421875,-0.109375 0.421875,-0.421875 0,-0.40625 -0.40625,-0.40625 -0.5,-0.40625 C 1,-4.84375 1.53125,-5.03125 1.921875,-5.03125 c 0.734375,0 1.125,0.625 1.125,1.296875 0,0.828125 -0.578125,1.4375 -1.53125,2.390625 l -1,1.046875 C 0.421875,-0.21875 0.421875,-0.203125 0.421875,0 H 3.5625 l 0.234375,-1.421875 h -0.25 C 3.53125,-1.265625 3.46875,-0.875 3.375,-0.71875 c -0.046875,0.0625 -0.65625,0.0625 -0.78125,0.0625 H 1.171875 Z m 0,0"
   id="path20-1" />
    </g>
  </g>
  <g
   fill="#000000"
   fill-opacity="1"
   id="g13"
   transform="matrix(0.352778,0,0,0.352778,-0.99523,-0.705996)">
    <g
   id="use12"
   transform="translate(26.458019,7.9699998)">
      <path
   d="m 1.484375,-0.125 c 0,0.515625 -0.109375,0.984375 -0.59375,1.46875 C 0.859375,1.375 0.84375,1.390625 0.84375,1.421875 c 0,0.0625 0.0625,0.109375 0.109375,0.109375 0.09375,0 0.765625,-0.625 0.765625,-1.5625 0,-0.5 -0.203125,-0.859375 -0.546875,-0.859375 -0.28125,0 -0.4375,0.234375 -0.4375,0.4375 C 0.734375,-0.21875 0.890625,0 1.171875,0 1.375,0 1.484375,-0.109375 1.484375,-0.125 Z m 0,0"
   id="path21-1" />
    </g>
  </g>
  <g
   fill="#000000"
   fill-opacity="1"
   id="g14"
   transform="matrix(0.352778,0,0,0.352778,-0.99523,-0.705996)">
    <g
   id="use13"
   transform="translate(30.220703,7.9699998)">
      <path
   d="m 5.734375,-1.3125 h -0.25 c -0.015625,0.078125 -0.109375,0.484375 -0.15625,0.625 -0.046875,0.078125 -0.0625,0.140625 -0.53125,0.140625 h -0.65625 c 0.140625,-0.46875 0.375,-0.8125 0.734375,-1.3125 0.359375,-0.5 0.765625,-1.078125 0.765625,-1.765625 0,-1.078125 -1.125,-1.984375 -2.59375,-1.984375 -1.46875,0 -2.578125,0.90625 -2.578125,1.984375 0,0.703125 0.390625,1.25 0.828125,1.859375 0.28125,0.40625 0.53125,0.765625 0.65625,1.21875 H 1.3125 c -0.46875,0 -0.484375,-0.0625 -0.53125,-0.140625 C 0.71875,-0.828125 0.640625,-1.234375 0.625,-1.3125 H 0.375 L 0.65625,0 H 2.015625 C 2.1875,0 2.234375,0 2.234375,-0.171875 2.234375,-0.75 1.953125,-1.4375 1.75,-1.921875 1.53125,-2.46875 1.296875,-3.046875 1.296875,-3.625 c 0,-1.1875 0.90625,-1.765625 1.75,-1.765625 0.859375,0 1.765625,0.59375 1.765625,1.765625 0,0.578125 -0.234375,1.125 -0.4375,1.609375 C 4.140625,-1.421875 3.859375,-0.75 3.859375,-0.1875 3.859375,0 3.90625,0 4.09375,0 h 1.359375 z m 0,0"
   id="path22-1" />
    </g>
  </g>
  <g
   fill="#000000"
   fill-opacity="1"
   id="g15"
   transform="matrix(0.352778,0,0,0.352778,-0.99523,-0.705996)">
    <g
   id="use14"
   transform="translate(36.33696,7.9699998)">
      <path
   d="M 3.703125,-5.640625 C 3.75,-5.75 3.75,-5.765625 3.75,-5.796875 c 0,-0.09375 -0.078125,-0.171875 -0.1875,-0.171875 -0.125,0 -0.15625,0.09375 -0.1875,0.171875 L 0.515625,1.65625 C 0.46875,1.765625 0.46875,1.78125 0.46875,1.8125 c 0,0.09375 0.078125,0.171875 0.1875,0.171875 0.125,0 0.15625,-0.09375 0.1875,-0.171875 z m 0,0"
   id="path23-1" />
    </g>
  </g>
  <g
   fill="#000000"
   fill-opacity="1"
   id="g16"
   transform="matrix(0.352778,0,0,0.352778,-0.99523,-0.705996)">
    <g
   id="use15"
   transform="translate(40.571472,7.9699998)">
      <path
   d="m 2.25,-1.625 c 0.125,-0.125 0.453125,-0.390625 0.59375,-0.5 0.484375,-0.453125 0.953125,-0.890625 0.953125,-1.609375 0,-0.953125 -0.796875,-1.5625 -1.78125,-1.5625 -0.96875,0 -1.59375,0.71875 -1.59375,1.4375 0,0.390625 0.3125,0.4375 0.421875,0.4375 0.171875,0 0.421875,-0.109375 0.421875,-0.421875 0,-0.40625 -0.40625,-0.40625 -0.5,-0.40625 C 1,-4.84375 1.53125,-5.03125 1.921875,-5.03125 c 0.734375,0 1.125,0.625 1.125,1.296875 0,0.828125 -0.578125,1.4375 -1.53125,2.390625 l -1,1.046875 C 0.421875,-0.21875 0.421875,-0.203125 0.421875,0 H 3.5625 l 0.234375,-1.421875 h -0.25 C 3.53125,-1.265625 3.46875,-0.875 3.375,-0.71875 c -0.046875,0.0625 -0.65625,0.0625 -0.78125,0.0625 H 1.171875 Z m 0,0"
   id="path24-1" />
    </g>
    <g
   id="use16"
   transform="translate(44.805984,7.9699998)">
      <path
   d="m 2.46875,-1.984375 c 0,-0.765625 -0.140625,-1.671875 -0.625,-2.609375 -0.390625,-0.734375 -1.125,-1.375 -1.265625,-1.375 -0.078125,0 -0.09375,0.046875 -0.09375,0.09375 0,0.03125 0,0.046875 0.09375,0.140625 1.109375,1.0625 1.359375,2.515625 1.359375,3.75 C 1.9375,0.296875 1,1.375 0.59375,1.75 0.484375,1.84375 0.484375,1.859375 0.484375,1.890625 c 0,0.046875 0.015625,0.09375 0.09375,0.09375 0.125,0 0.53125,-0.40625 0.59375,-0.46875 1.0625,-1.125 1.296875,-2.546875 1.296875,-3.5 z m 0,0"
   id="path25-1" />
    </g>
  </g>
</g><path
         id="path1"
         d="m 420.42804,-10.43784 v 125.2479 m 51.27171,-125.2479 v 125.2479 m 51.27172,-125.2479 v 125.2479 m 51.27171,-125.2479 v 125.2479 m 51.2717,-125.2479 v 125.2479"
         style="fill:none;stroke:#bfbfbf;stroke-width:0.3985;stroke-linecap:butt;stroke-linejoin:miter;stroke-miterlimit:10;stroke-dasharray:2.98883, 2.98883;stroke-dashoffset:0;stroke-opacity:1"
         transform="matrix(1.3333333,0,0,-1.3333333,-257.312,319.74667)" /><path
         id="path2"
         d="M 375.30742,0 H 670.63548 M 375.30742,52.18611 h 295.32806 m -295.32806,52.18611 h 295.32806"
         style="fill:none;stroke:#bfbfbf;stroke-width:0.3985;stroke-linecap:butt;stroke-linejoin:miter;stroke-miterlimit:10;stroke-dasharray:2.98883, 2.98883;stroke-dashoffset:0;stroke-opacity:1"
         transform="matrix(1.3333333,0,0,-1.3333333,-257.312,319.74667)" /><path
         id="path3"
         d="m 420.42804,-10.43784 v 4.25264 m 51.27171,-4.25264 v 4.25264 m 51.27172,-4.25264 v 4.25264 m 51.27171,-4.25264 v 4.25264 m 51.2717,-4.25264 V -6.1852 M 420.42804,114.81006 v -4.25264 m 51.27171,4.25264 v -4.25264 m 51.27172,4.25264 v -4.25264 m 51.27171,4.25264 v -4.25264 m 51.2717,4.25264 v -4.25264"
         style="fill:none;stroke:#808080;stroke-width:0.19925;stroke-linecap:butt;stroke-linejoin:miter;stroke-miterlimit:10;stroke-dasharray:none;stroke-opacity:1"
         transform="matrix(1.3333333,0,0,-1.3333333,-257.312,319.74667)" /><path
         id="path4"
         d="m 375.30742,0 h 4.25253 m -4.25253,52.18611 h 4.25253 m -4.25253,52.18611 h 4.25253 M 670.63548,0 h -4.25253 m 4.25253,52.18611 h -4.25253 m 4.25253,52.18611 h -4.25253"
         style="fill:none;stroke:#808080;stroke-width:0.19925;stroke-linecap:butt;stroke-linejoin:miter;stroke-miterlimit:10;stroke-dasharray:none;stroke-opacity:1"
         transform="matrix(1.3333333,0,0,-1.3333333,-257.312,319.74667)" /><path
         id="path5"
         d="m 375.30742,-10.43784 v 125.2479 h 295.32806 v -125.2479 z"
         style="fill:none;stroke:#000000;stroke-width:0.3985;stroke-linecap:butt;stroke-linejoin:miter;stroke-miterlimit:10;stroke-dasharray:none;stroke-opacity:1"
         transform="matrix(1.3333333,0,0,-1.3333333,-257.312,319.74667)" /><g
         id="g5"
         aria-label="−100"
         transform="matrix(1.3333333,0,0,1.3333333,288.12267,346.91733)"><path
           id="path6"
           d="m 6.5613203,-2.2963984 c 0.1757813,0 0.3515625,0 0.3515625,-0.1992188 0,-0.1992187 -0.1757812,-0.1992187 -0.3515625,-0.1992187 h -5.390625 c -0.1640625,0 -0.33984374,0 -0.33984374,0.1992187 0,0.1992188 0.17578124,0.1992188 0.33984374,0.1992188 z m 0,0"
           style="fill:#000000;fill-opacity:1;fill-rule:nonzero;stroke:none" /><path
           id="path7"
           d="m 10.677531,-6.3745234 c 0,-0.234375 0,-0.2578125 -0.234375,-0.2578125 -0.6093747,0.6328125 -1.488281,0.6328125 -1.8046872,0.6328125 v 0.3164062 c 0.1992187,0 0.7851562,0 1.3007812,-0.2578125 v 5.15625001 c 0,0.3515625 -0.035156,0.48046875 -0.9257812,0.48046875 H 8.6970625 V 4.765625e-4 C 9.048625,-0.03467969 9.9040938,-0.03467969 10.302531,-0.03467969 c 0.398438,0 1.265625,0 1.617188,0.0351562525 V -0.30421094 h -0.316406 c -0.902344,0 -0.925782,-0.1171875 -0.925782,-0.48046875 z m 6.635742,3.1875 c 0,-0.796875 -0.04687,-1.59375 -0.398437,-2.3320313 -0.457031,-0.9609375 -1.277344,-1.1132812 -1.6875,-1.1132812 -0.597656,0 -1.335938,0.2578125 -1.734375,1.1835937 -0.328125,0.6914063 -0.375,1.4648438 -0.375,2.2617188 0,0.75 0.04687,1.640625 0.445312,2.40234371 0.433594,0.80859375 1.160157,1.0078125 1.652344,1.0078125 0.539063,0 1.289063,-0.2109375 1.734375,-1.16015625 0.316406,-0.69140626 0.363281,-1.46484376 0.363281,-2.24999996 z M 15.215617,4.765625e-4 c -0.386719,0 -0.984375,-0.2460937525 -1.160156,-1.2070312625 -0.105469,-0.5976562 -0.105469,-1.5117187 -0.105469,-2.0976562 0,-0.6445313 0,-1.3007813 0.08203,-1.8398438 0.1875,-1.1835937 0.925782,-1.265625 1.183594,-1.265625 0.328125,0 0.984375,0.1757813 1.171875,1.1601563 0.09375,0.5625 0.09375,1.3125 0.09375,1.9453125 0,0.75 0,1.4179687 -0.105469,2.0625 C 16.22343,-0.30421094 15.66093,4.765625e-4 15.215617,4.765625e-4 Z M 22.293742,-3.1870234 c 0,-0.796875 -0.04687,-1.59375 -0.398437,-2.3320313 -0.457032,-0.9609375 -1.277344,-1.1132812 -1.6875,-1.1132812 -0.597657,0 -1.335938,0.2578125 -1.734375,1.1835937 -0.328125,0.6914063 -0.375,1.4648438 -0.375,2.2617188 0,0.75 0.04687,1.640625 0.445312,2.40234371 0.433594,0.80859375 1.160156,1.0078125 1.652344,1.0078125 0.539062,0 1.289062,-0.2109375 1.734375,-1.16015625 0.316406,-0.69140626 0.363281,-1.46484376 0.363281,-2.24999996 z M 20.196086,4.765625e-4 c -0.386719,0 -0.984375,-0.2460937525 -1.160156,-1.2070312625 -0.105469,-0.5976562 -0.105469,-1.5117187 -0.105469,-2.0976562 0,-0.6445313 0,-1.3007813 0.08203,-1.8398438 0.1875,-1.1835937 0.925781,-1.265625 1.183594,-1.265625 0.328125,0 0.984375,0.1757813 1.171875,1.1601563 0.09375,0.5625 0.09375,1.3125 0.09375,1.9453125 0,0.75 0,1.4179687 -0.105469,2.0625 -0.152344,0.93749996 -0.714844,1.2421874625 -1.160156,1.2421874625 z m 0,0"
           style="fill:#000000;fill-opacity:1;fill-rule:nonzero;stroke:none" /></g><g
         id="g7"
         aria-label="−50"
         transform="matrix(1.3333333,0,0,1.3333333,359.80533,346.91733)"><path
           id="path8"
           d="m 6.5620156,-2.2963984 c 0.1757813,0 0.3515625,0 0.3515625,-0.1992188 0,-0.1992187 -0.1757812,-0.1992187 -0.3515625,-0.1992187 h -5.390625 c -0.1640625,0 -0.33984372,0 -0.33984372,0.1992187 0,0.1992188 0.17578122,0.1992188 0.33984372,0.1992188 z m 0,0"
           style="fill:#000000;fill-opacity:1;fill-rule:nonzero;stroke:none" /><path
           id="path9"
           d="m 12.225102,-2.0034297 c 0,-1.1835937 -0.820313,-2.1796875 -1.898438,-2.1796875 -0.4804687,0 -0.9023437,0.1640625 -1.2656249,0.5039063 v -1.9335938 c 0.1992187,0.058594 0.5273437,0.1289063 0.84375,0.1289063 1.2304689,0 1.9335939,-0.9140625 1.9335939,-1.0429688 0,-0.058594 -0.03516,-0.1054687 -0.105469,-0.1054687 -0.01172,0 -0.03516,0 -0.08203,0.023437 -0.199219,0.09375 -0.679688,0.2929687 -1.347656,0.2929687 -0.3984379,0 -0.8554692,-0.070312 -1.3242192,-0.28125 -0.082031,-0.023437 -0.1054687,-0.023437 -0.1289062,-0.023437 -0.09375,0 -0.09375,0.082031 -0.09375,0.234375 v 2.953125 c 0,0.1757813 0,0.2578125 0.140625,0.2578125 0.070312,0 0.082031,-0.035156 0.1289062,-0.09375 0.1054688,-0.1523437 0.4804688,-0.6914062 1.2773442,-0.6914062 0.527343,0 0.773437,0.4570312 0.855468,0.6328125 0.152344,0.375 0.175782,0.7617187 0.175782,1.2539062 0,0.3515625 0,0.9492188 -0.234375,1.37109376 -0.246094,0.38671875 -0.609375,0.64453125 -1.066407,0.64453125 -0.7265622,0 -1.3007809,-0.52734375 -1.4648434,-1.11328121 0.023437,0.011719 0.058594,0.011719 0.1640625,0.011719 0.328125,0 0.5039062,-0.2460937 0.5039062,-0.4804687 0,-0.2460938 -0.1757812,-0.4921875 -0.5039062,-0.4921875 -0.140625,0 -0.4804688,0.070312 -0.4804688,0.5273437 0,0.85546876 0.6796875,1.82812501 1.7929687,1.82812501 1.160156,0 2.179688,-0.9609375 2.179688,-2.22656251 z m 5.085937,-1.1835937 c 0,-0.796875 -0.04687,-1.59375 -0.398437,-2.3320313 -0.457032,-0.9609375 -1.277344,-1.1132812 -1.6875,-1.1132812 -0.597657,0 -1.335938,0.2578125 -1.734375,1.1835937 -0.328125,0.6914063 -0.375,1.4648438 -0.375,2.2617188 0,0.75 0.04687,1.640625 0.445312,2.40234371 0.433594,0.80859375 1.160156,1.0078125 1.652344,1.0078125 0.539062,0 1.289062,-0.2109375 1.734375,-1.16015625 0.316406,-0.69140626 0.363281,-1.46484376 0.363281,-2.24999996 z M 15.213383,4.765625e-4 c -0.386719,0 -0.984375,-0.2460937525 -1.160156,-1.2070312625 -0.105469,-0.5976562 -0.105469,-1.5117187 -0.105469,-2.0976562 0,-0.6445313 0,-1.3007813 0.08203,-1.8398438 0.1875,-1.1835937 0.925781,-1.265625 1.183594,-1.265625 0.328125,0 0.984375,0.1757813 1.171875,1.1601563 0.09375,0.5625 0.09375,1.3125 0.09375,1.9453125 0,0.75 0,1.4179687 -0.105469,2.0625 -0.152344,0.93749996 -0.714844,1.2421874625 -1.160156,1.2421874625 z m 0,0"
           style="fill:#000000;fill-opacity:1;fill-rule:nonzero;stroke:none" /></g><path
         id="path10"
         d="m 4.5812891,-3.1870234 c 0,-0.796875 -0.046875,-1.59375 -0.3984375,-2.3320313 -0.4570313,-0.9609375 -1.2773438,-1.1132812 -1.6875,-1.1132812 -0.5976563,0 -1.3359375,0.2578125 -1.73437504,1.1835937 -0.328125,0.6914063 -0.375,1.4648438 -0.375,2.2617188 0,0.75 0.046875,1.640625 0.4453125,2.40234371 0.43359374,0.80859375 1.16015624,1.0078125 1.65234374,1.0078125 0.5390625,0 1.2890625,-0.2109375 1.734375,-1.16015625 C 4.5344141,-1.6284297 4.5812891,-2.4018672 4.5812891,-3.1870234 Z M 2.4836328,4.765625e-4 c -0.3867187,0 -0.984375,-0.2460937525 -1.1601562,-1.2070312625 -0.1054688,-0.5976562 -0.1054688,-1.5117187 -0.1054688,-2.0976562 0,-0.6445313 0,-1.3007813 0.082031,-1.8398438 0.1875,-1.1835937 0.9257812,-1.265625 1.1835937,-1.265625 0.328125,0 0.984375,0.1757813 1.171875,1.1601563 0.09375,0.5625 0.09375,1.3125 0.09375,1.9453125 0,0.75 0,1.4179687 -0.1054687,2.0625 C 3.4914453,-0.30421094 2.9289453,4.765625e-4 2.4836328,4.765625e-4 Z m 0,0"
         style="fill:#000000;fill-opacity:1;fill-rule:nonzero;stroke:none"
         aria-label="0"
         transform="matrix(1.3333333,0,0,1.3333333,436.65333,346.91733)" /><path
         id="path11"
         d="m 4.4751172,-2.0034297 c 0,-1.1835937 -0.8203125,-2.1796875 -1.8984375,-2.1796875 -0.4804688,0 -0.9023438,0.1640625 -1.265625,0.5039063 v -1.9335938 c 0.1992187,0.058594 0.5273437,0.1289063 0.84375,0.1289063 1.2304687,0 1.9335937,-0.9140625 1.9335937,-1.0429688 0,-0.058594 -0.035156,-0.1054687 -0.1054687,-0.1054687 -0.011719,0 -0.035156,0 -0.082031,0.023437 -0.1992187,0.09375 -0.6796875,0.2929687 -1.3476562,0.2929687 -0.3984375,0 -0.8554688,-0.070312 -1.3242188,-0.28125 -0.082031,-0.023437 -0.1054687,-0.023437 -0.1289062,-0.023437 -0.09375,0 -0.09375,0.082031 -0.09375,0.234375 v 2.953125 c 0,0.1757813 0,0.2578125 0.140625,0.2578125 0.070312,0 0.082031,-0.035156 0.1289062,-0.09375 0.1054688,-0.1523437 0.4804688,-0.6914062 1.2773438,-0.6914062 0.5273437,0 0.7734375,0.4570312 0.8554687,0.6328125 0.1523438,0.375 0.1757813,0.7617187 0.1757813,1.2539062 0,0.3515625 0,0.9492188 -0.234375,1.37109376 -0.2460938,0.38671875 -0.609375,0.64453125 -1.0664063,0.64453125 -0.7265625,0 -1.30078121,-0.52734375 -1.46484371,-1.11328121 0.0234375,0.011719 0.0585938,0.011719 0.1640625,0.011719 0.32812501,0 0.50390621,-0.2460937 0.50390621,-0.4804687 0,-0.2460938 -0.1757812,-0.4921875 -0.50390621,-0.4921875 -0.140625,0 -0.48046875,0.070312 -0.48046875,0.5273437 0,0.85546876 0.67968746,1.82812501 1.79296876,1.82812501 1.1601562,0 2.1796875,-0.9609375 2.1796872,-2.22656281 z m 5.0888672,-1.1835937 c 0,-0.796875 -0.046875,-1.59375 -0.3984375,-2.3320313 -0.4570313,-0.9609375 -1.2773438,-1.1132812 -1.6875,-1.1132812 -0.5976563,0 -1.3359375,0.2578125 -1.734375,1.1835937 -0.328125,0.6914063 -0.375,1.4648438 -0.375,2.2617188 0,0.75 0.046875,1.640625 0.4453125,2.40234371 0.4335937,0.80859375 1.1601562,1.0078125 1.6523437,1.0078125 0.5390625,0 1.2890625,-0.2109375 1.734375,-1.16015625 C 9.5171094,-1.6284297 9.5639844,-2.4018672 9.5639844,-3.1870234 Z M 7.4663281,4.765625e-4 c -0.3867187,0 -0.984375,-0.2460937525 -1.1601562,-1.2070312625 -0.1054688,-0.5976562 -0.1054688,-1.5117187 -0.1054688,-2.0976562 0,-0.6445313 0,-1.3007813 0.082031,-1.8398438 0.1875,-1.1835937 0.9257812,-1.265625 1.1835937,-1.265625 0.328125,0 0.984375,0.1757813 1.171875,1.1601563 0.09375,0.5625 0.09375,1.3125 0.09375,1.9453125 0,0.75 0,1.4179687 -0.1054687,2.0625 C 8.4741406,-0.30421094 7.9116406,4.765625e-4 7.4663281,4.765625e-4 Z m 0,0"
         style="fill:#000000;fill-opacity:1;fill-rule:nonzero;stroke:none"
         aria-label="50"
         transform="matrix(1.3333333,0,0,1.3333333,501.69333,346.91733)" /><path
         id="path12"
         d="m 2.9304687,-6.3745234 c 0,-0.234375 0,-0.2578125 -0.234375,-0.2578125 -0.609375,0.6328125 -1.4882812,0.6328125 -1.80468745,0.6328125 v 0.3164062 c 0.19921875,0 0.78515625,0 1.30078125,-0.2578125 v 5.15625001 c 0,0.3515625 -0.035156,0.48046875 -0.9257813,0.48046875 H 0.95 V 4.765625e-4 C 1.3015625,-0.03467969 2.1570312,-0.03467969 2.5554687,-0.03467969 c 0.3984375,0 1.265625,0 1.6171875,0.0351562525 V -0.30421094 H 3.85625 c -0.9023438,0 -0.9257813,-0.1171875 -0.9257813,-0.48046875 z m 6.6328125,3.1875 c 0,-0.796875 -0.046875,-1.59375 -0.3984375,-2.3320313 -0.4570312,-0.9609375 -1.2773437,-1.1132812 -1.6875,-1.1132812 -0.5976562,0 -1.3359375,0.2578125 -1.734375,1.1835937 -0.328125,0.6914063 -0.375,1.4648438 -0.375,2.2617188 0,0.75 0.046875,1.640625 0.4453125,2.40234371 0.4335938,0.80859375 1.1601563,1.0078125 1.6523438,1.0078125 0.5390625,0 1.2890625,-0.2109375 1.734375,-1.16015625 C 9.5164062,-1.6284297 9.5632812,-2.4018672 9.5632812,-3.1870234 Z M 7.465625,4.765625e-4 C 7.0789062,4.765625e-4 6.48125,-0.24561719 6.3054687,-1.2065547 6.2,-1.8042109 6.2,-2.7182734 6.2,-3.3042109 c 0,-0.6445313 0,-1.3007813 0.082031,-1.8398438 0.1875,-1.1835937 0.9257813,-1.265625 1.1835938,-1.265625 0.328125,0 0.984375,0.1757813 1.171875,1.1601563 0.09375,0.5625 0.09375,1.3125 0.09375,1.9453125 0,0.75 0,1.4179687 -0.1054688,2.0625 C 8.4734375,-0.30421094 7.9109375,4.765625e-4 7.465625,4.765625e-4 Z M 14.54375,-3.1870234 c 0,-0.796875 -0.04687,-1.59375 -0.398438,-2.3320313 -0.457031,-0.9609375 -1.277343,-1.1132812 -1.6875,-1.1132812 -0.597656,0 -1.335937,0.2578125 -1.734375,1.1835937 -0.328125,0.6914063 -0.375,1.4648438 -0.375,2.2617188 0,0.75 0.04687,1.640625 0.445313,2.40234371 0.433594,0.80859375 1.160156,1.0078125 1.652344,1.0078125 0.539062,0 1.289062,-0.2109375 1.734375,-1.16015625 C 14.496875,-1.6284297 14.54375,-2.4018672 14.54375,-3.1870234 Z M 12.446094,4.765625e-4 c -0.386719,0 -0.984375,-0.2460937525 -1.160157,-1.2070312625 -0.105468,-0.5976562 -0.105468,-1.5117187 -0.105468,-2.0976562 0,-0.6445313 0,-1.3007813 0.08203,-1.8398438 0.1875,-1.1835937 0.925781,-1.265625 1.183594,-1.265625 0.328125,0 0.984375,0.1757813 1.171875,1.1601563 0.09375,0.5625 0.09375,1.3125 0.09375,1.9453125 0,0.75 0,1.4179687 -0.105469,2.0625 -0.152344,0.93749996 -0.714844,1.2421874625 -1.160156,1.2421874625 z m 0,0"
         style="fill:#000000;fill-opacity:1;fill-rule:nonzero;stroke:none"
         aria-label="100"
         transform="matrix(1.3333333,0,0,1.3333333,566.73333,346.91733)" /><path
         id="path13"
         d="m 4.5833906,-3.1869922 c 0,-0.796875 -0.046875,-1.59375 -0.3984375,-2.3320312 -0.4570312,-0.9609375 -1.2773437,-1.1132813 -1.6875,-1.1132813 -0.5976562,0 -1.3359375,0.2578125 -1.73437498,1.1835938 -0.328125,0.6914062 -0.375,1.4648437 -0.375,2.2617187 0,0.75 0.046875,1.640625 0.4453125,2.40234376 0.43359378,0.80859375 1.16015628,1.0078125 1.65234378,1.0078125 0.5390625,0 1.2890625,-0.2109375 1.734375,-1.16015625 C 4.5365156,-1.6283984 4.5833906,-2.4018359 4.5833906,-3.1869922 Z M 2.4857344,5.078125e-4 c -0.3867188,0 -0.984375,-0.2460937525 -1.1601563,-1.2070312125 -0.1054687,-0.5976563 -0.1054687,-1.5117188 -0.1054687,-2.0976563 0,-0.6445312 0,-1.3007812 0.082031,-1.8398437 0.1875,-1.1835938 0.9257813,-1.265625 1.1835938,-1.265625 0.328125,0 0.984375,0.1757812 1.171875,1.1601562 0.09375,0.5625 0.09375,1.3125 0.09375,1.9453125 0,0.75 0,1.4179688 -0.1054688,2.0625 C 3.4935469,-0.30417969 2.9310469,5.078125e-4 2.4857344,5.078125e-4 Z m 0,0"
         style="fill:#000000;fill-opacity:1;fill-rule:nonzero;stroke:none"
         aria-label="0"
         transform="matrix(1.3333333,0,0,1.3333333,231.756,324.02667)" /><path
         id="path14"
         d="m 4.4779219,-2.0049219 c 0,-1.1835937 -0.8203125,-2.1796875 -1.8984375,-2.1796875 -0.4804688,0 -0.9023438,0.1640625 -1.265625,0.5039063 v -1.9335938 c 0.1992187,0.058594 0.5273437,0.1289063 0.84375,0.1289063 1.2304687,0 1.9335937,-0.9140625 1.9335937,-1.0429688 0,-0.058594 -0.035156,-0.1054687 -0.1054687,-0.1054687 -0.011719,0 -0.035156,0 -0.082031,0.023437 -0.1992187,0.09375 -0.6796875,0.2929687 -1.3476562,0.2929687 -0.3984375,0 -0.8554688,-0.070312 -1.3242188,-0.28125 -0.082031,-0.023437 -0.1054687,-0.023437 -0.1289062,-0.023437 -0.09375,0 -0.09375,0.082031 -0.09375,0.234375 v 2.953125 c 0,0.1757813 0,0.2578125 0.140625,0.2578125 0.070312,0 0.082031,-0.035156 0.1289062,-0.09375 0.1054688,-0.1523437 0.4804688,-0.6914062 1.2773438,-0.6914062 0.5273437,0 0.7734375,0.4570312 0.8554687,0.6328125 0.1523438,0.375 0.1757813,0.7617187 0.1757813,1.2539062 0,0.3515625 0,0.9492188 -0.234375,1.37109377 -0.2460938,0.38671875 -0.609375,0.64453125 -1.0664063,0.64453125 -0.7265625,0 -1.30078123,-0.52734375 -1.46484373,-1.11328122 0.0234375,0.011719 0.0585938,0.011719 0.1640625,0.011719 0.32812503,0 0.50390623,-0.2460937 0.50390623,-0.4804687 0,-0.2460938 -0.1757812,-0.4921875 -0.50390623,-0.4921875 -0.140625,0 -0.48046875,0.070312 -0.48046875,0.5273437 0,0.85546877 0.67968748,1.82812502 1.79296878,1.82812502 1.1601562,0 2.1796875,-0.9609375 2.1796872,-2.22656282 z m 0,0"
         style="fill:#000000;fill-opacity:1;fill-rule:nonzero;stroke:none"
         aria-label="5"
         transform="matrix(1.3333333,0,0,1.3333333,231.756,254.44667)" /><path
         id="path15"
         d="m 2.9286484,-6.3736094 c 0,-0.234375 0,-0.2578125 -0.234375,-0.2578125 -0.609375,0.6328125 -1.4882812,0.6328125 -1.80468746,0.6328125 v 0.3164063 c 0.19921876,0 0.78515626,0 1.30078126,-0.2578125 v 5.15624997 c 0,0.3515625 -0.035156,0.48046875 -0.9257813,0.48046875 H 0.94817969 v 0.3046875 C 1.2997422,-0.03376563 2.1552109,-0.03376563 2.5536484,-0.03376563 c 0.3984375,0 1.265625,0 1.6171875,0.03515625 v -0.3046875 H 3.8544297 c -0.9023438,0 -0.9257813,-0.1171875 -0.9257813,-0.48046875 z m 6.6357422,3.1875 c 0,-0.796875 -0.046875,-1.59375 -0.3984375,-2.3320312 -0.4570312,-0.9609375 -1.2773437,-1.1132813 -1.6875,-1.1132813 -0.5976562,0 -1.3359375,0.2578125 -1.734375,1.1835938 -0.328125,0.6914062 -0.375,1.4648437 -0.375,2.2617187 0,0.75 0.046875,1.640625 0.4453125,2.40234377 0.4335938,0.80859375 1.1601563,1.0078125 1.6523438,1.0078125 0.5390625,0 1.2890625,-0.2109375 1.734375,-1.16015625 C 9.5175156,-1.6275156 9.5643906,-2.4009531 9.5643906,-3.1861094 Z M 7.4667344,0.00139062 c -0.3867188,0 -0.984375,-0.24609375 -1.1601563,-1.20703122 -0.1054687,-0.5976563 -0.1054687,-1.5117188 -0.1054687,-2.0976563 0,-0.6445312 0,-1.3007812 0.082031,-1.8398437 0.1875,-1.1835938 0.9257813,-1.265625 1.1835938,-1.265625 0.328125,0 0.984375,0.1757812 1.171875,1.1601562 0.09375,0.5625 0.09375,1.3125 0.09375,1.9453125 0,0.75 0,1.4179688 -0.1054688,2.0625 -0.1523437,0.93750002 -0.7148437,1.24218752 -1.160156,1.24218752 z m 0,0"
         style="fill:#000000;fill-opacity:1;fill-rule:nonzero;stroke:none"
         aria-label="10"
         transform="matrix(1.3333333,0,0,1.3333333,225.11467,184.86533)" /><path
         id="path16"
         d="M 20.50868,0 V 78.27916 M 123.05211,0 V 78.27916 M 225.59552,0 V 78.27916 M 328.13895,0 V 78.27916 M 430.68237,0 V 78.27916 M 533.2258,0 V 78.27916 M 635.76923,0 V 78.27916 M 738.31265,0 V 78.27916 M 840.85608,0 V 78.27916 M 943.3995,0 V 78.27916 M 1045.9429,0 V 78.27916 M 0,0 V 78.27916 M 102.54341,0 V 78.27916 M 205.08684,0 V 78.27916 M 307.63026,0 V 78.27916 M 410.17369,0 V 78.27916 M 512.71712,0 V 78.27916 M 615.26054,0 V 78.27916 M 717.80397,0 V 78.27916 M 820.3474,0 V 78.27916 M 922.89082,0 V 78.27916 M 1025.4343,0 v 78.27916"
         style="fill:none;stroke:#0000ff;stroke-width:0.3985;stroke-linecap:butt;stroke-linejoin:miter;stroke-miterlimit:10;stroke-dasharray:none;stroke-opacity:1"
         transform="matrix(1.3333333,0,0,-1.3333333,-257.312,319.74667)"
         clip-path="url(#clipPath17)" /><path
         id="path18"
         d="m 432.67493,78.27916 c 0,1.10046 -0.89208,1.99255 -1.99256,1.99255 -1.10046,0 -1.99255,-0.89209 -1.99255,-1.99255 0,-1.10046 0.89209,-1.99256 1.99255,-1.99256 1.10048,0 1.99256,0.8921 1.99256,1.99256 z"
         style="fill:#0000cc;fill-opacity:1;fill-rule:nonzero;stroke:#0000ff;stroke-width:0.3985;stroke-linecap:butt;stroke-linejoin:miter;stroke-miterlimit:10;stroke-dasharray:none;stroke-opacity:1"
         transform="matrix(1.3333333,0,0,-1.3333333,-257.312,319.74667)" /><path
         id="path19"
         d="m 535.21835,78.27916 c 0,1.10046 -0.89207,1.99255 -1.99255,1.99255 -1.10046,0 -1.99255,-0.89209 -1.99255,-1.99255 0,-1.10046 0.89209,-1.99256 1.99255,-1.99256 1.10048,0 1.99255,0.8921 1.99255,1.99256 z"
         style="fill:#0000cc;fill-opacity:1;fill-rule:nonzero;stroke:#0000ff;stroke-width:0.3985;stroke-linecap:butt;stroke-linejoin:miter;stroke-miterlimit:10;stroke-dasharray:none;stroke-opacity:1"
         transform="matrix(1.3333333,0,0,-1.3333333,-257.312,319.74667)" /><path
         id="path20"
         d="m 637.76178,78.27916 c 0,1.10046 -0.89208,1.99255 -1.99255,1.99255 -1.10047,0 -1.99256,-0.89209 -1.99256,-1.99255 0,-1.10046 0.89209,-1.99256 1.99256,-1.99256 1.10047,0 1.99255,0.8921 1.99255,1.99256 z"
         style="fill:#0000cc;fill-opacity:1;fill-rule:nonzero;stroke:#0000ff;stroke-width:0.3985;stroke-linecap:butt;stroke-linejoin:miter;stroke-miterlimit:10;stroke-dasharray:none;stroke-opacity:1"
         transform="matrix(1.3333333,0,0,-1.3333333,-257.312,319.74667)" /><path
         id="path21"
         d="m 412.16624,78.27916 c 0,1.10046 -0.89207,1.99255 -1.99255,1.99255 -1.10046,0 -1.99255,-0.89209 -1.99255,-1.99255 0,-1.10046 0.89209,-1.99256 1.99255,-1.99256 1.10048,0 1.99255,0.8921 1.99255,1.99256 z"
         style="fill:#0000cc;fill-opacity:1;fill-rule:nonzero;stroke:#0000ff;stroke-width:0.3985;stroke-linecap:butt;stroke-linejoin:miter;stroke-miterlimit:10;stroke-dasharray:none;stroke-opacity:1"
         transform="matrix(1.3333333,0,0,-1.3333333,-257.312,319.74667)" /><path
         id="path22"
         d="m 514.70967,78.27916 c 0,1.10046 -0.89209,1.99255 -1.99255,1.99255 -1.10047,0 -1.99256,-0.89209 -1.99256,-1.99255 0,-1.10046 0.89209,-1.99256 1.99256,-1.99256 1.10046,0 1.99255,0.8921 1.99255,1.99256 z"
         style="fill:#0000cc;fill-opacity:1;fill-rule:nonzero;stroke:#0000ff;stroke-width:0.3985;stroke-linecap:butt;stroke-linejoin:miter;stroke-miterlimit:10;stroke-dasharray:none;stroke-opacity:1"
         transform="matrix(1.3333333,0,0,-1.3333333,-257.312,319.74667)" /><path
         id="path23"
         d="m 617.2531,78.27916 c 0,1.10046 -0.89209,1.99255 -1.99256,1.99255 -1.10048,0 -1.99255,-0.89209 -1.99255,-1.99255 0,-1.10046 0.89207,-1.99256 1.99255,-1.99256 1.10047,0 1.99256,0.8921 1.99256,1.99256 z"
         style="fill:#0000cc;fill-opacity:1;fill-rule:nonzero;stroke:#0000ff;stroke-width:0.3985;stroke-linecap:butt;stroke-linejoin:miter;stroke-miterlimit:10;stroke-dasharray:none;stroke-opacity:1"
         transform="matrix(1.3333333,0,0,-1.3333333,-257.312,319.74667)" /><g
         id="g23"
         aria-label="fin(Hz)"
         transform="matrix(1.3333333,0,0,1.3333333,412.94533,367.10667)"><path
           id="path24"
           d="m 3.6562344,-3.9852734 h 0.8554687 c 0.1992188,0 0.3046875,0 0.3046875,-0.1992188 0,-0.1054687 -0.1054687,-0.1054687 -0.2695312,-0.1054687 H 3.7148281 l 0.2109375,-1.1367188 c 0.035156,-0.2109375 0.1757813,-0.9140625 0.234375,-1.0429687 0.09375,-0.1875 0.2578125,-0.3398438 0.46875,-0.3398438 0.046875,0 0.3046875,0 0.4921875,0.1875 -0.4335937,0.035156 -0.5390625,0.3867188 -0.5390625,0.5390625 0,0.2226563 0.1757813,0.3398438 0.3632813,0.3398438 0.2695312,0 0.5507812,-0.2109375 0.5507812,-0.5976563 0,-0.4570312 -0.4570312,-0.6796875 -0.8671875,-0.6796875 -0.3398437,0 -0.9609375,0.1757813 -1.265625,1.1601563 -0.058594,0.2109375 -0.082031,0.3164062 -0.328125,1.5703125 H 2.3554531 c -0.1992187,0 -0.3046875,0 -0.3046875,0.1875 0,0.1171875 0.09375,0.1171875 0.28125,0.1171875 h 0.65625 l -0.75,3.93749996 C 2.0624844,0.91316406 1.8984219,1.8272266 1.3710781,1.8272266 c -0.035156,0 -0.28125,0 -0.46874997,-0.1875 C 1.3593594,1.6162891 1.4413906,1.2530078 1.4413906,1.1006641 c 0,-0.22265629 -0.1757812,-0.33984379 -0.3632812,-0.33984379 -0.25781252,0 -0.55078127,0.2109375 -0.55078127,0.59765629 0,0.4453125 0.43359375,0.6796875 0.84374997,0.6796875 0.5507813,0 0.9492188,-0.5859375 1.125,-0.9609375 0.328125,-0.63281254 0.5507813,-1.83984379 0.5625,-1.91015629 z m 0,0"
           style="fill:#000000;fill-opacity:1;fill-rule:nonzero;stroke:none" /><path
           id="path25"
           d="m 11.030258,-4.4071484 -1.3945314,0.1171875 v 0.3046875 c 0.6562504,0 0.7382814,0.058594 0.7382814,0.5507812 v 2.67187501 c 0,0.45703125 -0.105469,0.45703125 -0.7734377,0.45703125 V -8.984375e-4 C 9.9169766,-0.01261719 10.456039,-0.03605469 10.702133,-0.03605469 c 0.339844,0 0.691406,0.0234375 1.03125,0.0351562525 V -0.30558594 c -0.65625,0 -0.703125,-0.0585938 -0.703125,-0.4453125 z m 0.04687,-1.734375 c 0,-0.3164063 -0.246094,-0.5273438 -0.527344,-0.5273438 -0.316406,0 -0.527344,0.2695313 -0.527344,0.5273438 0,0.2695312 0.210938,0.5273437 0.527344,0.5273437 0.28125,0 0.527344,-0.1992187 0.527344,-0.5273437 z m 2.0625,2.71875 v 2.66015621 c 0,0.45703125 -0.117188,0.45703125 -0.785156,0.45703125 v 0.3046875025 c 0.351562,-0.0117187525 0.855468,-0.0351562525 1.125,-0.0351562525 0.257812,0 0.785156,0.0234375 1.113281,0.0351562525 V -0.30558594 c -0.65625,0 -0.773438,0 -0.773438,-0.45703125 V -2.5907422 c 0,-1.03125 0.714844,-1.59375 1.347657,-1.59375 0.621093,0 0.738281,0.5390625 0.738281,1.1015625 v 2.32031251 c 0,0.45703125 -0.117188,0.45703125 -0.773438,0.45703125 v 0.3046875025 c 0.339844,-0.0117187525 0.855469,-0.0351562525 1.125,-0.0351562525 0.257813,0 0.773438,0.0234375 1.113282,0.0351562525 V -0.30558594 c -0.515625,0 -0.773438,0 -0.785157,-0.3046875 V -2.5087109 c 0,-0.8554688 0,-1.171875 -0.304687,-1.5234375 -0.140625,-0.1757813 -0.46875,-0.375 -1.042969,-0.375 -0.726562,0 -1.195312,0.4335937 -1.476562,1.0546875 v -1.0546875 l -1.40625,0.1171875 v 0.3046875 c 0.703125,0 0.785156,0.070312 0.785156,0.5625 z m 11.044922,5.8125 c 0,-0.035156 0,-0.046875 -0.164063,-0.2226563 -1.242187,-1.25390624 -1.570312,-3.12890624 -1.570312,-4.6640625 0,-1.7226562 0.386718,-3.4570312 1.605468,-4.7109375 0.128907,-0.1171875 0.128907,-0.1289062 0.128907,-0.1640625 0,-0.070312 -0.03516,-0.1054687 -0.09375,-0.1054687 -0.105469,0 -0.996094,0.6796875 -1.582032,1.9453125 -0.515625,1.1015625 -0.632812,2.203125 -0.632812,3.0351562 0,0.7851563 0.117187,1.99218751 0.65625,3.11718751 0.597656,1.21874999 1.453125,1.87499999 1.558594,1.87499999 0.05859,0 0.09375,-0.035156 0.09375,-0.1054687 z m 6.685547,-8.4140625 c 0,-0.3632813 0.02344,-0.46875 0.785156,-0.46875 h 0.246094 v -0.3164063 c -0.351563,0.035156 -1.089844,0.035156 -1.464844,0.035156 -0.386719,0 -1.125,0 -1.476563,-0.035156 v 0.3164063 h 0.234375 c 0.773438,0 0.785157,0.1054687 0.785157,0.46875 v 2.3320312 h -2.976563 v -2.3320312 c 0,-0.3632813 0.02344,-0.46875 0.785156,-0.46875 h 0.246094 v -0.3164063 c -0.351562,0.035156 -1.089844,0.035156 -1.464844,0.035156 -0.375,0 -1.125,0 -1.476562,-0.035156 v 0.3164063 h 0.234375 c 0.773437,0 0.796875,0.1054687 0.796875,0.46875 v 5.24999996 c 0,0.3515625 -0.02344,0.46875 -0.796875,0.46875 h -0.23437 V -8.984375e-4 C 25.44432,-0.03605469 26.182602,-0.03605469 26.557602,-0.03605469 c 0.375,0 1.125,0 1.476562,0.0351562525 V -0.30558594 H 27.78807 c -0.761718,0 -0.785156,-0.1171875 -0.785156,-0.46875 V -3.3876172 h 2.976563 v 2.61328126 c 0,0.3515625 -0.01172,0.46875 -0.785157,0.46875 H 28.959945 V -8.984375e-4 C 29.311508,-0.03605469 30.049789,-0.03605469 30.424789,-0.03605469 c 0.375,0 1.125,0 1.476563,0.0351562525 V -0.30558594 h -0.246094 c -0.761719,0 -0.785156,-0.1171875 -0.785156,-0.46875 z m 5.258789,2.0273437 c 0.08203,-0.1054687 0.08203,-0.1289062 0.08203,-0.1640625 0,-0.1289062 -0.08203,-0.1289062 -0.257813,-0.1289062 h -3.1875 l -0.105468,1.59375 h 0.246093 c 0.05859,-1.0078125 0.246094,-1.3828125 1.347657,-1.3828125 h 1.136718 l -2.789062,3.76171871 c -0.08203,0.10546875 -0.08203,0.12890625 -0.08203,0.17578125 0,0.1406250025 0.07031,0.1406250025 0.257812,0.1406250025 h 3.28125 L 36.234359,-1.8641797 h -0.246093 c -0.09375,1.17187501 -0.304688,1.61718751 -1.453125,1.61718751 h -1.183594 z m 3.418945,1.5 c 0,-0.7734375 -0.117188,-1.9804687 -0.65625,-3.1054687 -0.597656,-1.21875 -1.464844,-1.875 -1.558594,-1.875 -0.05859,0 -0.105469,0.046875 -0.105469,0.1054687 0,0.035156 0,0.046875 0.199219,0.234375 0.972656,0.984375 1.535156,2.5664063 1.535156,4.640625 0,1.71093751 -0.363281,3.45703126 -1.59375,4.7226563 -0.140625,0.1171875 -0.140625,0.1289062 -0.140625,0.1640625 0,0.058594 0.04687,0.1054687 0.105469,0.1054687 0.09375,0 0.996094,-0.6796875 1.582031,-1.94531249 0.503907,-1.1015625 0.632813,-2.20312501 0.632813,-3.04687501 z m 0,0"
           style="fill:#000000;fill-opacity:1;fill-rule:nonzero;stroke:none" /></g><g
         id="g25"
         aria-label="|X&#10;s&#10;(f)|"
         transform="matrix(0,-1.3333333,1.3333333,0,212.67333,271.32933)"><path
           id="path26"
           d="m 1.5829375,-7.114375 c 0,-0.1757813 0,-0.3632813 -0.1992187,-0.3632813 -0.1992188,0 -0.1992188,0.1875 -0.1992188,0.3632813 v 9.2460937 c 0,0.1757813 0,0.3632813 0.1992188,0.3632813 0.1992187,0 0.1992187,-0.1875 0.1992187,-0.3632813 z m 0,0"
           style="fill:#000000;fill-opacity:1;fill-rule:nonzero;stroke:none" /><path
           id="path27"
           d="M 7.5946563,-4.0909375 6.762625,-6.083125 C 6.7274688,-6.1534375 6.71575,-6.2003125 6.71575,-6.2120313 c 0,-0.058594 0.1640625,-0.2460937 0.5859375,-0.28125 0.09375,-0.011719 0.1992188,-0.023437 0.1992188,-0.1875 0,-0.1289062 -0.1171875,-0.1289062 -0.1523438,-0.1289062 -0.4101562,0 -0.8320312,0.035156 -1.2539062,0.035156 -0.2460938,0 -0.8671875,-0.035156 -1.1132813,-0.035156 -0.058594,0 -0.1875,0 -0.1875,0.1992187 0,0.1171875 0.1054688,0.1171875 0.234375,0.1171875 0.5976563,0 0.65625,0.09375 0.75,0.3164063 l 1.171875,2.7773437 -2.0976562,2.2617188 -0.1289063,0.1054687 C 4.231375,-0.505 3.762625,-0.3409375 3.2587188,-0.30578125 c -0.1289063,0 -0.2226563,0 -0.2226563,0.19921875 0,0 0,0.10546875 0.1289063,0.10546875 0.3046875,0 0.6328125,-0.03515625 0.9375,-0.03515625 0.3632812,0 0.7617187,0.03515625 1.1132812,0.03515625 0.058594,0 0.1757813,0 0.1757813,-0.19921875 0,-0.10546875 -0.09375,-0.10546875 -0.1171875,-0.10546875 C 5.1923125,-0.3175 4.8759063,-0.3409375 4.8759063,-0.6221875 c 0,-0.15234375 0.1523437,-0.31640625 0.2695312,-0.4453125 l 1.0195313,-1.078125 0.890625,-0.9726563 1.0078125,2.3789063 c 0.046875,0.10546875 0.046875,0.1171875 0.046875,0.140625 0,0.0820313 -0.1875,0.24609375 -0.5742188,0.29296875 -0.1054687,0 -0.1992187,0.0117188 -0.1992187,0.1875 0,0.1171875 0.1171875,0.1171875 0.1523437,0.1171875 0.28125,0 0.9726563,-0.03515625 1.2539063,-0.03515625 0.2460937,0 0.8554687,0.03515625 1.1015625,0.03515625 0.070312,0 0.1992187,0 0.1992187,-0.1875 0,-0.1171875 -0.1054687,-0.1171875 -0.1875,-0.1171875 C 9.1884063,-0.3175 9.1766875,-0.35265625 9.0009063,-0.75109375 8.6141875,-1.676875 7.9462188,-3.22375 7.7118438,-3.8214063 8.3915313,-4.5245313 9.4462188,-5.708125 9.762625,-5.989375 10.043875,-6.22375 10.430594,-6.4698438 11.02825,-6.4932813 11.157156,-6.505 11.239188,-6.505 11.239188,-6.6925 c 0,-0.011719 0,-0.1171875 -0.128907,-0.1171875 -0.292968,0 -0.621093,0.035156 -0.9375,0.035156 -0.363281,0 -0.738281,-0.035156 -1.1015622,-0.035156 -0.058594,0 -0.1875,0 -0.1875,0.1992187 0,0.070312 0.046875,0.1054688 0.1171875,0.1171875 0.09375,0.011719 0.3984375,0.023437 0.3984375,0.3046875 0,0.140625 -0.1054688,0.2695313 -0.1875,0.3632813 z m 0,0"
           style="fill:#000000;fill-opacity:1;fill-rule:nonzero;stroke:none" /><path
           id="path28"
           d="m 14.022391,-1.1290234 c -0.175782,0.046875 -0.292969,0.18749996 -0.292969,0.32812496 0,0.1640625 0.140625,0.22265625 0.234375,0.22265625 0.07031,0 0.339844,-0.0351563 0.339844,-0.3984375 0,-0.44531251 -0.503907,-0.59765621 -0.925782,-0.59765621 -1.089843,0 -1.289062,0.79687496 -1.289062,1.00781246 0,0.2578125 0.152344,0.43359375 0.246094,0.515625 0.175781,0.140625 0.304687,0.1640625 0.785156,0.24609375 0.152344,0.0351563 0.597656,0.1171875 0.597656,0.46875 0,0.1171875 -0.08203,0.37499999 -0.375,0.55078129 -0.269531,0.1523437 -0.609375,0.1523437 -0.691406,0.1523437 -0.28125,0 -0.679688,-0.058594 -0.84375,-0.2929687 0.234375,-0.023437 0.386719,-0.19921879 0.386719,-0.39843754 0,-0.1640625 -0.128907,-0.2578125 -0.269532,-0.2578125 -0.199218,0 -0.410156,0.1640625 -0.410156,0.46875 0,0.42187504 0.445313,0.67968754 1.125,0.67968754 1.289063,0 1.523438,-0.87890629 1.523438,-1.14843754 0,-0.64453125 -0.703125,-0.7734375 -0.960938,-0.8203125 -0.07031,-0.0117188 -0.246094,-0.0351563 -0.28125,-0.0585938 -0.257812,-0.046875 -0.386719,-0.1875 -0.386719,-0.33984375 0,-0.1640625 0.128907,-0.35156241 0.28125,-0.44531241 0.1875,-0.1289063 0.433594,-0.140625 0.550782,-0.140625 0.140625,0 0.503906,0.023437 0.65625,0.2578125 z m 0,0"
           style="fill:#000000;fill-opacity:1;fill-rule:nonzero;stroke:none" /><path
           id="path29"
           d="m 18.572195,2.3895312 c 0,-0.035156 0,-0.046875 -0.164062,-0.2226562 -1.242188,-1.25390625 -1.570313,-3.12890625 -1.570313,-4.6640625 0,-1.7226563 0.386719,-3.4570313 1.605469,-4.7109375 0.128906,-0.1171875 0.128906,-0.1289063 0.128906,-0.1640625 0,-0.070312 -0.03516,-0.1054688 -0.09375,-0.1054688 -0.105468,0 -0.996093,0.6796875 -1.582031,1.9453125 -0.515625,1.1015625 -0.632812,2.203125 -0.632812,3.0351563 0,0.7851562 0.117187,1.9921875 0.65625,3.1171875 0.597656,1.21875 1.453125,1.875 1.558593,1.875 0.05859,0 0.09375,-0.035156 0.09375,-0.1054688 z m 0,0"
           style="fill:#000000;fill-opacity:1;fill-rule:nonzero;stroke:none" /><path
           id="path30"
           d="m 22.811453,-3.9854688 h 0.855469 c 0.199219,0 0.304687,0 0.304687,-0.1992187 0,-0.1054688 -0.105468,-0.1054688 -0.269531,-0.1054688 h -0.832031 l 0.210937,-1.1367187 c 0.03516,-0.2109375 0.175782,-0.9140625 0.234375,-1.0429688 0.09375,-0.1875 0.257813,-0.3398437 0.46875,-0.3398437 0.04687,0 0.304688,0 0.492188,0.1875 -0.433594,0.035156 -0.539063,0.3867187 -0.539063,0.5390625 0,0.2226562 0.175782,0.3398437 0.363282,0.3398437 0.269531,0 0.550781,-0.2109375 0.550781,-0.5976562 0,-0.4570313 -0.457031,-0.6796875 -0.867188,-0.6796875 -0.339843,0 -0.960937,0.1757812 -1.265625,1.1601562 -0.05859,0.2109375 -0.08203,0.3164063 -0.328125,1.5703125 h -0.679687 c -0.199219,0 -0.304688,0 -0.304688,0.1875 0,0.1171875 0.09375,0.1171875 0.28125,0.1171875 h 0.65625 l -0.75,3.93750005 c -0.175781,0.9609375 -0.339843,1.87499995 -0.867187,1.87499995 -0.03516,0 -0.28125,0 -0.46875,-0.1875 0.457031,-0.023437 0.539062,-0.3867187 0.539062,-0.5390625 0,-0.2226562 -0.175781,-0.3398437 -0.363281,-0.3398437 -0.257812,0 -0.550781,0.2109375 -0.550781,0.5976562 0,0.4453125 0.433594,0.6796875 0.84375,0.6796875 0.550781,0 0.949219,-0.5859375 1.125,-0.9609375 0.328125,-0.63281245 0.550781,-1.8398437 0.5625,-1.9101562 z m 0,0"
           style="fill:#000000;fill-opacity:1;fill-rule:nonzero;stroke:none" /><path
           id="path31"
           d="m 27.988211,-2.4971875 c 0,-0.7734375 -0.117188,-1.9804688 -0.65625,-3.1054688 -0.597656,-1.21875 -1.464844,-1.875 -1.558594,-1.875 -0.05859,0 -0.105469,0.046875 -0.105469,0.1054688 0,0.035156 0,0.046875 0.199219,0.234375 0.972656,0.984375 1.535156,2.5664062 1.535156,4.640625 0,1.7109375 -0.363281,3.45703125 -1.59375,4.7226562 -0.140625,0.1171875 -0.140625,0.1289063 -0.140625,0.1640625 0,0.058594 0.04687,0.1054688 0.105469,0.1054688 0.09375,0 0.996094,-0.6796875 1.582031,-1.9453125 0.503907,-1.1015625 0.632813,-2.203125 0.632813,-3.046875 z m 0,0"
           style="fill:#000000;fill-opacity:1;fill-rule:nonzero;stroke:none" /><path
           id="path32"
           d="m 30.560477,-7.114375 c 0,-0.1757813 0,-0.3632813 -0.199219,-0.3632813 -0.199219,0 -0.199219,0.1875 -0.199219,0.3632813 v 9.2460937 c 0,0.1757813 0,0.3632813 0.199219,0.3632813 0.199219,0 0.199219,-0.1875 0.199219,-0.3632813 z m 0,0"
           style="fill:#000000;fill-opacity:1;fill-rule:nonzero;stroke:none" /></g><path
         id="path33"
         d="m 506.9132,95.16867 h 157.6152 v 16.93665 H 506.9132 Z"
         style="fill:#ffffff;fill-opacity:1;fill-rule:nonzero;stroke:#000000;stroke-width:0.3985;stroke-linecap:butt;stroke-linejoin:miter;stroke-miterlimit:10;stroke-dasharray:none;stroke-opacity:1"
         transform="matrix(1.3333333,0,0,-1.3333333,-257.312,319.74667)" /><path
         id="path34"
         d="m 0,0 v 0 m 8.50412,0 v 0 m 8.50414,0 v 0"
         style="fill:none;stroke:#0000ff;stroke-width:0.3985;stroke-linecap:butt;stroke-linejoin:miter;stroke-miterlimit:10;stroke-dasharray:none;stroke-opacity:1"
         transform="matrix(1.3333333,0,0,-1.3333333,422.81333,181.56533)" /><path
         id="path35"
         d="m 10.49667,0 c 0,1.10046 -0.89209,1.99255 -1.99255,1.99255 C 7.40364,1.99255 6.51157,1.10046 6.51157,0 c 0,-1.10046 0.89207,-1.99255 1.99255,-1.99255 1.10046,0 1.99255,0.89209 1.99255,1.99255 z"
         style="fill:#0000cc;fill-opacity:1;fill-rule:nonzero;stroke:#0000ff;stroke-width:0.3985;stroke-linecap:butt;stroke-linejoin:miter;stroke-miterlimit:10;stroke-dasharray:none;stroke-opacity:1"
         transform="matrix(1.3333333,0,0,-1.3333333,422.81333,181.56533)" /><g
         id="g35"
         aria-label="|X&#10;s&#10;(f)|butf&#10;s&#10;=100&gt;2f&#10;max"
         transform="matrix(1.3333333,0,0,1.3333333,448.41333,185.55067)"><path
           id="path36"
           d="m 1.5825781,-7.1131953 c 0,-0.1757813 0,-0.3632813 -0.1992187,-0.3632813 -0.1992188,0 -0.1992188,0.1875 -0.1992188,0.3632813 v 9.2460937 c 0,0.1757813 0,0.3632813 0.1992188,0.3632813 0.1992187,0 0.1992187,-0.1875 0.1992187,-0.3632813 z m 0,0"
           style="fill:#000000;fill-opacity:1;fill-rule:nonzero;stroke:none" /><path
           id="path37"
           d="M 7.5972266,-4.0897578 6.7651953,-6.0819453 c -0.035156,-0.070312 -0.046875,-0.1171875 -0.046875,-0.1289063 0,-0.058594 0.1640625,-0.2460937 0.5859375,-0.28125 0.09375,-0.011719 0.1992188,-0.023437 0.1992188,-0.1875 0,-0.1289062 -0.1171875,-0.1289062 -0.1523438,-0.1289062 -0.4101562,0 -0.8320312,0.035156 -1.2539062,0.035156 -0.2460938,0 -0.8671875,-0.035156 -1.1132813,-0.035156 -0.058594,0 -0.1875,0 -0.1875,0.1992187 0,0.1171875 0.1054688,0.1171875 0.234375,0.1171875 0.5976563,0 0.65625,0.09375 0.75,0.3164063 l 1.171875,2.7773437 -2.0976562,2.2617188 -0.1289063,0.1054687 c -0.4921875,0.52734379 -0.9609375,0.69140629 -1.4648437,0.72656254 -0.1289063,0 -0.2226563,0 -0.2226563,0.19921875 0,0 0,0.1054687475 0.1289063,0.1054687475 0.3046875,0 0.6328125,-0.0351562475 0.9375,-0.0351562475 0.3632812,0 0.7617187,0.0351562475 1.1132812,0.0351562475 0.058594,0 0.1757813,0 0.1757813,-0.1992187475 0,-0.10546875 -0.09375,-0.10546875 -0.1171875,-0.10546875 -0.082031,-0.0117188 -0.3984375,-0.0351563 -0.3984375,-0.31640625 0,-0.15234375 0.1523437,-0.31640625 0.2695312,-0.44531249 l 1.0195313,-1.078125 0.890625,-0.9726563 1.0078125,2.37890629 c 0.046875,0.10546875 0.046875,0.1171875 0.046875,0.140625 0,0.0820313 -0.1875,0.24609375 -0.5742188,0.29296875 -0.1054687,0 -0.1992187,0.0117188 -0.1992187,0.1875 0,0.1171874975 0.1171875,0.1171874975 0.1523437,0.1171874975 0.28125,0 0.9726563,-0.0351562475 1.2539063,-0.0351562475 0.2460937,0 0.8554687,0.0351562475 1.1015625,0.0351562475 0.070312,0 0.1992184,0 0.1992184,-0.1874999975 0,-0.1171875 -0.1054684,-0.1171875 -0.1874997,-0.1171875 -0.6679687,-0.0117188 -0.6796875,-0.046875 -0.8554687,-0.4453125 C 8.6167578,-1.6756953 7.9487891,-3.2225703 7.7144141,-3.8202266 c 0.6796875,-0.703125 1.734375,-1.8867187 2.0507812,-2.1679687 0.2812497,-0.234375 0.6679687,-0.4804688 1.2656247,-0.5039063 0.128907,-0.011719 0.210938,-0.011719 0.210938,-0.1992187 0,-0.011719 0,-0.1171875 -0.128906,-0.1171875 -0.292969,0 -0.621094,0.035156 -0.9375,0.035156 -0.3632817,0 -0.7382817,-0.035156 -1.1015629,-0.035156 -0.058594,0 -0.1875,0 -0.1875,0.1992187 0,0.070312 0.046875,0.1054688 0.1171875,0.1171875 0.09375,0.011719 0.3984375,0.023437 0.3984375,0.3046875 0,0.140625 -0.1054688,0.2695313 -0.1875,0.3632813 z m 0,0"
           style="fill:#000000;fill-opacity:1;fill-rule:nonzero;stroke:none" /><path
           id="path38"
           d="m 14.022031,-1.1307734 c -0.175781,0.046875 -0.292968,0.18749996 -0.292968,0.32812496 0,0.1640625 0.140625,0.22265625 0.234375,0.22265625 0.07031,0 0.339843,-0.0351563 0.339843,-0.3984375 0,-0.44531251 -0.503906,-0.59765621 -0.925781,-0.59765621 -1.089844,0 -1.289062,0.79687496 -1.289062,1.00781246 0,0.2578125 0.152343,0.43359375 0.246093,0.515625 0.175782,0.140625 0.304688,0.1640625 0.785157,0.24609375 0.152343,0.0351563 0.597656,0.1171875 0.597656,0.46875 0,0.1171875 -0.08203,0.37499999 -0.375,0.55078129 -0.269531,0.1523437 -0.609375,0.1523437 -0.691406,0.1523437 -0.28125,0 -0.679688,-0.058594 -0.84375,-0.2929687 0.234375,-0.023437 0.386718,-0.19921879 0.386718,-0.39843754 0,-0.1640625 -0.128906,-0.2578125 -0.269531,-0.2578125 -0.199219,0 -0.410156,0.1640625 -0.410156,0.46875 0,0.42187504 0.445312,0.67968754 1.125,0.67968754 1.289062,0 1.523437,-0.87890629 1.523437,-1.14843754 0,-0.64453125 -0.703125,-0.7734375 -0.960937,-0.8203125 -0.07031,-0.0117188 -0.246094,-0.0351563 -0.28125,-0.0585938 -0.257813,-0.046875 -0.386719,-0.1875 -0.386719,-0.33984375 0,-0.1640625 0.128906,-0.35156241 0.28125,-0.44531241 0.1875,-0.1289063 0.433594,-0.140625 0.550781,-0.140625 0.140625,0 0.503907,0.023437 0.65625,0.2578125 z m 0,0"
           style="fill:#000000;fill-opacity:1;fill-rule:nonzero;stroke:none" /><path
           id="path39"
           d="m 18.571836,2.3907109 c 0,-0.035156 0,-0.046875 -0.164063,-0.2226562 -1.242187,-1.25390626 -1.570312,-3.12890626 -1.570312,-4.6640625 0,-1.7226563 0.386719,-3.4570313 1.605469,-4.7109375 0.128906,-0.1171875 0.128906,-0.1289063 0.128906,-0.1640625 0,-0.070312 -0.03516,-0.1054688 -0.09375,-0.1054688 -0.105469,0 -0.996094,0.6796875 -1.582031,1.9453125 -0.515625,1.1015625 -0.632813,2.203125 -0.632813,3.0351563 0,0.7851562 0.117188,1.99218749 0.65625,3.11718749 0.597656,1.21875001 1.453125,1.87500001 1.558594,1.87500001 0.05859,0 0.09375,-0.035156 0.09375,-0.1054688 z m 0,0"
           style="fill:#000000;fill-opacity:1;fill-rule:nonzero;stroke:none" /><path
           id="path40"
           d="m 22.811094,-3.9842891 h 0.855469 c 0.199218,0 0.304687,0 0.304687,-0.1992187 0,-0.1054688 -0.105469,-0.1054688 -0.269531,-0.1054688 h -0.832031 l 0.210937,-1.1367187 c 0.03516,-0.2109375 0.175781,-0.9140625 0.234375,-1.0429688 0.09375,-0.1875 0.257813,-0.3398437 0.46875,-0.3398437 0.04687,0 0.304688,0 0.492188,0.1875 -0.433594,0.035156 -0.539063,0.3867187 -0.539063,0.5390625 0,0.2226562 0.175781,0.3398437 0.363281,0.3398437 0.269532,0 0.550782,-0.2109375 0.550782,-0.5976562 0,-0.4570313 -0.457032,-0.6796875 -0.867188,-0.6796875 -0.339844,0 -0.960937,0.1757812 -1.265625,1.1601562 -0.05859,0.2109375 -0.08203,0.3164063 -0.328125,1.5703125 h -0.679687 c -0.199219,0 -0.304688,0 -0.304688,0.1875 0,0.1171875 0.09375,0.1171875 0.28125,0.1171875 h 0.65625 l -0.75,3.93750004 c -0.175781,0.9609375 -0.339844,1.87499996 -0.867187,1.87499996 -0.03516,0 -0.28125,0 -0.46875,-0.1875 0.457031,-0.023437 0.539062,-0.3867187 0.539062,-0.5390625 0,-0.22265621 -0.175781,-0.33984371 -0.363281,-0.33984371 -0.257813,0 -0.550781,0.2109375 -0.550781,0.59765621 0,0.4453125 0.433593,0.6796875 0.84375,0.6796875 0.550781,0 0.949218,-0.5859375 1.125,-0.9609375 0.328125,-0.63281246 0.550781,-1.83984371 0.5625,-1.91015621 z m 0,0"
           style="fill:#000000;fill-opacity:1;fill-rule:nonzero;stroke:none" /><path
           id="path41"
           d="m 27.987852,-2.4960078 c 0,-0.7734375 -0.117188,-1.9804688 -0.65625,-3.1054688 -0.597657,-1.21875 -1.464844,-1.875 -1.558594,-1.875 -0.05859,0 -0.105469,0.046875 -0.105469,0.1054688 0,0.035156 0,0.046875 0.199219,0.234375 0.972656,0.984375 1.535156,2.5664062 1.535156,4.640625 0,1.71093749 -0.363281,3.45703124 -1.59375,4.7226562 -0.140625,0.1171875 -0.140625,0.1289063 -0.140625,0.1640625 0,0.058594 0.04687,0.1054688 0.105469,0.1054688 0.09375,0 0.996094,-0.6796875 1.582031,-1.94531251 0.503906,-1.1015625 0.632813,-2.20312499 0.632813,-3.04687499 z m 0,0"
           style="fill:#000000;fill-opacity:1;fill-rule:nonzero;stroke:none" /><path
           id="path42"
           d="m 30.560117,-7.1131953 c 0,-0.1757813 0,-0.3632813 -0.199219,-0.3632813 -0.199218,0 -0.199218,0.1875 -0.199218,0.3632813 v 9.2460937 c 0,0.1757813 0,0.3632813 0.199218,0.3632813 0.199219,0 0.199219,-0.1875 0.199219,-0.3632813 z m 0,0"
           style="fill:#000000;fill-opacity:1;fill-rule:nonzero;stroke:none" /><path
           id="path43"
           d="m 36.776914,-3.7499141 v -3.1640625 l -1.429687,0.1054688 v 0.3164062 c 0.691406,0 0.773437,0.070312 0.773437,0.5507813 V 8.59375e-5 h 0.246094 c 0.01172,-0.0117187475 0.09375,-0.1523437475 0.363281,-0.6210937475 0.152344,0.234375 0.5625,0.7265625 1.300781,0.7265625 1.183594,0 2.226563,-0.97265625 2.226563,-2.26171879 0,-1.265625 -0.972656,-2.25 -2.109375,-2.25 -0.785156,0 -1.207031,0.46875 -1.371094,0.65625 z m 0.03516,2.6132813 v -2.0507813 c 0,-0.1875 0,-0.1992187 0.105469,-0.3632812 0.386719,-0.5507813 0.9375,-0.6328125 1.171875,-0.6328125 0.457031,0 0.808594,0.2578125 1.054688,0.6328125 0.257812,0.4101562 0.28125,0.984375 0.28125,1.3945312 0,0.3632813 -0.01172,0.9609375 -0.304688,1.40625004 -0.210937,0.31640625 -0.585937,0.64453125 -1.125,0.64453125 -0.445312,0 -0.808594,-0.24609375 -1.042969,-0.609375 C 36.81207,-0.92569531 36.81207,-0.96085156 36.81207,-1.1366328 Z m 7.681641,0.35156249 v 0.890625 L 45.935117,8.59375e-5 V -0.30460156 c -0.703125,0 -0.785156,-0.0703125 -0.785156,-0.5625 V -4.4061641 l -1.453125,0.1171875 v 0.3046875 c 0.691406,0 0.773437,0.070312 0.773437,0.5625 v 1.7695313 c 0,0.86718749 -0.480468,1.54687499 -1.207031,1.54687499 -0.832031,0 -0.878906,-0.46875 -0.878906,-0.99609379 v -3.3046875 l -1.464844,0.1171875 v 0.3046875 c 0.785156,0 0.785156,0.035156 0.785156,0.9140625 v 1.5 c 0,0.77343754 0,1.67578129 1.511719,1.67578129 0.550781,0 0.996094,-0.26953125 1.277344,-0.890625 z m 3.366211,-3.19921879 h 1.429687 v -0.3046875 h -1.429687 v -1.8398437 h -0.246094 c -0.01172,0.8203125 -0.316406,1.8867187 -1.289062,1.921875 v 0.2226562 h 0.84375 v 2.7539063 c 0,1.21874999 0.925781,1.33593749 1.289062,1.33593749 0.703125,0 0.984375,-0.703125 0.984375,-1.33593749 v -0.5742188 h -0.246094 v 0.5507813 c 0,0.73828124 -0.304687,1.11328124 -0.667968,1.11328124 -0.667969,0 -0.667969,-0.90234374 -0.667969,-1.07812504 z m 0,0"
           style="fill:#000000;fill-opacity:1;fill-rule:nonzero;stroke:none" /><path
           id="path44"
           d="m 56.988828,-3.9842891 h 0.855469 c 0.199219,0 0.304687,0 0.304687,-0.1992187 0,-0.1054688 -0.105468,-0.1054688 -0.269531,-0.1054688 h -0.832031 l 0.210937,-1.1367187 c 0.03516,-0.2109375 0.175782,-0.9140625 0.234375,-1.0429688 0.09375,-0.1875 0.257813,-0.3398437 0.46875,-0.3398437 0.04687,0 0.304688,0 0.492188,0.1875 -0.433594,0.035156 -0.539063,0.3867187 -0.539063,0.5390625 0,0.2226562 0.175782,0.3398437 0.363282,0.3398437 0.269531,0 0.550781,-0.2109375 0.550781,-0.5976562 0,-0.4570313 -0.457031,-0.6796875 -0.867188,-0.6796875 -0.339843,0 -0.960937,0.1757812 -1.265625,1.1601562 -0.05859,0.2109375 -0.08203,0.3164063 -0.328125,1.5703125 h -0.679687 c -0.199219,0 -0.304688,0 -0.304688,0.1875 0,0.1171875 0.09375,0.1171875 0.28125,0.1171875 h 0.65625 l -0.75,3.93750004 c -0.175781,0.9609375 -0.339843,1.87499996 -0.867187,1.87499996 -0.03516,0 -0.28125,0 -0.46875,-0.1875 0.457031,-0.023437 0.539062,-0.3867187 0.539062,-0.5390625 0,-0.22265621 -0.175781,-0.33984371 -0.363281,-0.33984371 -0.257812,0 -0.550781,0.2109375 -0.550781,0.59765621 0,0.4453125 0.433594,0.6796875 0.84375,0.6796875 0.550781,0 0.949219,-0.5859375 1.125,-0.9609375 0.328125,-0.63281246 0.550781,-1.83984371 0.5625,-1.91015621 z m 0,0"
           style="fill:#000000;fill-opacity:1;fill-rule:nonzero;stroke:none" /><path
           id="path45"
           d="m 61.207578,-1.1307734 c -0.175781,0.046875 -0.292969,0.18749996 -0.292969,0.32812496 0,0.1640625 0.140625,0.22265625 0.234375,0.22265625 0.07031,0 0.339844,-0.0351563 0.339844,-0.3984375 0,-0.44531251 -0.503906,-0.59765621 -0.925781,-0.59765621 -1.089844,0 -1.289063,0.79687496 -1.289063,1.00781246 0,0.2578125 0.152344,0.43359375 0.246094,0.515625 0.175781,0.140625 0.304688,0.1640625 0.785156,0.24609375 0.152344,0.0351563 0.597657,0.1171875 0.597657,0.46875 0,0.1171875 -0.08203,0.37499999 -0.375,0.55078129 -0.269532,0.1523437 -0.609375,0.1523437 -0.691407,0.1523437 -0.28125,0 -0.679687,-0.058594 -0.84375,-0.2929687 0.234375,-0.023437 0.386719,-0.19921879 0.386719,-0.39843754 0,-0.1640625 -0.128906,-0.2578125 -0.269531,-0.2578125 -0.199219,0 -0.410156,0.1640625 -0.410156,0.46875 0,0.42187504 0.445312,0.67968754 1.125,0.67968754 1.289062,0 1.523437,-0.87890629 1.523437,-1.14843754 0,-0.64453125 -0.703125,-0.7734375 -0.960937,-0.8203125 -0.07031,-0.0117188 -0.246094,-0.0351563 -0.28125,-0.0585938 -0.257813,-0.046875 -0.386719,-0.1875 -0.386719,-0.33984375 0,-0.1640625 0.128906,-0.35156241 0.28125,-0.44531241 0.1875,-0.1289063 0.433594,-0.140625 0.550781,-0.140625 0.140625,0 0.503906,0.023437 0.65625,0.2578125 z m 0,0"
           style="fill:#000000;fill-opacity:1;fill-rule:nonzero;stroke:none" /><path
           id="path46"
           d="m 72.079648,-3.2577266 c 0.152344,0 0.339844,0 0.339844,-0.1992187 0,-0.1992188 -0.1875,-0.1992188 -0.328125,-0.1992188 h -5.964844 c -0.140625,0 -0.328125,0 -0.328125,0.1992188 0,0.1992187 0.1875,0.1992187 0.339844,0.1992187 z m 0.01172,1.9335938 c 0.140625,0 0.328125,0 0.328125,-0.1992188 0,-0.1992187 -0.1875,-0.1992187 -0.339844,-0.1992187 h -5.941406 c -0.152344,0 -0.339844,0 -0.339844,0.1992187 0,0.1992188 0.1875,0.1992188 0.328125,0.1992188 z m 6.591797,-5.0507813 c 0,-0.234375 0,-0.2578125 -0.234375,-0.2578125 -0.609375,0.6328125 -1.488281,0.6328125 -1.804687,0.6328125 v 0.3164063 c 0.199218,0 0.785156,0 1.300781,-0.2578125 v 5.15624999 c 0,0.3515625 -0.03516,0.48046875 -0.925781,0.48046875 H 76.702695 V 8.59375e-5 C 77.054258,-0.03507031 77.909727,-0.03507031 78.308164,-0.03507031 c 0.398438,0 1.265625,0 1.617188,0.0351562475 V -0.30460156 h -0.316407 c -0.902343,0 -0.925781,-0.1171875 -0.925781,-0.48046875 z m 6.632813,3.1875 c 0,-0.796875 -0.04687,-1.59375 -0.398438,-2.3320312 -0.457031,-0.9609375 -1.277344,-1.1132813 -1.6875,-1.1132813 -0.597656,0 -1.335937,0.2578125 -1.734375,1.1835938 -0.328125,0.6914062 -0.375,1.4648437 -0.375,2.2617187 0,0.75 0.04687,1.640625 0.445313,2.40234379 0.433593,0.80859375 1.160156,1.0078125 1.652343,1.0078125 0.539063,0 1.289063,-0.2109375 1.734375,-1.16015625 0.316407,-0.69140624 0.363282,-1.46484374 0.363282,-2.25000004 z M 83.21832,8.59375e-5 c -0.386718,0 -0.984375,-0.2460937475 -1.160156,-1.2070312375 -0.105469,-0.5976563 -0.105469,-1.5117188 -0.105469,-2.0976563 0,-0.6445312 0,-1.3007812 0.08203,-1.8398437 0.1875,-1.1835938 0.925781,-1.265625 1.183593,-1.265625 0.328125,0 0.984375,0.1757812 1.171875,1.1601562 0.09375,0.5625 0.09375,1.3125 0.09375,1.9453125 0,0.75 0,1.4179688 -0.105468,2.0625 C 84.226133,-0.30460156 83.663633,8.59375e-5 83.21832,8.59375e-5 Z M 90.299375,-3.1874141 c 0,-0.796875 -0.04687,-1.59375 -0.398437,-2.3320312 -0.457032,-0.9609375 -1.277344,-1.1132813 -1.6875,-1.1132813 -0.597657,0 -1.335938,0.2578125 -1.734375,1.1835938 -0.328125,0.6914062 -0.375,1.4648437 -0.375,2.2617187 0,0.75 0.04687,1.640625 0.445312,2.40234379 0.433594,0.80859375 1.160156,1.0078125 1.652344,1.0078125 0.539062,0 1.289062,-0.2109375 1.734375,-1.16015625 C 90.2525,-1.6288203 90.299375,-2.4022578 90.299375,-3.1874141 Z M 88.201719,8.59375e-5 c -0.386719,0 -0.984375,-0.2460937475 -1.160156,-1.2070312375 -0.105469,-0.5976563 -0.105469,-1.5117188 -0.105469,-2.0976563 0,-0.6445312 0,-1.3007812 0.08203,-1.8398437 0.1875,-1.1835938 0.925781,-1.265625 1.183594,-1.265625 0.328125,0 0.984375,0.1757812 1.171875,1.1601562 0.09375,0.5625 0.09375,1.3125 0.09375,1.9453125 0,0.75 0,1.4179688 -0.105469,2.0625 C 89.209531,-0.30460156 88.647031,8.59375e-5 88.201719,8.59375e-5 Z m 0,0"
           style="fill:#000000;fill-opacity:1;fill-rule:nonzero;stroke:none" /><path
           id="path47"
           d="m 100.19,-2.2733516 c 0.10547,-0.046875 0.1875,-0.09375 0.1875,-0.2226562 0,-0.1171875 -0.082,-0.1640625 -0.1875,-0.2109375 l -5.519531,-2.6015625 c -0.128906,-0.070312 -0.152344,-0.070312 -0.175781,-0.070312 -0.117188,0 -0.199219,0.09375 -0.199219,0.1992187 0,0.09375 0.04687,0.1523438 0.1875,0.2226563 l 5.226562,2.4609375 -5.226562,2.47265624 c -0.140625,0.0703125 -0.1875,0.12890625 -0.1875,0.22265625 0,0.10546875 0.08203,0.19921875 0.199219,0.19921875 0.02344,0 0.04687,0 0.175781,-0.0703125 z m 0,0"
           style="fill:#000000;fill-opacity:1;fill-rule:nonzero;stroke:none" /><path
           id="path48"
           d="m 105.24371,-0.76163281 1.05469,-1.03124999 c 1.55859,-1.3710938 2.15625,-1.9101563 2.15625,-2.90625 0,-1.1367188 -0.90235,-1.9335938 -2.1211,-1.9335938 -1.125,0 -1.85156,0.9140625 -1.85156,1.8046875 0,0.5507813 0.49219,0.5507813 0.52735,0.5507813 0.16406,0 0.51562,-0.1171875 0.51562,-0.5273438 0,-0.2578125 -0.1875,-0.515625 -0.52734,-0.515625 -0.082,0 -0.10547,0 -0.12891,0.011719 0.22266,-0.6445313 0.76172,-1.0195313 1.33594,-1.0195313 0.91406,0 1.33594,0.8085938 1.33594,1.6289063 0,0.796875 -0.49219,1.5820312 -1.04297,2.203125 l -1.91016,2.13281249 c -0.10547,0.10546875 -0.10547,0.12890625 -0.10547,0.3632812475 h 3.69141 L 108.45465,-1.7342891 h -0.25781 c -0.0469,0.3046875 -0.11719,0.73828129 -0.21094,0.89062504 -0.0703,0.0820313 -0.72656,0.0820313 -0.94922,0.0820313 z m 0,0"
           style="fill:#000000;fill-opacity:1;fill-rule:nonzero;stroke:none" /><path
           id="path49"
           d="m 112.6148,-3.9842891 h 0.85547 c 0.19922,0 0.30469,0 0.30469,-0.1992187 0,-0.1054688 -0.10547,-0.1054688 -0.26953,-0.1054688 h -0.83203 l 0.21094,-1.1367187 c 0.0352,-0.2109375 0.17578,-0.9140625 0.23437,-1.0429688 0.0937,-0.1875 0.25781,-0.3398437 0.46875,-0.3398437 0.0469,0 0.30469,0 0.49219,0.1875 -0.4336,0.035156 -0.53906,0.3867187 -0.53906,0.5390625 0,0.2226562 0.17578,0.3398437 0.36328,0.3398437 0.26953,0 0.55078,-0.2109375 0.55078,-0.5976562 0,-0.4570313 -0.45703,-0.6796875 -0.86719,-0.6796875 -0.33984,0 -0.96094,0.1757812 -1.26562,1.1601562 -0.0586,0.2109375 -0.082,0.3164063 -0.32813,1.5703125 h -0.67969 c -0.19922,0 -0.30468,0 -0.30468,0.1875 0,0.1171875 0.0937,0.1171875 0.28125,0.1171875 h 0.65625 l -0.75,3.93750004 c -0.17579,0.9609375 -0.33985,1.87499996 -0.86719,1.87499996 -0.0352,0 -0.28125,0 -0.46875,-0.1875 0.45703,-0.023437 0.53906,-0.3867187 0.53906,-0.5390625 0,-0.22265621 -0.17578,-0.33984371 -0.36328,-0.33984371 -0.25781,0 -0.55078,0.2109375 -0.55078,0.59765621 0,0.4453125 0.43359,0.6796875 0.84375,0.6796875 0.55078,0 0.94922,-0.5859375 1.125,-0.9609375 0.32812,-0.63281246 0.55078,-1.83984371 0.5625,-1.91015621 z m 0,0"
           style="fill:#000000;fill-opacity:1;fill-rule:nonzero;stroke:none" /><path
           id="path50"
           d="m 116.85992,0.93172656 c -0.0352,0.14062504 -0.0937,0.37500004 -0.0937,0.41015624 0,0.1523438 0.12891,0.2226563 0.23438,0.2226563 0.1289,0 0.23437,-0.09375 0.26953,-0.1523438 0.0352,-0.058594 0.0937,-0.2929687 0.1289,-0.43359374 0.0352,-0.12890625 0.11719,-0.45703125 0.15235,-0.6328125 0.0469,-0.15234375 0.082,-0.3046875 0.11719,-0.45703125 0.082,-0.3046875 0.082,-0.31640625 0.22265,-0.5390625 0.22266,-0.33984375 0.5625,-0.73828121 1.11328,-0.73828121 0.38672,0 0.41016,0.328125 0.41016,0.49218746 0,0.421875 -0.30469,1.1953125 -0.41016,1.48828125 -0.082,0.1875 -0.10547,0.2578125 -0.10547,0.375 0,0.36328129 0.30469,0.59765629 0.65625,0.59765629 0.70313,0 1.00782,-0.96093754 1.00782,-1.06640629 0,-0.09375 -0.0937,-0.09375 -0.10547,-0.09375 -0.10547,0 -0.10547,0.046875 -0.14063,0.1171875 -0.15234,0.56249999 -0.45703,0.84374999 -0.73828,0.84374999 -0.14062,0 -0.17578,-0.09375 -0.17578,-0.2460937 0,-0.15234379 0.0352,-0.24609379 0.16406,-0.56250004 0.082,-0.2109375 0.375,-0.94921875 0.375,-1.34765625 0,-0.10546875 0,-0.39843751 -0.25781,-0.59765621 -0.12891,-0.09375 -0.32812,-0.1875 -0.65625,-0.1875 -0.62109,0 -1.00781,0.4101562 -1.23047,0.70312496 -0.0586,-0.59765626 -0.55078,-0.70312496 -0.90234,-0.70312496 -0.58594,0 -0.97266,0.3515625 -1.1836,0.63281246 -0.0469,-0.48046876 -0.45703,-0.63281246 -0.75,-0.63281246 -0.29296,0 -0.45703,0.2109375 -0.55078,0.375 -0.15234,0.25781246 -0.24609,0.65624996 -0.24609,0.69140621 0,0.0820313 0.0937,0.0820313 0.11719,0.0820313 0.0937,0 0.10547,-0.0117188 0.15234,-0.19921875 0.10547,-0.42187496 0.23438,-0.76171876 0.51563,-0.76171876 0.17578,0 0.22265,0.1523438 0.22265,0.3398438 0,0.14062496 -0.0586,0.39843746 -0.10547,0.58593746 -0.0469,0.1875 -0.11718,0.46875 -0.15234,0.62109375 L 114.692,1.0606328 c -0.0352,0.082031 -0.0703,0.2578125 -0.0703,0.28125 0,0.1523438 0.11719,0.2226563 0.23438,0.2226563 0.1289,0 0.23437,-0.09375 0.26953,-0.1523438 0.0352,-0.058594 0.0937,-0.2929687 0.1289,-0.43359369 0.0352,-0.12890625 0.10547,-0.45703125 0.15235,-0.6328125 0.0352,-0.15234375 0.082,-0.3046875 0.11718,-0.45703125 0.082,-0.29296875 0.0937,-0.3515625 0.29297,-0.6328125 0.19922,-0.28124996 0.52735,-0.64453126 1.04297,-0.64453126 0.41016,0 0.41016,0.3632813 0.41016,0.49218751 0,0.17578125 -0.0117,0.26953125 -0.11719,0.65625 z m 6.98731,-2.09765626 c -0.14063,-0.234375 -0.38672,-0.4101562 -0.71485,-0.4101562 -0.89062,0 -1.80468,0.97265621 -1.80468,1.98046871 0,0.67968749 0.45703,1.16015629 1.05468,1.16015629 0.375,0 0.71485,-0.2109375 0.9961,-0.4921875 0.1289,0.421875 0.52734,0.4921875 0.71484,0.4921875 0.24609,0 0.42188,-0.1523438 0.55078,-0.375 0.15235,-0.26953129 0.2461,-0.66796879 0.2461,-0.69140629 0,-0.09375 -0.0937,-0.09375 -0.11719,-0.09375 -0.0937,0 -0.10547,0.0351563 -0.15235,0.22265625 -0.082,0.328125 -0.21093,0.73828124 -0.5039,0.73828124 -0.1875,0 -0.23438,-0.1523437 -0.23438,-0.3398437 0,-0.11718754 0.0586,-0.36328129 0.10547,-0.55078129 0.0469,-0.1875 0.11719,-0.46875 0.15235,-0.62109375 l 0.14062,-0.5390625 c 0.0469,-0.17578125 0.12891,-0.50390626 0.12891,-0.53906246 0,-0.1523438 -0.12891,-0.2226563 -0.2461,-0.2226563 -0.11718,0 -0.26953,0.082031 -0.3164,0.28125 z m -0.44532,1.79296876 c -0.0469,0.1875 -0.19921,0.328125 -0.35156,0.45703124 -0.0703,0.058594 -0.33984,0.28125 -0.64453,0.28125 -0.25781,0 -0.51562,-0.1757812 -0.51562,-0.66796874 0,-0.375 0.21093,-1.13671875 0.36328,-1.41796875 0.32812,-0.56250001 0.67968,-0.66796871 0.8789,-0.66796871 0.48047,0 0.6211,0.52734371 0.6211,0.60937496 0,0.0234375 -0.0117,0.0820313 -0.0234,0.09375 z m 3.55957,0.12890625 c -0.0703,0.234375 -0.29296,0.60937499 -0.65625,0.60937499 -0.0234,0 -0.22265,0 -0.375,-0.09375 0.28125,-0.09375 0.30469,-0.33984374 0.30469,-0.38671874 0,-0.15234375 -0.11719,-0.2578125 -0.28125,-0.2578125 -0.1875,0 -0.38672,0.1640625 -0.38672,0.43359374 0,0.3398438 0.38672,0.5039063 0.72657,0.5039063 0.3164,0 0.60937,-0.1992188 0.78515,-0.4921875 0.16406,0.3632812 0.55078,0.4921875 0.82031,0.4921875 0.8086,0 1.23047,-0.86718754 1.23047,-1.06640629 0,-0.09375 -0.0937,-0.09375 -0.10547,-0.09375 -0.10546,0 -0.10546,0.0351563 -0.14062,0.1171875 -0.14063,0.48046879 -0.5625,0.84374999 -0.94922,0.84374999 -0.28125,0 -0.42187,-0.1875 -0.42187,-0.44531249 0,-0.1875 0.16406,-0.8203125 0.36328,-1.59375 0.1289,-0.53906251 0.44531,-0.71484371 0.67968,-0.71484371 0.0117,0 0.22266,0 0.375,0.1054687 -0.22265,0.058594 -0.30468,0.2578125 -0.30468,0.37500001 0,0.15234375 0.11718,0.2578125 0.28125,0.2578125 0.15234,0 0.38672,-0.12890625 0.38672,-0.42187501 0,-0.3867187 -0.44532,-0.5039062 -0.72657,-0.5039062 -0.35156,0 -0.63281,0.2226562 -0.78515,0.4921875 -0.11719,-0.2929688 -0.44532,-0.4921875 -0.83203,-0.4921875 -0.78516,0 -1.23047,0.85546871 -1.23047,1.06640621 0,0.0820313 0.10547,0.0820313 0.11718,0.0820313 0.0937,0 0.10547,-0.0234375 0.14063,-0.1171875 0.17578,-0.53906241 0.60937,-0.84374991 0.94922,-0.84374991 0.23437,0 0.42187,0.1289062 0.42187,0.46874991 0,0.12890625 -0.082,0.48046875 -0.15234,0.71484375 z m 0,0"
           style="fill:#000000;fill-opacity:1;fill-rule:nonzero;stroke:none" /></g></g></g></svg>
