<?xml version="1.0" encoding="UTF-8" standalone="no"?>
<!-- Created with Inkscape (http://www.inkscape.org/) -->

<svg
   width="116.48591mm"
   height="53.983974mm"
   viewBox="0 0 116.48591 53.983974"
   version="1.1"
   id="svg1"
   xml:space="preserve"
   xmlns="http://www.w3.org/2000/svg"
   xmlns:svg="http://www.w3.org/2000/svg"><defs
     id="defs1"><clipPath
       clipPathUnits="userSpaceOnUse"
       id="clipPath70"><path
         d="M -24.61197,-10.43784 H 270.7168 v 125.2479 H -24.61197 Z"
         transform="translate(-2.5000001e-6)"
         id="path70" /></clipPath></defs><g
     id="g1"
     transform="matrix(0.26458333,0,0,0.26458333,-53.631868,-110.11454)"><g
       id="g144"><g
         id="g145"><rect
           style="opacity:1;fill:#fffe00;fill-opacity:0.410448;stroke:#000000;stroke-width:0.267999;stroke-dasharray:none;stroke-opacity:1"
           id="rect123"
           width="13.02304"
           height="30.78339"
           x="329.89893"
           y="119.90388"
           transform="matrix(3.7795276,0,0,3.7795275,-831.49611,0)" /><g
           transform="matrix(3.7795276,0,0,3.7795275,354.6887,441.63344)"
           id="g142"><g
   fill="#000000"
   fill-opacity="1"
   id="g124"
   transform="matrix(0.352778,0,0,0.352778,-0.99523,-0.705996)">
    <g
   id="g123"
   transform="translate(1.993,7.9699998)">
      <path
   d="m 2.65625,1.984375 c 0.0625,0 0.15625,0 0.15625,-0.09375 0,-0.03125 0,-0.03125 -0.109375,-0.140625 -1.09375,-1.03125 -1.359375,-2.5 -1.359375,-3.734375 0,-2.296875 0.9375,-3.375 1.34375,-3.75 0.125,-0.09375 0.125,-0.109375 0.125,-0.140625 0,-0.046875 -0.03125,-0.09375 -0.109375,-0.09375 -0.125,0 -0.53125,0.40625 -0.59375,0.46875 -1.0625,1.125 -1.28125,2.546875 -1.28125,3.515625 0,1.78125 0.734375,3.21875 1.828125,3.96875 z m 0,0"
   id="path123" />
    </g>
  </g>
  <g
   fill="#000000"
   fill-opacity="1"
   id="g126"
   transform="matrix(0.352778,0,0,0.352778,-0.99523,-0.705996)">
    <g
   id="g125"
   transform="translate(5.2862449,7.9699998)">
      <path
   d="m 5.5625,-1.8125 c 0.140625,0 0.3125,0 0.3125,-0.171875 0,-0.1875 -0.171875,-0.1875 -0.3125,-0.1875 H 1 c -0.125,0 -0.296875,0 -0.296875,0.1875 C 0.703125,-1.8125 0.875,-1.8125 1,-1.8125 Z m 0,0"
   id="path124" />
    </g>
  </g>
  <g
   fill="#000000"
   fill-opacity="1"
   id="g128"
   transform="matrix(0.352778,0,0,0.352778,-0.99523,-0.705996)">
    <g
   id="g127"
   transform="translate(11.872736,7.9699998)">
      <path
   d="m 5.734375,-1.3125 h -0.25 c -0.015625,0.078125 -0.109375,0.484375 -0.15625,0.625 -0.046875,0.078125 -0.0625,0.140625 -0.53125,0.140625 h -0.65625 c 0.140625,-0.46875 0.375,-0.8125 0.734375,-1.3125 0.359375,-0.5 0.765625,-1.078125 0.765625,-1.765625 0,-1.078125 -1.125,-1.984375 -2.59375,-1.984375 -1.46875,0 -2.578125,0.90625 -2.578125,1.984375 0,0.703125 0.390625,1.25 0.828125,1.859375 0.28125,0.40625 0.53125,0.765625 0.65625,1.21875 H 1.3125 c -0.46875,0 -0.484375,-0.0625 -0.53125,-0.140625 C 0.71875,-0.828125 0.640625,-1.234375 0.625,-1.3125 H 0.375 L 0.65625,0 H 2.015625 C 2.1875,0 2.234375,0 2.234375,-0.171875 2.234375,-0.75 1.953125,-1.4375 1.75,-1.921875 1.53125,-2.46875 1.296875,-3.046875 1.296875,-3.625 c 0,-1.1875 0.90625,-1.765625 1.75,-1.765625 0.859375,0 1.765625,0.59375 1.765625,1.765625 0,0.578125 -0.234375,1.125 -0.4375,1.609375 C 4.140625,-1.421875 3.859375,-0.75 3.859375,-0.1875 3.859375,0 3.90625,0 4.09375,0 h 1.359375 z m 0,0"
   id="path126" />
    </g>
  </g>
  <g
   fill="#000000"
   fill-opacity="1"
   id="g130"
   transform="matrix(0.352778,0,0,0.352778,-0.99523,-0.705996)">
    <g
   id="g129"
   transform="translate(17.988991,7.9699998)">
      <path
   d="M 3.703125,-5.640625 C 3.75,-5.75 3.75,-5.765625 3.75,-5.796875 c 0,-0.09375 -0.078125,-0.171875 -0.1875,-0.171875 -0.125,0 -0.15625,0.09375 -0.1875,0.171875 L 0.515625,1.65625 C 0.46875,1.765625 0.46875,1.78125 0.46875,1.8125 c 0,0.09375 0.078125,0.171875 0.1875,0.171875 0.125,0 0.15625,-0.09375 0.1875,-0.171875 z m 0,0"
   id="path128" />
    </g>
  </g>
  <g
   fill="#000000"
   fill-opacity="1"
   id="g132"
   transform="matrix(0.352778,0,0,0.352778,-0.99523,-0.705996)">
    <g
   id="g131"
   transform="translate(22.223505,7.9699998)">
      <path
   d="m 2.25,-1.625 c 0.125,-0.125 0.453125,-0.390625 0.59375,-0.5 0.484375,-0.453125 0.953125,-0.890625 0.953125,-1.609375 0,-0.953125 -0.796875,-1.5625 -1.78125,-1.5625 -0.96875,0 -1.59375,0.71875 -1.59375,1.4375 0,0.390625 0.3125,0.4375 0.421875,0.4375 0.171875,0 0.421875,-0.109375 0.421875,-0.421875 0,-0.40625 -0.40625,-0.40625 -0.5,-0.40625 C 1,-4.84375 1.53125,-5.03125 1.921875,-5.03125 c 0.734375,0 1.125,0.625 1.125,1.296875 0,0.828125 -0.578125,1.4375 -1.53125,2.390625 l -1,1.046875 C 0.421875,-0.21875 0.421875,-0.203125 0.421875,0 H 3.5625 l 0.234375,-1.421875 h -0.25 C 3.53125,-1.265625 3.46875,-0.875 3.375,-0.71875 c -0.046875,0.0625 -0.65625,0.0625 -0.78125,0.0625 H 1.171875 Z m 0,0"
   id="path130" />
    </g>
  </g>
  <g
   fill="#000000"
   fill-opacity="1"
   id="g134"
   transform="matrix(0.352778,0,0,0.352778,-0.99523,-0.705996)">
    <g
   id="g133"
   transform="translate(26.458019,7.9699998)">
      <path
   d="m 1.484375,-0.125 c 0,0.515625 -0.109375,0.984375 -0.59375,1.46875 C 0.859375,1.375 0.84375,1.390625 0.84375,1.421875 c 0,0.0625 0.0625,0.109375 0.109375,0.109375 0.09375,0 0.765625,-0.625 0.765625,-1.5625 0,-0.5 -0.203125,-0.859375 -0.546875,-0.859375 -0.28125,0 -0.4375,0.234375 -0.4375,0.4375 C 0.734375,-0.21875 0.890625,0 1.171875,0 1.375,0 1.484375,-0.109375 1.484375,-0.125 Z m 0,0"
   id="path132" />
    </g>
  </g>
  <g
   fill="#000000"
   fill-opacity="1"
   id="g136"
   transform="matrix(0.352778,0,0,0.352778,-0.99523,-0.705996)">
    <g
   id="g135"
   transform="translate(30.220703,7.9699998)">
      <path
   d="m 5.734375,-1.3125 h -0.25 c -0.015625,0.078125 -0.109375,0.484375 -0.15625,0.625 -0.046875,0.078125 -0.0625,0.140625 -0.53125,0.140625 h -0.65625 c 0.140625,-0.46875 0.375,-0.8125 0.734375,-1.3125 0.359375,-0.5 0.765625,-1.078125 0.765625,-1.765625 0,-1.078125 -1.125,-1.984375 -2.59375,-1.984375 -1.46875,0 -2.578125,0.90625 -2.578125,1.984375 0,0.703125 0.390625,1.25 0.828125,1.859375 0.28125,0.40625 0.53125,0.765625 0.65625,1.21875 H 1.3125 c -0.46875,0 -0.484375,-0.0625 -0.53125,-0.140625 C 0.71875,-0.828125 0.640625,-1.234375 0.625,-1.3125 H 0.375 L 0.65625,0 H 2.015625 C 2.1875,0 2.234375,0 2.234375,-0.171875 2.234375,-0.75 1.953125,-1.4375 1.75,-1.921875 1.53125,-2.46875 1.296875,-3.046875 1.296875,-3.625 c 0,-1.1875 0.90625,-1.765625 1.75,-1.765625 0.859375,0 1.765625,0.59375 1.765625,1.765625 0,0.578125 -0.234375,1.125 -0.4375,1.609375 C 4.140625,-1.421875 3.859375,-0.75 3.859375,-0.1875 3.859375,0 3.90625,0 4.09375,0 h 1.359375 z m 0,0"
   id="path134" />
    </g>
  </g>
  <g
   fill="#000000"
   fill-opacity="1"
   id="g138"
   transform="matrix(0.352778,0,0,0.352778,-0.99523,-0.705996)">
    <g
   id="g137"
   transform="translate(36.33696,7.9699998)">
      <path
   d="M 3.703125,-5.640625 C 3.75,-5.75 3.75,-5.765625 3.75,-5.796875 c 0,-0.09375 -0.078125,-0.171875 -0.1875,-0.171875 -0.125,0 -0.15625,0.09375 -0.1875,0.171875 L 0.515625,1.65625 C 0.46875,1.765625 0.46875,1.78125 0.46875,1.8125 c 0,0.09375 0.078125,0.171875 0.1875,0.171875 0.125,0 0.15625,-0.09375 0.1875,-0.171875 z m 0,0"
   id="path136" />
    </g>
  </g>
  <g
   fill="#000000"
   fill-opacity="1"
   id="g141"
   transform="matrix(0.352778,0,0,0.352778,-0.99523,-0.705996)">
    <g
   id="g139"
   transform="translate(40.571472,7.9699998)">
      <path
   d="m 2.25,-1.625 c 0.125,-0.125 0.453125,-0.390625 0.59375,-0.5 0.484375,-0.453125 0.953125,-0.890625 0.953125,-1.609375 0,-0.953125 -0.796875,-1.5625 -1.78125,-1.5625 -0.96875,0 -1.59375,0.71875 -1.59375,1.4375 0,0.390625 0.3125,0.4375 0.421875,0.4375 0.171875,0 0.421875,-0.109375 0.421875,-0.421875 0,-0.40625 -0.40625,-0.40625 -0.5,-0.40625 C 1,-4.84375 1.53125,-5.03125 1.921875,-5.03125 c 0.734375,0 1.125,0.625 1.125,1.296875 0,0.828125 -0.578125,1.4375 -1.53125,2.390625 l -1,1.046875 C 0.421875,-0.21875 0.421875,-0.203125 0.421875,0 H 3.5625 l 0.234375,-1.421875 h -0.25 C 3.53125,-1.265625 3.46875,-0.875 3.375,-0.71875 c -0.046875,0.0625 -0.65625,0.0625 -0.78125,0.0625 H 1.171875 Z m 0,0"
   id="path138" />
    </g>
    <g
   id="g140"
   transform="translate(44.805984,7.9699998)">
      <path
   d="m 2.46875,-1.984375 c 0,-0.765625 -0.140625,-1.671875 -0.625,-2.609375 -0.390625,-0.734375 -1.125,-1.375 -1.265625,-1.375 -0.078125,0 -0.09375,0.046875 -0.09375,0.09375 0,0.03125 0,0.046875 0.09375,0.140625 1.109375,1.0625 1.359375,2.515625 1.359375,3.75 C 1.9375,0.296875 1,1.375 0.59375,1.75 0.484375,1.84375 0.484375,1.859375 0.484375,1.890625 c 0,0.046875 0.015625,0.09375 0.09375,0.09375 0.125,0 0.53125,-0.40625 0.59375,-0.46875 1.0625,-1.125 1.296875,-2.546875 1.296875,-3.5 z m 0,0"
   id="path139" />
    </g>
  </g>
</g><path
           id="path51"
           d="m 243.09271,583.44379 v -166.9972 m 65.62792,166.9972 v -166.9972 m 65.62796,166.9972 v -166.9972 m 65.62796,166.9972 v -166.9972 m 65.62795,166.9972 v -166.9972 m 65.62795,166.9972 v -166.9972 m 65.62794,166.9972 v -166.9972"
           style="fill:none;stroke:#bfbfbf;stroke-width:0.531333;stroke-linecap:butt;stroke-linejoin:miter;stroke-miterlimit:10;stroke-dasharray:3.98511, 3.98511;stroke-dashoffset:0;stroke-opacity:1" /><path
           id="path52"
           d="M 243.09071,569.52667 H 636.86239 M 243.09071,499.94519 H 636.86239 M 243.09071,430.36371 h 393.77168"
           style="fill:none;stroke:#bfbfbf;stroke-width:0.531333;stroke-linecap:butt;stroke-linejoin:miter;stroke-miterlimit:10;stroke-dasharray:3.98511, 3.98511;stroke-dashoffset:0;stroke-opacity:1" /><path
           id="path53"
           d="m 243.09271,583.44379 v -5.67019 m 65.62792,5.67019 v -5.67019 m 65.62796,5.67019 v -5.67019 m 65.62796,5.67019 v -5.67019 m 65.62795,5.67019 v -5.67019 m 65.62795,5.67019 v -5.67019 m 65.62794,5.67019 V 577.7736 M 243.09271,416.44659 v 5.67019 m 65.62792,-5.67019 v 5.67019 m 65.62796,-5.67019 v 5.67019 m 65.62796,-5.67019 v 5.67019 m 65.62795,-5.67019 v 5.67019 m 65.62795,-5.67019 v 5.67019 m 65.62794,-5.67019 v 5.67019"
           style="fill:none;stroke:#808080;stroke-width:0.265667;stroke-linecap:butt;stroke-linejoin:miter;stroke-miterlimit:10;stroke-dasharray:none;stroke-opacity:1" /><path
           id="path54"
           d="m 243.09071,569.52667 h 5.66916 m -5.66916,-69.58148 h 5.66916 m -5.66916,-69.58148 h 5.66916 m 388.10252,139.16296 h -5.66914 m 5.66914,-69.58148 h -5.66914 m 5.66914,-69.58148 h -5.66914"
           style="fill:none;stroke:#808080;stroke-width:0.265667;stroke-linecap:butt;stroke-linejoin:miter;stroke-miterlimit:10;stroke-dasharray:none;stroke-opacity:1" /><path
           id="path55"
           d="m 243.09071,583.44379 v -166.9972 h 393.77168 v 166.9972 z"
           style="fill:none;stroke:#000000;stroke-width:0.531333;stroke-linecap:butt;stroke-linejoin:miter;stroke-miterlimit:10;stroke-dasharray:none;stroke-opacity:1" /><g
           id="g55"
           aria-label="−60"
           transform="matrix(1.3333333,0,0,1.3333333,231.28533,596.69733)"><path
             id="path56"
             d="m 6.5623672,-2.2954609 c 0.1757812,0 0.3515625,0 0.3515625,-0.1992188 0,-0.1992187 -0.1757813,-0.1992187 -0.3515625,-0.1992187 h -5.390625 c -0.1640625,0 -0.33984376,0 -0.33984376,0.1992187 0,0.1992188 0.17578126,0.1992188 0.33984376,0.1992188 z m 0,0"
             style="fill:#000000;fill-opacity:1;fill-rule:nonzero;stroke:none" /><path
             id="path57"
             d="m 9.0613906,-3.2681172 v -0.234375 c 0,-2.5195312 1.2421874,-2.8828125 1.7460934,-2.8828125 0.234375,0 0.65625,0.058594 0.878907,0.3984375 -0.152344,0 -0.550782,0 -0.550782,0.4453125 0,0.3164063 0.234375,0.4570313 0.457032,0.4570313 0.164062,0 0.457031,-0.082031 0.457031,-0.46875 0,-0.5976563 -0.433594,-1.078125 -1.265625,-1.078125 -1.2773439,0 -2.6132814,1.2890625 -2.6132814,3.4804687 0,2.66015626 1.1484375,3.37500001 2.0742184,3.37500001 1.113282,0 2.050782,-0.9375 2.050782,-2.25000001 0,-1.265625 -0.878907,-2.2265625 -1.992188,-2.2265625 -0.6679686,0 -1.0429686,0.5039063 -1.2421874,0.984375 z m 1.1835934,3.21093751 c -0.6210934,0 -0.9257809,-0.59765625 -0.9843746,-0.75 C 9.0848281,-1.2759297 9.0848281,-2.0728047 9.0848281,-2.2485859 c 0,-0.7734375 0.3164063,-1.7695313 1.2187499,-1.7695313 0.152344,0 0.609375,0 0.925781,0.609375 0.175782,0.375 0.175782,0.8789063 0.175782,1.3710938 0,0.4804687 0,0.9726562 -0.164063,1.33593746 -0.304687,0.59765625 -0.761719,0.64453125 -0.996094,0.64453125 z m 7.066407,-3.12890621 c 0,-0.796875 -0.04687,-1.59375 -0.398438,-2.3320313 -0.457031,-0.9609375 -1.277344,-1.1132812 -1.6875,-1.1132812 -0.597656,0 -1.335937,0.2578125 -1.734375,1.1835937 -0.328125,0.6914063 -0.375,1.4648438 -0.375,2.2617188 0,0.75 0.04687,1.640625 0.445313,2.40234371 0.433593,0.80859375 1.160156,1.0078125 1.652343,1.0078125 0.539063,0 1.289063,-0.2109375 1.734375,-1.16015625 0.316407,-0.69140626 0.363282,-1.46484376 0.363282,-2.24999996 z m -2.097657,3.18749996 c -0.386718,0 -0.984375,-0.24609375 -1.160156,-1.20703126 -0.105469,-0.5976562 -0.105469,-1.5117187 -0.105469,-2.0976562 0,-0.6445313 0,-1.3007813 0.08203,-1.8398438 0.1875,-1.1835937 0.925781,-1.265625 1.183593,-1.265625 0.328125,0 0.984375,0.1757813 1.171875,1.1601563 0.09375,0.5625 0.09375,1.3125 0.09375,1.9453125 0,0.75 0,1.4179687 -0.105468,2.0625 -0.152344,0.93749996 -0.714844,1.24218746 -1.160157,1.24218746 z m 0,0"
             style="fill:#000000;fill-opacity:1;fill-rule:nonzero;stroke:none" /></g><g
           id="g57"
           aria-label="−40"
           transform="matrix(1.3333333,0,0,1.3333333,296.912,596.69733)"><path
             id="path58"
             d="m 6.5611172,-2.2954609 c 0.1757812,0 0.3515625,0 0.3515625,-0.1992188 0,-0.1992187 -0.1757813,-0.1992187 -0.3515625,-0.1992187 h -5.390625 c -0.1640625,0 -0.33984376,0 -0.33984376,0.1992187 0,0.1992188 0.17578126,0.1992188 0.33984376,0.1992188 z m 0,0"
             style="fill:#000000;fill-opacity:1;fill-rule:nonzero;stroke:none" /><path
             id="path59"
             d="m 10.677328,-1.6392109 v 0.86718746 c 0,0.3515625 -0.02344,0.46875 -0.7617186,0.46875 H 9.7046719 v 0.3046875 c 0.4101561,-0.03515625 0.9375001,-0.03515625 1.3476561,-0.03515625 0.421875,0 0.949219,0 1.359375,0.03515625 v -0.3046875 h -0.210937 c -0.738282,0 -0.761719,-0.1171875 -0.761719,-0.46875 V -1.6392109 h 0.996094 v -0.3164063 h -0.996094 v -4.5234375 c 0,-0.1992187 0,-0.2578125 -0.152344,-0.2578125 -0.09375,0 -0.117187,0 -0.199219,0.1171875 l -3.0585934,4.6640625 v 0.3164063 z m 0.05859,-0.3164063 H 8.3101406 l 2.4257814,-3.7148437 z m 6.577148,-1.2304687 c 0,-0.796875 -0.04687,-1.59375 -0.398437,-2.3320313 -0.457031,-0.9609375 -1.277344,-1.1132812 -1.6875,-1.1132812 -0.597656,0 -1.335938,0.2578125 -1.734375,1.1835937 -0.328125,0.6914063 -0.375,1.4648438 -0.375,2.2617188 0,0.75 0.04687,1.640625 0.445312,2.40234371 0.433594,0.80859375 1.160157,1.0078125 1.652344,1.0078125 0.539063,0 1.289063,-0.2109375 1.734375,-1.16015625 0.316406,-0.69140626 0.363281,-1.46484376 0.363281,-2.24999996 z M 15.21541,0.00141406 c -0.386719,0 -0.984375,-0.24609375 -1.160156,-1.20703126 -0.105469,-0.5976562 -0.105469,-1.5117187 -0.105469,-2.0976562 0,-0.6445313 0,-1.3007813 0.08203,-1.8398438 0.1875,-1.1835937 0.925782,-1.265625 1.183594,-1.265625 0.328125,0 0.984375,0.1757813 1.171875,1.1601563 0.09375,0.5625 0.09375,1.3125 0.09375,1.9453125 0,0.75 0,1.4179687 -0.105469,2.0625 -0.152343,0.93749996 -0.714843,1.24218746 -1.160155,1.24218746 z m 0,0"
             style="fill:#000000;fill-opacity:1;fill-rule:nonzero;stroke:none" /></g><g
           id="g59"
           aria-label="−20"
           transform="matrix(1.3333333,0,0,1.3333333,362.54,596.69733)"><path
             id="path60"
             d="m 6.5617969,-2.2954609 c 0.1757812,0 0.3515625,0 0.3515625,-0.1992188 0,-0.1992187 -0.1757813,-0.1992187 -0.3515625,-0.1992187 h -5.390625 c -0.1640625,0 -0.33984377,0 -0.33984377,0.1992187 0,0.1992188 0.17578127,0.1992188 0.33984377,0.1992188 z m 0,0"
             style="fill:#000000;fill-opacity:1;fill-rule:nonzero;stroke:none" /><path
             id="path61"
             d="M 9.0139453,-0.76030469 10.068633,-1.7915547 c 1.558594,-1.3710937 2.15625,-1.9101562 2.15625,-2.90625 0,-1.1367187 -0.902344,-1.9335937 -2.121094,-1.9335937 -1.1249999,0 -1.8515624,0.9140625 -1.8515624,1.8046875 0,0.5507812 0.4921875,0.5507812 0.5273437,0.5507812 0.1640625,0 0.515625,-0.1171875 0.515625,-0.5273437 0,-0.2578125 -0.1875,-0.515625 -0.5273437,-0.515625 -0.082031,0 -0.1054688,0 -0.1289063,0.011719 0.2226563,-0.6445312 0.7617188,-1.0195312 1.3359375,-1.0195312 0.9140622,0 1.3359372,0.8085937 1.3359372,1.6289062 0,0.796875 -0.492187,1.5820313 -1.042968,2.203125 L 8.3576953,-0.36186719 C 8.2522266,-0.25639844 8.2522266,-0.23296094 8.2522266,0.00141406 h 3.6914064 l 0.28125,-1.73437496 H 11.96707 c -0.04687,0.3046875 -0.117187,0.73828121 -0.210937,0.89062496 -0.07031,0.0820313 -0.726563,0.0820313 -0.949219,0.0820313 z M 17.31082,-3.1860859 c 0,-0.796875 -0.04687,-1.59375 -0.398437,-2.3320313 -0.457031,-0.9609375 -1.277344,-1.1132812 -1.6875,-1.1132812 -0.597656,0 -1.335938,0.2578125 -1.734375,1.1835937 -0.328125,0.6914063 -0.375,1.4648438 -0.375,2.2617188 0,0.75 0.04687,1.640625 0.445312,2.40234371 0.433594,0.80859375 1.160157,1.0078125 1.652344,1.0078125 0.539063,0 1.289063,-0.2109375 1.734375,-1.16015625 0.316406,-0.69140626 0.363281,-1.46484376 0.363281,-2.24999996 z m -2.097656,3.18749996 c -0.386719,0 -0.984375,-0.24609375 -1.160156,-1.20703126 -0.105469,-0.5976562 -0.105469,-1.5117187 -0.105469,-2.0976562 0,-0.6445313 0,-1.3007813 0.08203,-1.8398438 0.1875,-1.1835937 0.925782,-1.265625 1.183594,-1.265625 0.328125,0 0.984375,0.1757813 1.171875,1.1601563 0.09375,0.5625 0.09375,1.3125 0.09375,1.9453125 0,0.75 0,1.4179687 -0.105469,2.0625 -0.152343,0.93749996 -0.714843,1.24218746 -1.160156,1.24218746 z m 0,0"
             style="fill:#000000;fill-opacity:1;fill-rule:nonzero;stroke:none" /></g><path
           id="path62"
           d="m 442.76172,592.44922 c 0,-1.0625 -0.0625,-2.125 -0.53125,-3.10938 -0.60938,-1.28125 -1.70313,-1.48437 -2.25,-1.48437 -0.79688,0 -1.78125,0.34375 -2.3125,1.57812 -0.4375,0.92188 -0.5,1.95313 -0.5,3.01563 0,1 0.0625,2.1875 0.59375,3.20312 0.57812,1.07812 1.54687,1.34375 2.20312,1.34375 0.71875,0 1.71875,-0.28125 2.3125,-1.54688 0.42188,-0.92187 0.48438,-1.95312 0.48438,-2.99999 z m -2.79688,4.24999 c -0.51562,0 -1.3125,-0.32812 -1.54687,-1.60937 -0.14063,-0.79687 -0.14063,-2.01562 -0.14063,-2.79687 0,-0.85938 0,-1.73438 0.10938,-2.45313 0.25,-1.57812 1.23437,-1.6875 1.57812,-1.6875 0.4375,0 1.3125,0.23438 1.5625,1.54688 0.125,0.75 0.125,1.75 0.125,2.59375 0,1 0,1.89062 -0.14063,2.75 -0.20312,1.24999 -0.95312,1.65624 -1.54687,1.65624 z m 0,0"
           style="fill:#000000;fill-opacity:1;fill-rule:nonzero;stroke:none;stroke-width:1.33333"
           aria-label="0" /><path
           id="path63"
           d="m 500.64844,595.68359 1.40625,-1.375 c 2.07812,-1.82812 2.875,-2.54687 2.875,-3.875 0,-1.51562 -1.20313,-2.57812 -2.82813,-2.57812 -1.5,0 -2.46875,1.21875 -2.46875,2.40625 0,0.73437 0.65625,0.73437 0.70313,0.73437 0.21875,0 0.6875,-0.15625 0.6875,-0.70312 0,-0.34375 -0.25,-0.6875 -0.70313,-0.6875 -0.10937,0 -0.14062,0 -0.17187,0.0156 0.29687,-0.85937 1.01562,-1.35937 1.78125,-1.35937 1.21875,0 1.78125,1.07812 1.78125,2.17187 0,1.0625 -0.65625,2.10938 -1.39063,2.9375 l -2.54687,2.84375 c -0.14063,0.14062 -0.14063,0.17187 -0.14063,0.48437 h 4.92188 l 0.375,-2.31249 h -0.34375 c -0.0625,0.40625 -0.15625,0.98437 -0.28125,1.18749 -0.0937,0.10938 -0.96875,0.10938 -1.26563,0.10938 z m 11.0625,-3.23437 c 0,-1.0625 -0.0625,-2.125 -0.53125,-3.10938 -0.60938,-1.28125 -1.70313,-1.48437 -2.25,-1.48437 -0.79688,0 -1.78125,0.34375 -2.3125,1.57812 -0.4375,0.92188 -0.5,1.95313 -0.5,3.01563 0,1 0.0625,2.1875 0.59375,3.20312 0.57812,1.07812 1.54687,1.34375 2.20312,1.34375 0.71875,0 1.71875,-0.28125 2.3125,-1.54688 0.42188,-0.92187 0.48438,-1.95312 0.48438,-2.99999 z m -2.79688,4.24999 c -0.51562,0 -1.3125,-0.32812 -1.54687,-1.60937 -0.14063,-0.79687 -0.14063,-2.01562 -0.14063,-2.79687 0,-0.85938 0,-1.73438 0.10938,-2.45313 0.25,-1.57812 1.23437,-1.6875 1.57812,-1.6875 0.4375,0 1.3125,0.23438 1.5625,1.54688 0.125,0.75 0.125,1.75 0.125,2.59375 0,1 0,1.89062 -0.14062,2.75 -0.20313,1.24999 -0.95313,1.65624 -1.54688,1.65624 z m 0,0"
           style="fill:#000000;fill-opacity:1;fill-rule:nonzero;stroke:none;stroke-width:1.33333"
           aria-label="20" /><path
           id="path64"
           d="m 568.49219,594.51172 v 1.15624 c 0,0.46875 -0.0312,0.625 -1.01562,0.625 h -0.28125 v 0.40625 c 0.54687,-0.0469 1.25,-0.0469 1.79687,-0.0469 0.5625,0 1.26563,0 1.8125,0.0469 v -0.40625 h -0.28125 c -0.98437,0 -1.01562,-0.15625 -1.01562,-0.625 v -1.15624 h 1.32812 v -0.42188 h -1.32812 v -6.03125 c 0,-0.26562 0,-0.34375 -0.20313,-0.34375 -0.125,0 -0.15625,0 -0.26562,0.15625 l -4.07813,6.21875 v 0.42188 z m 0.0781,-0.42188 h -3.23438 l 3.23438,-4.95312 z m 8.76562,-1.64062 c 0,-1.0625 -0.0625,-2.125 -0.53125,-3.10938 -0.60937,-1.28125 -1.70312,-1.48437 -2.25,-1.48437 -0.79687,0 -1.78125,0.34375 -2.3125,1.57812 -0.4375,0.92188 -0.5,1.95313 -0.5,3.01563 0,1 0.0625,2.1875 0.59375,3.20312 0.57813,1.07812 1.54688,1.34375 2.20313,1.34375 0.71875,0 1.71875,-0.28125 2.3125,-1.54688 0.42187,-0.92187 0.48437,-1.95312 0.48437,-2.99999 z m -2.79687,4.24999 c -0.51563,0 -1.3125,-0.32812 -1.54688,-1.60937 -0.14062,-0.79687 -0.14062,-2.01562 -0.14062,-2.79687 0,-0.85938 0,-1.73438 0.10937,-2.45313 0.25,-1.57812 1.23438,-1.6875 1.57813,-1.6875 0.4375,0 1.3125,0.23438 1.5625,1.54688 0.125,0.75 0.125,1.75 0.125,2.59375 0,1 0,1.89062 -0.14063,2.75 -0.20312,1.24999 -0.95312,1.65624 -1.54687,1.65624 z m 0,0"
           style="fill:#000000;fill-opacity:1;fill-rule:nonzero;stroke:none;stroke-width:1.33333"
           aria-label="40" /><path
           id="path65"
           d="m 631.96484,592.33984 v -0.3125 c 0,-3.35937 1.65625,-3.84375 2.32813,-3.84375 0.3125,0 0.875,0.0781 1.17187,0.53125 -0.20312,0 -0.73437,0 -0.73437,0.59375 0,0.42188 0.3125,0.60938 0.60937,0.60938 0.21875,0 0.60938,-0.10938 0.60938,-0.625 0,-0.79688 -0.57813,-1.4375 -1.6875,-1.4375 -1.70313,0 -3.48438,1.71875 -3.48438,4.64062 0,3.54687 1.53125,4.5 2.76563,4.5 1.48437,0 2.73437,-1.25 2.73437,-3 0,-1.6875 -1.17187,-2.96875 -2.65625,-2.96875 -0.89062,0 -1.39062,0.67188 -1.65625,1.3125 z m 1.57813,4.28125 c -0.82813,0 -1.23438,-0.79688 -1.3125,-1 -0.23438,-0.625 -0.23438,-1.6875 -0.23438,-1.92187 0,-1.03125 0.42188,-2.35938 1.625,-2.35938 0.20313,0 0.8125,0 1.23438,0.8125 0.23437,0.5 0.23437,1.17188 0.23437,1.82813 0,0.64062 0,1.29687 -0.21875,1.78124 -0.40625,0.79688 -1.01562,0.85938 -1.32812,0.85938 z m 9.42187,-4.17187 c 0,-1.0625 -0.0625,-2.125 -0.53125,-3.10938 -0.60937,-1.28125 -1.70312,-1.48437 -2.25,-1.48437 -0.79687,0 -1.78125,0.34375 -2.3125,1.57812 -0.4375,0.92188 -0.5,1.95313 -0.5,3.01563 0,1 0.0625,2.1875 0.59375,3.20312 0.57813,1.07812 1.54688,1.34375 2.20313,1.34375 0.71875,0 1.71875,-0.28125 2.3125,-1.54688 0.42187,-0.92187 0.48437,-1.95312 0.48437,-2.99999 z m -2.79687,4.24999 c -0.51563,0 -1.3125,-0.32812 -1.54688,-1.60937 -0.14062,-0.79687 -0.14062,-2.01562 -0.14062,-2.79687 0,-0.85938 0,-1.73438 0.10937,-2.45313 0.25,-1.57812 1.23437,-1.6875 1.57812,-1.6875 0.4375,0 1.3125,0.23438 1.5625,1.54688 0.125,0.75 0.125,1.75 0.125,2.59375 0,1 0,1.89062 -0.14062,2.75 -0.20313,1.24999 -0.95313,1.65624 -1.54687,1.65624 z m 0,0"
           style="fill:#000000;fill-opacity:1;fill-rule:nonzero;stroke:none;stroke-width:1.33333"
           aria-label="60" /><path
           id="path66"
           d="m 237.86719,569.55859 c 0,-1.0625 -0.0625,-2.125 -0.53125,-3.10937 -0.60938,-1.28125 -1.70313,-1.48438 -2.25,-1.48438 -0.79688,0 -1.78125,0.34375 -2.3125,1.57813 -0.4375,0.92187 -0.5,1.95312 -0.5,3.01562 0,1 0.0625,2.1875 0.59375,3.20313 0.57812,1.07812 1.54687,1.34375 2.20312,1.34375 0.71875,0 1.71875,-0.28125 2.3125,-1.54688 0.42188,-0.92187 0.48438,-1.95312 0.48438,-3 z m -2.79688,4.25 c -0.51562,0 -1.3125,-0.32812 -1.54687,-1.60937 -0.14063,-0.79688 -0.14063,-2.01563 -0.14063,-2.79688 0,-0.85937 0,-1.73437 0.10938,-2.45312 0.25,-1.57813 1.23437,-1.6875 1.57812,-1.6875 0.4375,0 1.3125,0.23437 1.5625,1.54687 0.125,0.75 0.125,1.75 0.125,2.59375 0,1 0,1.89063 -0.14062,2.75 -0.20313,1.25 -0.95313,1.65625 -1.54688,1.65625 z m 0,0"
           style="fill:#000000;fill-opacity:1;fill-rule:nonzero;stroke:none;stroke-width:1.33333"
           aria-label="0" /><path
           id="path67"
           d="m 237.72656,501.55469 c 0,-1.57812 -1.09375,-2.90625 -2.53125,-2.90625 -0.64062,0 -1.20312,0.21875 -1.6875,0.67188 v -2.57813 c 0.26563,0.0781 0.70313,0.17188 1.125,0.17188 1.64063,0 2.57813,-1.21875 2.57813,-1.39063 0,-0.0781 -0.0469,-0.14062 -0.14063,-0.14062 -0.0156,0 -0.0469,0 -0.10937,0.0312 -0.26563,0.125 -0.90625,0.39063 -1.79688,0.39063 -0.53125,0 -1.14062,-0.0937 -1.76562,-0.375 -0.10938,-0.0312 -0.14063,-0.0312 -0.17188,-0.0312 -0.125,0 -0.125,0.10938 -0.125,0.3125 v 3.9375 c 0,0.23438 0,0.34375 0.1875,0.34375 0.0937,0 0.10938,-0.0469 0.17188,-0.125 0.14062,-0.20312 0.64062,-0.92187 1.70312,-0.92187 0.70313,0 1.03125,0.60937 1.14063,0.84375 0.20312,0.5 0.23437,1.01562 0.23437,1.67187 0,0.46875 0,1.26563 -0.3125,1.82813 -0.32812,0.51562 -0.8125,0.85937 -1.42187,0.85937 -0.96875,0 -1.73438,-0.70312 -1.95313,-1.48437 0.0312,0.0156 0.0781,0.0156 0.21875,0.0156 0.4375,0 0.67188,-0.32812 0.67188,-0.64062 0,-0.32813 -0.23438,-0.65625 -0.67188,-0.65625 -0.1875,0 -0.64062,0.0937 -0.64062,0.70312 0,1.14063 0.90625,2.4375 2.39062,2.4375 1.54688,0 2.90625,-1.28125 2.90625,-2.96875 z m 0,0"
           style="fill:#000000;fill-opacity:1;fill-rule:nonzero;stroke:none;stroke-width:1.33333"
           aria-label="5" /><path
           id="path68"
           d="m 229.01953,426.14844 c 0,-0.3125 0,-0.34375 -0.3125,-0.34375 -0.8125,0.84375 -1.98437,0.84375 -2.40625,0.84375 v 0.42188 c 0.26563,0 1.04688,0 1.73438,-0.34375 v 6.875 c 0,0.46875 -0.0469,0.64062 -1.23438,0.64062 h -0.42187 v 0.40625 c 0.46875,-0.0469 1.60937,-0.0469 2.14062,-0.0469 0.53125,0 1.6875,0 2.15625,0.0469 v -0.40625 h -0.42187 c -1.20313,0 -1.23438,-0.15625 -1.23438,-0.64062 z m 8.84766,4.25 c 0,-1.0625 -0.0625,-2.125 -0.53125,-3.10937 -0.60937,-1.28125 -1.70312,-1.48438 -2.25,-1.48438 -0.79687,0 -1.78125,0.34375 -2.3125,1.57813 -0.4375,0.92187 -0.5,1.95312 -0.5,3.01562 0,1 0.0625,2.1875 0.59375,3.20313 0.57813,1.07812 1.54688,1.34375 2.20313,1.34375 0.71875,0 1.71875,-0.28125 2.3125,-1.54688 0.42187,-0.92187 0.48437,-1.95312 0.48437,-3 z m -2.79687,4.25 c -0.51563,0 -1.3125,-0.32812 -1.54688,-1.60937 -0.14062,-0.79688 -0.14062,-2.01563 -0.14062,-2.79688 0,-0.85937 0,-1.73437 0.10937,-2.45312 0.25,-1.57813 1.23438,-1.6875 1.57813,-1.6875 0.4375,0 1.3125,0.23437 1.5625,1.54687 0.125,0.75 0.125,1.75 0.125,2.59375 0,1 0,1.89063 -0.14063,2.75 -0.20312,1.25 -0.95312,1.65625 -1.54687,1.65625 z m 0,0"
           style="fill:#000000;fill-opacity:1;fill-rule:nonzero;stroke:none;stroke-width:1.33333"
           aria-label="10" /><path
           id="path69"
           d="M 0,0 V 78.27916 M 12.30524,0 V 0 M 24.61047,0 V 78.27916 M 36.91571,0 V 78.27916 M 49.22096,0 V 0 M 61.5262,0 V 78.27916 M 73.83144,0 V 78.27916 M 86.13669,0 V 0 M 98.44193,0 V 78.27916 M 123.05241,0 v 0 m 24.61048,0 V 78.27916 M 159.96812,0 v 0 m 12.30526,0 V 78.27916 M 184.57861,0 V 78.27916 M 196.88385,0 V 0 M 209.1891,0 V 78.27916 M 221.49434,0 V 78.27916 M 233.79958,0 v 0 m 12.30525,0 v 78.27916"
           style="fill:none;stroke:#0000ff;stroke-width:0.3985;stroke-linecap:butt;stroke-linejoin:miter;stroke-miterlimit:10;stroke-dasharray:none;stroke-opacity:1"
           transform="matrix(1.3333333,0,0,-1.3333333,275.90667,569.52667)"
           clip-path="url(#clipPath70)" /><path
           id="path71"
           d="m 278.5634,465.15446 c 0,-1.46728 -1.18945,-2.65673 -2.65673,-2.65673 -1.46728,0 -2.65673,1.18945 -2.65673,2.65673 0,1.46728 1.18945,2.65675 2.65673,2.65675 1.46728,0 2.65673,-1.18947 2.65673,-2.65675 z"
           style="fill:#0000cc;fill-opacity:1;fill-rule:nonzero;stroke:#0000ff;stroke-width:0.531333;stroke-linecap:butt;stroke-linejoin:miter;stroke-miterlimit:10;stroke-dasharray:none;stroke-opacity:1" /><path
           id="path72"
           d="m 294.97039,569.52667 c 0,-1.46728 -1.18945,-2.65673 -2.65673,-2.65673 -1.46731,0 -2.65675,1.18945 -2.65675,2.65673 0,1.46728 1.18944,2.65673 2.65675,2.65673 1.46728,0 2.65673,-1.18945 2.65673,-2.65673 z"
           style="fill:#0000cc;fill-opacity:1;fill-rule:nonzero;stroke:#0000ff;stroke-width:0.531333;stroke-linecap:butt;stroke-linejoin:miter;stroke-miterlimit:10;stroke-dasharray:none;stroke-opacity:1" /><path
           id="path73"
           d="m 311.37738,465.15446 c 0,-1.46728 -1.18944,-2.65673 -2.65675,-2.65673 -1.46728,0 -2.65673,1.18945 -2.65673,2.65673 0,1.46728 1.18945,2.65675 2.65673,2.65675 1.46731,0 2.65675,-1.18947 2.65675,-2.65675 z"
           style="fill:#0000cc;fill-opacity:1;fill-rule:nonzero;stroke:#0000ff;stroke-width:0.531333;stroke-linecap:butt;stroke-linejoin:miter;stroke-miterlimit:10;stroke-dasharray:none;stroke-opacity:1" /><path
           id="path74"
           d="m 327.78435,465.15446 c 0,-1.46728 -1.18943,-2.65673 -2.65673,-2.65673 -1.46728,0 -2.65674,1.18945 -2.65674,2.65673 0,1.46728 1.18946,2.65675 2.65674,2.65675 1.4673,0 2.65673,-1.18947 2.65673,-2.65675 z"
           style="fill:#0000cc;fill-opacity:1;fill-rule:nonzero;stroke:#0000ff;stroke-width:0.531333;stroke-linecap:butt;stroke-linejoin:miter;stroke-miterlimit:10;stroke-dasharray:none;stroke-opacity:1" /><path
           id="path75"
           d="m 344.19136,569.52667 c 0,-1.46728 -1.18945,-2.65673 -2.65674,-2.65673 -1.46731,0 -2.65674,1.18945 -2.65674,2.65673 0,1.46728 1.18943,2.65673 2.65674,2.65673 1.46729,0 2.65674,-1.18945 2.65674,-2.65673 z"
           style="fill:#0000cc;fill-opacity:1;fill-rule:nonzero;stroke:#0000ff;stroke-width:0.531333;stroke-linecap:butt;stroke-linejoin:miter;stroke-miterlimit:10;stroke-dasharray:none;stroke-opacity:1" /><path
           id="path76"
           d="m 360.59833,465.15446 c 0,-1.46728 -1.18945,-2.65673 -2.65673,-2.65673 -1.46728,0 -2.65673,1.18945 -2.65673,2.65673 0,1.46728 1.18945,2.65675 2.65673,2.65675 1.46728,0 2.65673,-1.18947 2.65673,-2.65675 z"
           style="fill:#0000cc;fill-opacity:1;fill-rule:nonzero;stroke:#0000ff;stroke-width:0.531333;stroke-linecap:butt;stroke-linejoin:miter;stroke-miterlimit:10;stroke-dasharray:none;stroke-opacity:1" /><path
           id="path77"
           d="m 377.00532,465.15446 c 0,-1.46728 -1.18943,-2.65673 -2.65673,-2.65673 -1.4673,0 -2.65675,1.18945 -2.65675,2.65673 0,1.46728 1.18945,2.65675 2.65675,2.65675 1.4673,0 2.65673,-1.18947 2.65673,-2.65675 z"
           style="fill:#0000cc;fill-opacity:1;fill-rule:nonzero;stroke:#0000ff;stroke-width:0.531333;stroke-linecap:butt;stroke-linejoin:miter;stroke-miterlimit:10;stroke-dasharray:none;stroke-opacity:1" /><path
           id="path78"
           d="m 393.41232,569.52667 c 0,-1.46728 -1.18945,-2.65673 -2.65673,-2.65673 -1.46731,0 -2.65675,1.18945 -2.65675,2.65673 0,1.46728 1.18944,2.65673 2.65675,2.65673 1.46728,0 2.65673,-1.18945 2.65673,-2.65673 z"
           style="fill:#ff1e00;fill-opacity:1;fill-rule:nonzero;stroke:#ff1e00;stroke-width:0.531333;stroke-linecap:butt;stroke-linejoin:miter;stroke-miterlimit:10;stroke-dasharray:none;stroke-opacity:1" /><path
           id="path79"
           d="m 409.81931,465.15446 c 0,-1.46728 -1.18946,-2.65673 -2.65674,-2.65673 -1.4673,0 -2.65674,1.18945 -2.65674,2.65673 0,1.46728 1.18944,2.65675 2.65674,2.65675 1.46728,0 2.65674,-1.18947 2.65674,-2.65675 z"
           style="fill:#0000cc;fill-opacity:1;fill-rule:nonzero;stroke:#0000ff;stroke-width:0.531333;stroke-linecap:butt;stroke-linejoin:miter;stroke-miterlimit:10;stroke-dasharray:none;stroke-opacity:1" /><path
           id="path80"
           d="m 426.22629,465.15446 c 0,-1.46728 -1.18944,-2.65673 -2.65674,-2.65673 -1.46728,0 -2.65674,1.18945 -2.65674,2.65673 0,1.46728 1.18946,2.65675 2.65674,2.65675 1.4673,0 2.65674,-1.18947 2.65674,-2.65675 z"
           style="fill:#ff1e00;fill-opacity:1;fill-rule:nonzero;stroke:#ff1e00;stroke-width:0.531333;stroke-linecap:butt;stroke-linejoin:miter;stroke-miterlimit:10;stroke-dasharray:none;stroke-opacity:1" /><path
           id="path81"
           d="m 442.63329,569.52667 c 0,-1.46728 -1.18945,-2.65673 -2.65674,-2.65673 -1.46731,0 -2.65674,1.18945 -2.65674,2.65673 0,1.46728 1.18943,2.65673 2.65674,2.65673 1.46729,0 2.65674,-1.18945 2.65674,-2.65673 z"
           style="fill:#0000cc;fill-opacity:1;fill-rule:nonzero;stroke:#0000ff;stroke-width:0.531333;stroke-linecap:butt;stroke-linejoin:miter;stroke-miterlimit:10;stroke-dasharray:none;stroke-opacity:1" /><path
           id="path82"
           d="m 459.04027,465.15446 c 0,-1.46728 -1.18946,-2.65673 -2.65674,-2.65673 -1.4673,0 -2.65673,1.18945 -2.65673,2.65673 0,1.46728 1.18943,2.65675 2.65673,2.65675 1.46728,0 2.65674,-1.18947 2.65674,-2.65675 z"
           style="fill:#ff1e00;fill-opacity:1;fill-rule:nonzero;stroke:#ff1e00;stroke-width:0.531333;stroke-linecap:butt;stroke-linejoin:miter;stroke-miterlimit:10;stroke-dasharray:none;stroke-opacity:1" /><path
           id="path83"
           d="m 475.44725,465.15446 c 0,-1.46728 -1.18942,-2.65673 -2.65673,-2.65673 -1.46729,0 -2.65675,1.18945 -2.65675,2.65673 0,1.46728 1.18946,2.65675 2.65675,2.65675 1.46731,0 2.65673,-1.18947 2.65673,-2.65675 z"
           style="fill:#0000cc;fill-opacity:1;fill-rule:nonzero;stroke:#0000ff;stroke-width:0.531333;stroke-linecap:butt;stroke-linejoin:miter;stroke-miterlimit:10;stroke-dasharray:none;stroke-opacity:1" /><path
           id="path84"
           d="m 491.85424,569.52667 c 0,-1.46728 -1.18944,-2.65673 -2.65675,-2.65673 -1.46728,0 -2.65673,1.18945 -2.65673,2.65673 0,1.46728 1.18945,2.65673 2.65673,2.65673 1.46731,0 2.65675,-1.18945 2.65675,-2.65673 z"
           style="fill:#ff1e00;fill-opacity:1;fill-rule:nonzero;stroke:#ff1e00;stroke-width:0.531333;stroke-linecap:butt;stroke-linejoin:miter;stroke-miterlimit:10;stroke-dasharray:none;stroke-opacity:1" /><path
           id="path85"
           d="m 508.26124,465.15446 c 0,-1.46728 -1.18946,-2.65673 -2.65674,-2.65673 -1.4673,0 -2.65674,1.18945 -2.65674,2.65673 0,1.46728 1.18944,2.65675 2.65674,2.65675 1.46728,0 2.65674,-1.18947 2.65674,-2.65675 z"
           style="fill:#0000cc;fill-opacity:1;fill-rule:nonzero;stroke:#0000ff;stroke-width:0.531333;stroke-linecap:butt;stroke-linejoin:miter;stroke-miterlimit:10;stroke-dasharray:none;stroke-opacity:1" /><path
           id="path86"
           d="m 524.66822,465.15446 c 0,-1.46728 -1.18945,-2.65673 -2.65674,-2.65673 -1.46728,0 -2.65674,1.18945 -2.65674,2.65673 0,1.46728 1.18946,2.65675 2.65674,2.65675 1.46729,0 2.65674,-1.18947 2.65674,-2.65675 z"
           style="fill:#0000cc;fill-opacity:1;fill-rule:nonzero;stroke:#0000ff;stroke-width:0.531333;stroke-linecap:butt;stroke-linejoin:miter;stroke-miterlimit:10;stroke-dasharray:none;stroke-opacity:1" /><path
           id="path87"
           d="m 541.0752,569.52667 c 0,-1.46728 -1.18943,-2.65673 -2.65674,-2.65673 -1.46728,0 -2.65673,1.18945 -2.65673,2.65673 0,1.46728 1.18945,2.65673 2.65673,2.65673 1.46731,0 2.65674,-1.18945 2.65674,-2.65673 z"
           style="fill:#0000cc;fill-opacity:1;fill-rule:nonzero;stroke:#0000ff;stroke-width:0.531333;stroke-linecap:butt;stroke-linejoin:miter;stroke-miterlimit:10;stroke-dasharray:none;stroke-opacity:1" /><path
           id="path88"
           d="m 557.48221,465.15446 c 0,-1.46728 -1.18945,-2.65673 -2.65675,-2.65673 -1.4673,0 -2.65673,1.18945 -2.65673,2.65673 0,1.46728 1.18943,2.65675 2.65673,2.65675 1.4673,0 2.65675,-1.18947 2.65675,-2.65675 z"
           style="fill:#0000cc;fill-opacity:1;fill-rule:nonzero;stroke:#0000ff;stroke-width:0.531333;stroke-linecap:butt;stroke-linejoin:miter;stroke-miterlimit:10;stroke-dasharray:none;stroke-opacity:1" /><path
           id="path89"
           d="m 573.8892,465.15446 c 0,-1.46728 -1.18947,-2.65673 -2.65675,-2.65673 -1.46731,0 -2.65673,1.18945 -2.65673,2.65673 0,1.46728 1.18942,2.65675 2.65673,2.65675 1.46728,0 2.65675,-1.18947 2.65675,-2.65675 z"
           style="fill:#0000cc;fill-opacity:1;fill-rule:nonzero;stroke:#0000ff;stroke-width:0.531333;stroke-linecap:butt;stroke-linejoin:miter;stroke-miterlimit:10;stroke-dasharray:none;stroke-opacity:1" /><path
           id="path90"
           d="m 590.29617,569.52667 c 0,-1.46728 -1.18944,-2.65673 -2.65673,-2.65673 -1.4673,0 -2.65675,1.18945 -2.65675,2.65673 0,1.46728 1.18945,2.65673 2.65675,2.65673 1.46729,0 2.65673,-1.18945 2.65673,-2.65673 z"
           style="fill:#0000cc;fill-opacity:1;fill-rule:nonzero;stroke:#0000ff;stroke-width:0.531333;stroke-linecap:butt;stroke-linejoin:miter;stroke-miterlimit:10;stroke-dasharray:none;stroke-opacity:1" /><path
           id="path91"
           d="m 606.70317,465.15446 c 0,-1.46728 -1.18945,-2.65673 -2.65673,-2.65673 -1.46731,0 -2.65675,1.18945 -2.65675,2.65673 0,1.46728 1.18944,2.65675 2.65675,2.65675 1.46728,0 2.65673,-1.18947 2.65673,-2.65675 z"
           style="fill:#0000cc;fill-opacity:1;fill-rule:nonzero;stroke:#0000ff;stroke-width:0.531333;stroke-linecap:butt;stroke-linejoin:miter;stroke-miterlimit:10;stroke-dasharray:none;stroke-opacity:1" /><g
           id="g91"
           aria-label="fin(Hz)"
           transform="matrix(1.3333333,0,0,1.3333333,412.94533,616.888)"><path
             id="path92"
             d="m 3.6562344,-3.9853359 h 0.8554687 c 0.1992188,0 0.3046875,0 0.3046875,-0.1992188 0,-0.1054687 -0.1054687,-0.1054687 -0.2695312,-0.1054687 H 3.7148281 l 0.2109375,-1.1367188 c 0.035156,-0.2109375 0.1757813,-0.9140625 0.234375,-1.0429687 0.09375,-0.1875 0.2578125,-0.3398438 0.46875,-0.3398438 0.046875,0 0.3046875,0 0.4921875,0.1875 -0.4335937,0.035156 -0.5390625,0.3867188 -0.5390625,0.5390625 0,0.2226563 0.1757813,0.3398438 0.3632813,0.3398438 0.2695312,0 0.5507812,-0.2109375 0.5507812,-0.5976563 0,-0.4570312 -0.4570312,-0.6796875 -0.8671875,-0.6796875 -0.3398437,0 -0.9609375,0.1757813 -1.265625,1.1601563 -0.058594,0.2109375 -0.082031,0.3164062 -0.328125,1.5703125 H 2.3554531 c -0.1992187,0 -0.3046875,0 -0.3046875,0.1875 0,0.1171875 0.09375,0.1171875 0.28125,0.1171875 h 0.65625 l -0.75,3.93749996 C 2.0624844,0.91310156 1.8984219,1.8271641 1.3710781,1.8271641 c -0.035156,0 -0.28125,0 -0.46874997,-0.1875 C 1.3593594,1.6162266 1.4413906,1.2529453 1.4413906,1.1006016 c 0,-0.22265629 -0.1757812,-0.33984379 -0.3632812,-0.33984379 -0.25781252,0 -0.55078127,0.2109375 -0.55078127,0.59765629 0,0.4453125 0.43359375,0.6796875 0.84374997,0.6796875 0.5507813,0 0.9492188,-0.5859375 1.125,-0.9609375 0.328125,-0.63281254 0.5507813,-1.83984379 0.5625,-1.91015629 z m 0,0"
             style="fill:#000000;fill-opacity:1;fill-rule:nonzero;stroke:none" /><path
             id="path93"
             d="m 11.030258,-4.4072109 -1.3945314,0.1171875 v 0.3046875 c 0.6562504,0 0.7382814,0.058594 0.7382814,0.5507812 v 2.67187501 c 0,0.45703125 -0.105469,0.45703125 -0.7734377,0.45703125 V -9.609375e-4 C 9.9169766,-0.01267969 10.456039,-0.03611719 10.702133,-0.03611719 c 0.339844,0 0.691406,0.0234375 1.03125,0.0351562525 V -0.30564844 c -0.65625,0 -0.703125,-0.0585938 -0.703125,-0.4453125 z m 0.04687,-1.734375 c 0,-0.3164063 -0.246094,-0.5273438 -0.527344,-0.5273438 -0.316406,0 -0.527344,0.2695313 -0.527344,0.5273438 0,0.2695312 0.210938,0.5273437 0.527344,0.5273437 0.28125,0 0.527344,-0.1992187 0.527344,-0.5273437 z m 2.0625,2.71875 v 2.66015621 c 0,0.45703125 -0.117188,0.45703125 -0.785156,0.45703125 v 0.3046875025 c 0.351562,-0.0117187525 0.855468,-0.0351562525 1.125,-0.0351562525 0.257812,0 0.785156,0.0234375 1.113281,0.0351562525 V -0.30564844 c -0.65625,0 -0.773438,0 -0.773438,-0.45703125 V -2.5908047 c 0,-1.03125 0.714844,-1.59375 1.347657,-1.59375 0.621093,0 0.738281,0.5390625 0.738281,1.1015625 v 2.32031251 c 0,0.45703125 -0.117188,0.45703125 -0.773438,0.45703125 v 0.3046875025 c 0.339844,-0.0117187525 0.855469,-0.0351562525 1.125,-0.0351562525 0.257813,0 0.773438,0.0234375 1.113282,0.0351562525 V -0.30564844 c -0.515625,0 -0.773438,0 -0.785157,-0.3046875 V -2.5087734 c 0,-0.8554688 0,-1.171875 -0.304687,-1.5234375 -0.140625,-0.1757813 -0.46875,-0.375 -1.042969,-0.375 -0.726562,0 -1.195312,0.4335937 -1.476562,1.0546875 v -1.0546875 l -1.40625,0.1171875 v 0.3046875 c 0.703125,0 0.785156,0.070312 0.785156,0.5625 z m 11.044922,5.8125 c 0,-0.035156 0,-0.046875 -0.164063,-0.2226563 -1.242187,-1.25390624 -1.570312,-3.12890624 -1.570312,-4.6640625 0,-1.7226562 0.386718,-3.4570312 1.605468,-4.7109375 0.128907,-0.1171875 0.128907,-0.1289062 0.128907,-0.1640625 0,-0.070312 -0.03516,-0.1054687 -0.09375,-0.1054687 -0.105469,0 -0.996094,0.6796875 -1.582032,1.9453125 -0.515625,1.1015625 -0.632812,2.203125 -0.632812,3.0351562 0,0.7851563 0.117187,1.99218751 0.65625,3.11718751 0.597656,1.21874999 1.453125,1.87499999 1.558594,1.87499999 0.05859,0 0.09375,-0.035156 0.09375,-0.1054687 z m 6.685547,-8.4140625 c 0,-0.3632813 0.02344,-0.46875 0.785156,-0.46875 h 0.246094 v -0.3164063 c -0.351563,0.035156 -1.089844,0.035156 -1.464844,0.035156 -0.386719,0 -1.125,0 -1.476563,-0.035156 v 0.3164063 h 0.234375 c 0.773438,0 0.785157,0.1054687 0.785157,0.46875 v 2.3320312 h -2.976563 v -2.3320312 c 0,-0.3632813 0.02344,-0.46875 0.785156,-0.46875 h 0.246094 v -0.3164063 c -0.351562,0.035156 -1.089844,0.035156 -1.464844,0.035156 -0.375,0 -1.125,0 -1.476562,-0.035156 v 0.3164063 h 0.234375 c 0.773437,0 0.796875,0.1054687 0.796875,0.46875 v 5.24999996 c 0,0.3515625 -0.02344,0.46875 -0.796875,0.46875 h -0.23437 V -9.609375e-4 C 25.44432,-0.03611719 26.182602,-0.03611719 26.557602,-0.03611719 c 0.375,0 1.125,0 1.476562,0.0351562525 V -0.30564844 H 27.78807 c -0.761718,0 -0.785156,-0.1171875 -0.785156,-0.46875 V -3.3876797 h 2.976563 v 2.61328126 c 0,0.3515625 -0.01172,0.46875 -0.785157,0.46875 H 28.959945 V -9.609375e-4 C 29.311508,-0.03611719 30.049789,-0.03611719 30.424789,-0.03611719 c 0.375,0 1.125,0 1.476563,0.0351562525 V -0.30564844 h -0.246094 c -0.761719,0 -0.785156,-0.1171875 -0.785156,-0.46875 z m 5.258789,2.0273437 c 0.08203,-0.1054687 0.08203,-0.1289062 0.08203,-0.1640625 0,-0.1289062 -0.08203,-0.1289062 -0.257813,-0.1289062 h -3.1875 l -0.105468,1.59375 h 0.246093 c 0.05859,-1.0078125 0.246094,-1.3828125 1.347657,-1.3828125 h 1.136718 l -2.789062,3.76171871 c -0.08203,0.10546875 -0.08203,0.12890625 -0.08203,0.17578125 0,0.1406250025 0.07031,0.1406250025 0.257812,0.1406250025 h 3.28125 L 36.234359,-1.8642422 h -0.246093 c -0.09375,1.17187501 -0.304688,1.61718751 -1.453125,1.61718751 h -1.183594 z m 3.418945,1.5 c 0,-0.7734375 -0.117188,-1.9804687 -0.65625,-3.1054687 -0.597656,-1.21875 -1.464844,-1.875 -1.558594,-1.875 -0.05859,0 -0.105469,0.046875 -0.105469,0.1054687 0,0.035156 0,0.046875 0.199219,0.234375 0.972656,0.984375 1.535156,2.5664063 1.535156,4.640625 0,1.71093751 -0.363281,3.45703126 -1.59375,4.7226563 -0.140625,0.1171875 -0.140625,0.1289062 -0.140625,0.1640625 0,0.058594 0.04687,0.1054687 0.105469,0.1054687 0.09375,0 0.996094,-0.6796875 1.582031,-1.94531249 0.503907,-1.1015625 0.632813,-2.20312501 0.632813,-3.04687501 z m 0,0"
             style="fill:#000000;fill-opacity:1;fill-rule:nonzero;stroke:none" /></g><g
           id="g93"
           aria-label="|X&#10;s&#10;(f)|"
           transform="matrix(0,-1.3333333,1.3333333,0,212.67333,521.11067)"><path
             id="path94"
             d="m 1.583,-7.114375 c 0,-0.1757812 0,-0.3632812 -0.1992187,-0.3632812 -0.1992188,0 -0.1992188,0.1875 -0.1992188,0.3632812 v 9.2460938 c 0,0.1757812 0,0.3632812 0.1992188,0.3632812 C 1.583,2.495 1.583,2.3075 1.583,2.1317188 Z m 0,0"
             style="fill:#000000;fill-opacity:1;fill-rule:nonzero;stroke:none" /><path
             id="path95"
             d="M 7.5947188,-4.0909375 6.7626875,-6.083125 c -0.035156,-0.070312 -0.046875,-0.1171875 -0.046875,-0.1289062 0,-0.058594 0.1640625,-0.2460938 0.5859375,-0.28125 0.09375,-0.011719 0.1992188,-0.023437 0.1992188,-0.1875 0,-0.1289063 -0.1171875,-0.1289063 -0.1523438,-0.1289063 -0.4101562,0 -0.8320312,0.035156 -1.2539062,0.035156 -0.2460938,0 -0.8671875,-0.035156 -1.1132813,-0.035156 -0.058594,0 -0.1875,0 -0.1875,0.1992188 0,0.1171875 0.1054688,0.1171875 0.234375,0.1171875 0.5976563,0 0.65625,0.09375 0.75,0.3164062 l 1.171875,2.7773438 -2.0976562,2.2617187 -0.1289063,0.1054688 C 4.2314375,-0.505 3.7626875,-0.3409375 3.2587813,-0.30578125 c -0.1289063,0 -0.2226563,0 -0.2226563,0.19921875 0,0 0,0.10546875 0.1289063,0.10546875 0.3046875,0 0.6328125,-0.03515625 0.9375,-0.03515625 0.3632812,0 0.7617187,0.03515625 1.1132812,0.03515625 0.058594,0 0.1757813,0 0.1757813,-0.19921875 0,-0.10546875 -0.09375,-0.10546875 -0.1171875,-0.10546875 C 5.192375,-0.3175 4.8759688,-0.3409375 4.8759688,-0.6221875 c 0,-0.15234375 0.1523437,-0.31640625 0.2695312,-0.4453125 l 1.0195313,-1.078125 0.890625,-0.9726562 1.0078125,2.3789062 c 0.046875,0.10546875 0.046875,0.1171875 0.046875,0.140625 0,0.0820313 -0.1875,0.24609375 -0.5742188,0.29296875 -0.1054687,0 -0.1992187,0.0117188 -0.1992187,0.1875 0,0.1171875 0.1171875,0.1171875 0.1523437,0.1171875 0.28125,0 0.9726563,-0.03515625 1.2539063,-0.03515625 0.2460937,0 0.8554687,0.03515625 1.1015625,0.03515625 0.070312,0 0.1992192,0 0.1992192,-0.1875 0,-0.1171875 -0.1054692,-0.1171875 -0.1875005,-0.1171875 C 9.1884688,-0.3175 9.17675,-0.35265625 9.0009688,-0.75109375 8.61425,-1.676875 7.9462813,-3.22375 7.7119063,-3.8214062 8.3915938,-4.5245312 9.4462813,-5.708125 9.7626875,-5.989375 10.043938,-6.22375 10.430656,-6.4698437 11.028313,-6.4932812 11.157219,-6.505 11.23925,-6.505 11.23925,-6.6925 c 0,-0.011719 0,-0.1171875 -0.128906,-0.1171875 -0.292969,0 -0.621094,0.035156 -0.9375,0.035156 -0.3632815,0 -0.7382815,-0.035156 -1.1015627,-0.035156 -0.058594,0 -0.1875,0 -0.1875,0.1992188 0,0.070312 0.046875,0.1054687 0.1171875,0.1171875 0.09375,0.011719 0.3984375,0.023437 0.3984375,0.3046875 0,0.140625 -0.1054688,0.2695312 -0.1875,0.3632812 z m 0,0"
             style="fill:#000000;fill-opacity:1;fill-rule:nonzero;stroke:none" /><path
             id="path96"
             d="m 14.022453,-1.1319531 c -0.175781,0.046875 -0.292969,0.18749998 -0.292969,0.32812498 0,0.1640625 0.140625,0.22265625 0.234375,0.22265625 0.07031,0 0.339844,-0.0351563 0.339844,-0.3984375 0,-0.44531253 -0.503906,-0.59765623 -0.925781,-0.59765623 -1.089844,0 -1.289063,0.79687498 -1.289063,1.00781248 0,0.2578125 0.152344,0.43359375 0.246094,0.515625 0.175781,0.140625 0.304688,0.1640625 0.785156,0.24609375 0.152344,0.0351563 0.597657,0.1171875 0.597657,0.46875 0,0.1171875 -0.08203,0.37499997 -0.375,0.55078127 -0.269532,0.1523437 -0.609375,0.1523437 -0.691407,0.1523437 -0.28125,0 -0.679687,-0.058594 -0.84375,-0.2929687 0.234375,-0.023437 0.386719,-0.19921877 0.386719,-0.39843752 0,-0.1640625 -0.128906,-0.2578125 -0.269531,-0.2578125 -0.199219,0 -0.410156,0.1640625 -0.410156,0.46875 0,0.42187502 0.445312,0.67968752 1.125,0.67968752 1.289062,0 1.523437,-0.87890627 1.523437,-1.14843752 0,-0.64453125 -0.703125,-0.7734375 -0.960937,-0.8203125 -0.07031,-0.0117188 -0.246094,-0.0351563 -0.28125,-0.0585938 -0.257813,-0.046875 -0.386719,-0.1875 -0.386719,-0.33984375 0,-0.1640625 0.128906,-0.35156253 0.28125,-0.44531253 0.1875,-0.1289063 0.433594,-0.140625 0.550781,-0.140625 0.140625,0 0.503906,0.023437 0.65625,0.2578126 z m 0,0"
             style="fill:#000000;fill-opacity:1;fill-rule:nonzero;stroke:none" /><path
             id="path97"
             d="m 18.572258,2.3895313 c 0,-0.035156 0,-0.046875 -0.164063,-0.2226563 -1.242187,-1.25390625 -1.570312,-3.12890625 -1.570312,-4.6640625 0,-1.7226562 0.386719,-3.4570312 1.605469,-4.7109375 0.128906,-0.1171875 0.128906,-0.1289062 0.128906,-0.1640625 0,-0.070312 -0.03516,-0.1054687 -0.09375,-0.1054687 -0.105469,0 -0.996094,0.6796875 -1.582031,1.9453125 -0.515625,1.1015625 -0.632813,2.203125 -0.632813,3.0351562 0,0.7851563 0.117188,1.9921875 0.65625,3.1171875 0.597656,1.21875 1.453125,1.875 1.558594,1.875 0.05859,0 0.09375,-0.035156 0.09375,-0.1054687 z m 0,0"
             style="fill:#000000;fill-opacity:1;fill-rule:nonzero;stroke:none" /><path
             id="path98"
             d="m 22.811516,-3.9854687 h 0.855468 c 0.199219,0 0.304688,0 0.304688,-0.1992188 0,-0.1054687 -0.105469,-0.1054687 -0.269531,-0.1054687 h -0.832032 l 0.210938,-1.1367188 c 0.03516,-0.2109375 0.175781,-0.9140625 0.234375,-1.0429687 0.09375,-0.1875 0.257812,-0.3398438 0.46875,-0.3398438 0.04687,0 0.304687,0 0.492187,0.1875 -0.433593,0.035156 -0.539062,0.3867188 -0.539062,0.5390625 0,0.2226563 0.175781,0.3398438 0.363281,0.3398438 0.269531,0 0.550781,-0.2109375 0.550781,-0.5976563 0,-0.4570312 -0.457031,-0.6796875 -0.867187,-0.6796875 -0.339844,0 -0.960938,0.1757813 -1.265625,1.1601563 -0.05859,0.2109375 -0.08203,0.3164062 -0.328125,1.5703125 h -0.679688 c -0.199218,0 -0.304687,0 -0.304687,0.1875 0,0.1171875 0.09375,0.1171875 0.28125,0.1171875 h 0.65625 l -0.75,3.93749995 c -0.175781,0.9609375 -0.339844,1.87500005 -0.867188,1.87500005 -0.03516,0 -0.28125,0 -0.46875,-0.1875 0.457032,-0.023437 0.539063,-0.3867188 0.539063,-0.5390625 0,-0.2226563 -0.175781,-0.3398438 -0.363281,-0.3398438 -0.257813,0 -0.550782,0.2109375 -0.550782,0.5976563 0,0.4453125 0.433594,0.6796875 0.84375,0.6796875 0.550782,0 0.949219,-0.5859375 1.125,-0.9609375 0.328125,-0.63281255 0.550782,-1.8398438 0.5625,-1.9101563 z m 0,0"
             style="fill:#000000;fill-opacity:1;fill-rule:nonzero;stroke:none" /><path
             id="path99"
             d="m 27.988273,-2.4971875 c 0,-0.7734375 -0.117187,-1.9804687 -0.65625,-3.1054687 -0.597656,-1.21875 -1.464843,-1.875 -1.558593,-1.875 -0.05859,0 -0.105469,0.046875 -0.105469,0.1054687 0,0.035156 0,0.046875 0.199219,0.234375 0.972656,0.984375 1.535156,2.5664063 1.535156,4.640625 0,1.7109375 -0.363281,3.45703125 -1.59375,4.7226563 -0.140625,0.1171875 -0.140625,0.1289062 -0.140625,0.1640625 0,0.058594 0.04687,0.1054687 0.105469,0.1054687 0.09375,0 0.996093,-0.6796875 1.582031,-1.9453125 0.503906,-1.1015625 0.632812,-2.203125 0.632812,-3.046875 z m 0,0"
             style="fill:#000000;fill-opacity:1;fill-rule:nonzero;stroke:none" /><path
             id="path100"
             d="m 30.560539,-7.114375 c 0,-0.1757812 0,-0.3632812 -0.199219,-0.3632812 -0.199218,0 -0.199218,0.1875 -0.199218,0.3632812 v 9.2460938 c 0,0.1757812 0,0.3632812 0.199218,0.3632812 0.199219,0 0.199219,-0.1875 0.199219,-0.3632812 z m 0,0"
             style="fill:#000000;fill-opacity:1;fill-rule:nonzero;stroke:none" /></g><path
           id="path101"
           d="m 425.20787,442.63511 h 203.51171 v -22.5822 H 425.20787 Z"
           style="fill:#ffffff;fill-opacity:1;fill-rule:nonzero;stroke:#000000;stroke-width:0.531333;stroke-linecap:butt;stroke-linejoin:miter;stroke-miterlimit:10;stroke-dasharray:none;stroke-opacity:1" /><path
           id="path102"
           d="m 429.456,431.34667 v 0 m 11.33883,0 v 0 m 11.33885,0 v 0"
           style="fill:none;stroke:#0000ff;stroke-width:0.531333;stroke-linecap:butt;stroke-linejoin:miter;stroke-miterlimit:10;stroke-dasharray:none;stroke-opacity:1" /><path
           id="path103"
           d="m 443.45156,431.34667 c 0,-1.46728 -1.18945,-2.65673 -2.65673,-2.65673 -1.46731,0 -2.65674,1.18945 -2.65674,2.65673 0,1.46728 1.18943,2.65673 2.65674,2.65673 1.46728,0 2.65673,-1.18945 2.65673,-2.65673 z"
           style="fill:#0000cc;fill-opacity:1;fill-rule:nonzero;stroke:#0000ff;stroke-width:0.531333;stroke-linecap:butt;stroke-linejoin:miter;stroke-miterlimit:10;stroke-dasharray:none;stroke-opacity:1" /><g
           id="g103"
           aria-label="|X&#10;s&#10;(f)|butf&#10;s&#10;=15&lt;2f&#10;max"
           transform="matrix(1.3333333,0,0,1.3333333,455.056,435.332)"><path
             id="path104"
             d="m 1.5810469,-7.1132578 c 0,-0.1757813 0,-0.3632813 -0.1992188,-0.3632813 -0.1992187,0 -0.1992187,0.1875 -0.1992187,0.3632813 v 9.2460937 c 0,0.1757813 0,0.3632813 0.1992187,0.3632813 0.1992188,0 0.1992188,-0.1875 0.1992188,-0.3632813 z m 0,0"
             style="fill:#000000;fill-opacity:1;fill-rule:nonzero;stroke:none" /><path
             id="path105"
             d="M 7.5956953,-4.0898203 6.7636641,-6.0820078 c -0.035156,-0.070312 -0.046875,-0.1171875 -0.046875,-0.1289063 0,-0.058594 0.1640625,-0.2460937 0.5859375,-0.28125 0.09375,-0.011719 0.1992187,-0.023437 0.1992187,-0.1875 0,-0.1289062 -0.1171875,-0.1289062 -0.1523437,-0.1289062 -0.4101563,0 -0.8320313,0.035156 -1.2539063,0.035156 -0.2460937,0 -0.8671875,-0.035156 -1.1132812,-0.035156 -0.058594,0 -0.1875,0 -0.1875,0.1992187 0,0.1171875 0.1054687,0.1171875 0.234375,0.1171875 0.5976562,0 0.65625,0.09375 0.75,0.3164063 l 1.171875,2.7773437 -2.0976563,2.2617188 -0.1289062,0.1054687 c -0.4921875,0.52734379 -0.9609375,0.69140629 -1.4648438,0.72656254 -0.1289062,0 -0.2226562,0 -0.2226562,0.19921875 0,0 0,0.1054687475 0.1289062,0.1054687475 0.3046875,0 0.6328125,-0.0351562475 0.9375,-0.0351562475 0.3632813,0 0.7617188,0.0351562475 1.1132813,0.0351562475 0.058594,0 0.1757812,0 0.1757812,-0.1992187475 0,-0.10546875 -0.09375,-0.10546875 -0.1171875,-0.10546875 -0.082031,-0.0117188 -0.3984375,-0.0351563 -0.3984375,-0.31640625 0,-0.15234375 0.1523438,-0.31640625 0.2695313,-0.44531249 l 1.0195312,-1.078125 0.890625,-0.9726563 1.0078125,2.37890629 c 0.046875,0.10546875 0.046875,0.1171875 0.046875,0.140625 0,0.0820313 -0.1875,0.24609375 -0.5742187,0.29296875 -0.1054688,0 -0.1992188,0.0117188 -0.1992188,0.1875 0,0.1171874975 0.1171875,0.1171874975 0.1523438,0.1171874975 0.28125,0 0.9726562,-0.0351562475 1.2539062,-0.0351562475 0.2460938,0 0.8554688,0.0351562475 1.1015625,0.0351562475 0.070312,0 0.1992187,0 0.1992187,-0.1874999975 0,-0.1171875 -0.1054687,-0.1171875 -0.1874999,-0.1171875 -0.6679688,-0.0117188 -0.6796875,-0.046875 -0.8554688,-0.4453125 C 8.6152266,-1.6757578 7.9472578,-3.2226328 7.7128828,-3.8202891 c 0.6796875,-0.703125 1.734375,-1.8867187 2.0507813,-2.1679687 0.2812499,-0.234375 0.6679689,-0.4804688 1.2656249,-0.5039063 0.128906,-0.011719 0.210938,-0.011719 0.210938,-0.1992187 0,-0.011719 0,-0.1171875 -0.128907,-0.1171875 -0.292968,0 -0.621093,0.035156 -0.9375,0.035156 -0.3632809,0 -0.7382809,-0.035156 -1.1015622,-0.035156 -0.058594,0 -0.1875,0 -0.1875,0.1992187 0,0.070312 0.046875,0.1054688 0.1171875,0.1171875 0.09375,0.011719 0.3984375,0.023437 0.3984375,0.3046875 0,0.140625 -0.1054687,0.2695313 -0.1875,0.3632813 z m 0,0"
             style="fill:#000000;fill-opacity:1;fill-rule:nonzero;stroke:none" /><path
             id="path106"
             d="m 14.0205,-1.1308359 c -0.175781,0.046875 -0.292969,0.18749996 -0.292969,0.32812496 0,0.1640625 0.140625,0.22265625 0.234375,0.22265625 0.07031,0 0.339844,-0.0351563 0.339844,-0.3984375 0,-0.44531251 -0.503906,-0.59765621 -0.925781,-0.59765621 -1.089844,0 -1.289063,0.79687496 -1.289063,1.00781246 0,0.2578125 0.152344,0.43359375 0.246094,0.515625 0.175781,0.140625 0.304688,0.1640625 0.785156,0.24609375 0.152344,0.0351563 0.597657,0.1171875 0.597657,0.46875 0,0.1171875 -0.08203,0.37499999 -0.375,0.55078129 -0.269532,0.1523437 -0.609375,0.1523437 -0.691407,0.1523437 -0.28125,0 -0.679687,-0.058594 -0.84375,-0.2929687 0.234375,-0.023437 0.386719,-0.19921879 0.386719,-0.39843754 0,-0.1640625 -0.128906,-0.2578125 -0.269531,-0.2578125 -0.199219,0 -0.410156,0.1640625 -0.410156,0.46875 0,0.42187504 0.445312,0.67968754 1.125,0.67968754 1.289062,0 1.523437,-0.87890629 1.523437,-1.14843754 0,-0.64453125 -0.703125,-0.7734375 -0.960937,-0.8203125 -0.07031,-0.0117188 -0.246094,-0.0351563 -0.28125,-0.0585938 -0.257813,-0.046875 -0.386719,-0.1875 -0.386719,-0.33984375 0,-0.1640625 0.128906,-0.35156241 0.28125,-0.44531241 0.1875,-0.1289063 0.433594,-0.140625 0.550781,-0.140625 0.140625,0 0.503906,0.023437 0.65625,0.2578125 z m 0,0"
             style="fill:#000000;fill-opacity:1;fill-rule:nonzero;stroke:none" /><path
             id="path107"
             d="m 18.573234,2.3906484 c 0,-0.035156 0,-0.046875 -0.164062,-0.2226562 -1.242188,-1.25390626 -1.570313,-3.12890626 -1.570313,-4.6640625 0,-1.7226563 0.386719,-3.4570313 1.605469,-4.7109375 0.128906,-0.1171875 0.128906,-0.1289063 0.128906,-0.1640625 0,-0.070312 -0.03516,-0.1054688 -0.09375,-0.1054688 -0.105468,0 -0.996093,0.6796875 -1.582031,1.9453125 -0.515625,1.1015625 -0.632812,2.203125 -0.632812,3.0351563 0,0.7851562 0.117187,1.99218749 0.65625,3.11718749 0.597656,1.21875001 1.453125,1.87500001 1.558593,1.87500001 0.05859,0 0.09375,-0.035156 0.09375,-0.1054688 z m 0,0"
             style="fill:#000000;fill-opacity:1;fill-rule:nonzero;stroke:none" /><path
             id="path108"
             d="m 22.809563,-3.9843516 h 0.855468 c 0.199219,0 0.304688,0 0.304688,-0.1992187 0,-0.1054688 -0.105469,-0.1054688 -0.269531,-0.1054688 h -0.832032 l 0.210938,-1.1367187 c 0.03516,-0.2109375 0.175781,-0.9140625 0.234375,-1.0429688 0.09375,-0.1875 0.257812,-0.3398437 0.46875,-0.3398437 0.04687,0 0.304687,0 0.492187,0.1875 -0.433593,0.035156 -0.539062,0.3867187 -0.539062,0.5390625 0,0.2226562 0.175781,0.3398437 0.363281,0.3398437 0.269531,0 0.550781,-0.2109375 0.550781,-0.5976562 0,-0.4570313 -0.457031,-0.6796875 -0.867187,-0.6796875 -0.339844,0 -0.960938,0.1757812 -1.265625,1.1601562 -0.05859,0.2109375 -0.08203,0.3164063 -0.328125,1.5703125 h -0.679688 c -0.199218,0 -0.304687,0 -0.304687,0.1875 0,0.1171875 0.09375,0.1171875 0.28125,0.1171875 h 0.65625 l -0.75,3.93750004 c -0.175781,0.9609375 -0.339844,1.87499996 -0.867188,1.87499996 -0.03516,0 -0.28125,0 -0.46875,-0.1875 0.457032,-0.023437 0.539063,-0.3867187 0.539063,-0.5390625 0,-0.22265621 -0.175781,-0.33984371 -0.363281,-0.33984371 -0.257813,0 -0.550782,0.2109375 -0.550782,0.59765621 0,0.4453125 0.433594,0.6796875 0.84375,0.6796875 0.550782,0 0.949219,-0.5859375 1.125,-0.9609375 0.328125,-0.63281246 0.550782,-1.83984371 0.5625,-1.91015621 z m 0,0"
             style="fill:#000000;fill-opacity:1;fill-rule:nonzero;stroke:none" /><path
             id="path109"
             d="m 27.98632,-2.4960703 c 0,-0.7734375 -0.117187,-1.9804688 -0.65625,-3.1054688 -0.597656,-1.21875 -1.464843,-1.875 -1.558593,-1.875 -0.05859,0 -0.105469,0.046875 -0.105469,0.1054688 0,0.035156 0,0.046875 0.199219,0.234375 0.972656,0.984375 1.535156,2.5664062 1.535156,4.640625 0,1.71093749 -0.363281,3.45703124 -1.59375,4.7226562 -0.140625,0.1171875 -0.140625,0.1289063 -0.140625,0.1640625 0,0.058594 0.04687,0.1054688 0.105469,0.1054688 0.09375,0 0.996093,-0.6796875 1.582031,-1.94531251 0.503906,-1.1015625 0.632812,-2.20312499 0.632812,-3.04687499 z m 0,0"
             style="fill:#000000;fill-opacity:1;fill-rule:nonzero;stroke:none" /><path
             id="path110"
             d="m 30.558586,-7.1132578 c 0,-0.1757813 0,-0.3632813 -0.199219,-0.3632813 -0.199219,0 -0.199219,0.1875 -0.199219,0.3632813 v 9.2460937 c 0,0.1757813 0,0.3632813 0.199219,0.3632813 0.199219,0 0.199219,-0.1875 0.199219,-0.3632813 z m 0,0"
             style="fill:#000000;fill-opacity:1;fill-rule:nonzero;stroke:none" /><path
             id="path111"
             d="m 36.778313,-3.7499766 v -3.1640625 l -1.429688,0.1054688 v 0.3164062 c 0.691406,0 0.773438,0.070312 0.773438,0.5507813 V 2.34375e-5 h 0.246093 c 0.01172,-0.0117187475 0.09375,-0.1523437475 0.363282,-0.6210937475 0.152343,0.234375 0.5625,0.7265625 1.300781,0.7265625 1.183594,0 2.226562,-0.97265625 2.226562,-2.26171879 0,-1.265625 -0.972656,-2.25 -2.109375,-2.25 -0.785156,0 -1.207031,0.46875 -1.371093,0.65625 z m 0.03516,2.6132813 v -2.0507813 c 0,-0.1875 0,-0.1992187 0.105469,-0.3632812 0.386718,-0.5507813 0.9375,-0.6328125 1.171875,-0.6328125 0.457031,0 0.808593,0.2578125 1.054687,0.6328125 0.257813,0.4101562 0.28125,0.984375 0.28125,1.3945312 0,0.3632813 -0.01172,0.9609375 -0.304687,1.40625004 -0.210938,0.31640625 -0.585938,0.64453125 -1.125,0.64453125 -0.445313,0 -0.808594,-0.24609375 -1.042969,-0.609375 -0.140625,-0.2109375 -0.140625,-0.24609375 -0.140625,-0.42187499 z m 7.678711,0.35156249 v 0.890625 L 45.933586,2.34375e-5 V -0.30466406 c -0.703125,0 -0.785156,-0.0703125 -0.785156,-0.5625 V -4.4062266 l -1.453125,0.1171875 v 0.3046875 c 0.691406,0 0.773437,0.070312 0.773437,0.5625 v 1.7695313 c 0,0.86718749 -0.480469,1.54687499 -1.207031,1.54687499 -0.832031,0 -0.878906,-0.46875 -0.878906,-0.99609379 v -3.3046875 l -1.464844,0.1171875 v 0.3046875 c 0.785156,0 0.785156,0.035156 0.785156,0.9140625 v 1.5 c 0,0.77343754 0,1.67578129 1.511719,1.67578129 0.550781,0 0.996094,-0.26953125 1.277344,-0.890625 z m 3.36914,-3.19921879 h 1.429688 V -4.2890391 H 47.86132 v -1.8398437 h -0.246093 c -0.01172,0.8203125 -0.316407,1.8867187 -1.289063,1.921875 v 0.2226562 h 0.84375 v 2.7539063 c 0,1.21874999 0.925781,1.33593749 1.289063,1.33593749 0.703125,0 0.984375,-0.703125 0.984375,-1.33593749 v -0.5742188 h -0.246094 v 0.5507813 c 0,0.73828124 -0.304688,1.11328124 -0.667969,1.11328124 -0.667969,0 -0.667969,-0.90234374 -0.667969,-1.07812504 z m 0,0"
             style="fill:#000000;fill-opacity:1;fill-rule:nonzero;stroke:none" /><path
             id="path112"
             d="m 56.987297,-3.9843516 h 0.855469 c 0.199218,0 0.304687,0 0.304687,-0.1992187 0,-0.1054688 -0.105469,-0.1054688 -0.269531,-0.1054688 h -0.832031 l 0.210937,-1.1367187 c 0.03516,-0.2109375 0.175781,-0.9140625 0.234375,-1.0429688 0.09375,-0.1875 0.257813,-0.3398437 0.46875,-0.3398437 0.04687,0 0.304688,0 0.492188,0.1875 -0.433594,0.035156 -0.539063,0.3867187 -0.539063,0.5390625 0,0.2226562 0.175781,0.3398437 0.363281,0.3398437 0.269532,0 0.550782,-0.2109375 0.550782,-0.5976562 0,-0.4570313 -0.457032,-0.6796875 -0.867188,-0.6796875 -0.339844,0 -0.960937,0.1757812 -1.265625,1.1601562 -0.05859,0.2109375 -0.08203,0.3164063 -0.328125,1.5703125 h -0.679687 c -0.199219,0 -0.304688,0 -0.304688,0.1875 0,0.1171875 0.09375,0.1171875 0.28125,0.1171875 h 0.65625 l -0.75,3.93750004 c -0.175781,0.9609375 -0.339844,1.87499996 -0.867187,1.87499996 -0.03516,0 -0.28125,0 -0.46875,-0.1875 0.457031,-0.023437 0.539062,-0.3867187 0.539062,-0.5390625 0,-0.22265621 -0.175781,-0.33984371 -0.363281,-0.33984371 -0.257813,0 -0.550781,0.2109375 -0.550781,0.59765621 0,0.4453125 0.433593,0.6796875 0.84375,0.6796875 0.550781,0 0.949218,-0.5859375 1.125,-0.9609375 0.328125,-0.63281246 0.550781,-1.83984371 0.5625,-1.91015621 z m 0,0"
             style="fill:#000000;fill-opacity:1;fill-rule:nonzero;stroke:none" /><path
             id="path113"
             d="m 61.208977,-1.1308359 c -0.175782,0.046875 -0.292969,0.18749996 -0.292969,0.32812496 0,0.1640625 0.140625,0.22265625 0.234375,0.22265625 0.07031,0 0.339844,-0.0351563 0.339844,-0.3984375 0,-0.44531251 -0.503907,-0.59765621 -0.925782,-0.59765621 -1.089843,0 -1.289062,0.79687496 -1.289062,1.00781246 0,0.2578125 0.152344,0.43359375 0.246094,0.515625 0.175781,0.140625 0.304687,0.1640625 0.785156,0.24609375 0.152344,0.0351563 0.597656,0.1171875 0.597656,0.46875 0,0.1171875 -0.08203,0.37499999 -0.375,0.55078129 -0.269531,0.1523437 -0.609375,0.1523437 -0.691406,0.1523437 -0.28125,0 -0.679688,-0.058594 -0.84375,-0.2929687 0.234375,-0.023437 0.386719,-0.19921879 0.386719,-0.39843754 0,-0.1640625 -0.128907,-0.2578125 -0.269532,-0.2578125 -0.199218,0 -0.410156,0.1640625 -0.410156,0.46875 0,0.42187504 0.445313,0.67968754 1.125,0.67968754 1.289063,0 1.523438,-0.87890629 1.523438,-1.14843754 0,-0.64453125 -0.703125,-0.7734375 -0.960938,-0.8203125 -0.07031,-0.0117188 -0.246094,-0.0351563 -0.28125,-0.0585938 -0.257812,-0.046875 -0.386719,-0.1875 -0.386719,-0.33984375 0,-0.1640625 0.128907,-0.35156241 0.28125,-0.44531241 0.1875,-0.1289063 0.433594,-0.140625 0.550782,-0.140625 0.140625,0 0.503906,0.023437 0.65625,0.2578125 z m 0,0"
             style="fill:#000000;fill-opacity:1;fill-rule:nonzero;stroke:none" /><path
             id="path114"
             d="m 72.078117,-3.2577891 c 0.152344,0 0.339844,0 0.339844,-0.1992187 0,-0.1992188 -0.1875,-0.1992188 -0.328125,-0.1992188 h -5.964844 c -0.140625,0 -0.328125,0 -0.328125,0.1992188 0,0.1992187 0.1875,0.1992187 0.339844,0.1992187 z m 0.01172,1.9335938 c 0.140625,0 0.328125,0 0.328125,-0.1992188 0,-0.1992187 -0.1875,-0.1992187 -0.339844,-0.1992187 h -5.941406 c -0.152344,0 -0.339844,0 -0.339844,0.1992187 0,0.1992188 0.1875,0.1992188 0.328125,0.1992188 z m 6.594727,-5.0507813 c 0,-0.234375 0,-0.2578125 -0.234375,-0.2578125 -0.609375,0.6328125 -1.488282,0.6328125 -1.804688,0.6328125 v 0.3164063 c 0.199219,0 0.785156,0 1.300781,-0.2578125 v 5.15624999 c 0,0.3515625 -0.03516,0.48046875 -0.925781,0.48046875 H 76.704094 V 2.34375e-5 C 77.055656,-0.03513281 77.911125,-0.03513281 78.309563,-0.03513281 c 0.398437,0 1.265625,0 1.617187,0.0351562475 V -0.30466406 h -0.316406 c -0.902344,0 -0.925781,-0.1171875 -0.925781,-0.48046875 z m 6.527343,4.3710938 c 0,-1.1835938 -0.820312,-2.1796875 -1.898437,-2.1796875 -0.480469,0 -0.902344,0.1640625 -1.265625,0.5039062 v -1.9335937 c 0.199219,0.058594 0.527344,0.1289062 0.84375,0.1289062 1.230469,0 1.933594,-0.9140625 1.933594,-1.0429687 0,-0.058594 -0.03516,-0.1054688 -0.105469,-0.1054688 -0.01172,0 -0.03516,0 -0.08203,0.023437 -0.199219,0.09375 -0.679688,0.2929688 -1.347657,0.2929688 -0.398437,0 -0.855468,-0.070312 -1.324218,-0.28125 -0.08203,-0.023437 -0.105469,-0.023437 -0.128907,-0.023437 -0.09375,0 -0.09375,0.082031 -0.09375,0.234375 v 2.953125 c 0,0.1757812 0,0.2578125 0.140625,0.2578125 0.07031,0 0.08203,-0.035156 0.128907,-0.09375 0.105468,-0.1523438 0.480468,-0.6914063 1.277343,-0.6914063 0.527344,0 0.773438,0.4570313 0.855469,0.6328125 0.152344,0.375 0.175781,0.7617188 0.175781,1.2539063 0,0.3515625 0,0.9492187 -0.234375,1.37109374 -0.246093,0.38671875 -0.609375,0.64453125 -1.066406,0.64453125 -0.726562,0 -1.300781,-0.52734375 -1.464844,-1.11328129 0.02344,0.011719 0.05859,0.011719 0.164063,0.011719 0.328125,0 0.503906,-0.2460938 0.503906,-0.4804688 0,-0.2460937 -0.175781,-0.4921875 -0.503906,-0.4921875 -0.140625,0 -0.480469,0.070312 -0.480469,0.5273438 0,0.85546874 0.679688,1.82812499 1.792969,1.82812499 1.160156,0 2.179687,-0.9609375 2.179687,-2.22656249 z m 0,0"
             style="fill:#000000;fill-opacity:1;fill-rule:nonzero;stroke:none" /><path
             id="path115"
             d="m 95.208,-4.9570078 c 0.117188,-0.058594 0.1875,-0.1171875 0.1875,-0.2226563 0,-0.1054687 -0.09375,-0.1992187 -0.199219,-0.1992187 -0.03516,0 -0.04687,0 -0.175781,0.070312 l -5.519531,2.6015625 c -0.117188,0.046875 -0.1875,0.09375 -0.1875,0.2109375 0,0.1289062 0.07031,0.1757812 0.1875,0.2226562 L 95.0205,0.32814844 c 0.128906,0.0703125 0.140625,0.0703125 0.175781,0.0703125 0.105469,0 0.199219,-0.09375 0.199219,-0.19921875 0,-0.10546875 -0.07031,-0.1640625 -0.1875,-0.22265625 L 89.981438,-2.4960703 Z m 0,0"
             style="fill:#000000;fill-opacity:1;fill-rule:nonzero;stroke:none" /><path
             id="path116"
             d="m 100.26171,-0.76169531 1.05469,-1.03124999 c 1.55859,-1.3710938 2.15625,-1.9101563 2.15625,-2.90625 0,-1.1367188 -0.90235,-1.9335938 -2.1211,-1.9335938 -1.125,0 -1.851558,0.9140625 -1.851558,1.8046875 0,0.5507813 0.492188,0.5507813 0.527348,0.5507813 0.16406,0 0.51562,-0.1171875 0.51562,-0.5273438 0,-0.2578125 -0.1875,-0.515625 -0.52734,-0.515625 -0.08203,0 -0.105472,0 -0.128909,0.011719 0.222659,-0.6445313 0.761719,-1.0195313 1.335939,-1.0195313 0.91406,0 1.33594,0.8085938 1.33594,1.6289063 0,0.796875 -0.49219,1.5820312 -1.04297,2.203125 l -1.910159,2.13281249 C 99.499992,-0.25778906 99.499992,-0.23435156 99.499992,2.34375e-5 H 103.1914 L 103.47265,-1.7343516 h -0.25781 c -0.0469,0.3046875 -0.11719,0.73828129 -0.21094,0.89062504 -0.0703,0.0820313 -0.72656,0.0820313 -0.94922,0.0820313 z m 0,0"
             style="fill:#000000;fill-opacity:1;fill-rule:nonzero;stroke:none" /><path
             id="path117"
             d="m 107.6328,-3.9843516 h 0.85547 c 0.19922,0 0.30469,0 0.30469,-0.1992187 0,-0.1054688 -0.10547,-0.1054688 -0.26953,-0.1054688 h -0.83203 l 0.21094,-1.1367187 c 0.0352,-0.2109375 0.17578,-0.9140625 0.23437,-1.0429688 0.0937,-0.1875 0.25781,-0.3398437 0.46875,-0.3398437 0.0469,0 0.30469,0 0.49219,0.1875 -0.4336,0.035156 -0.53906,0.3867187 -0.53906,0.5390625 0,0.2226562 0.17578,0.3398437 0.36328,0.3398437 0.26953,0 0.55078,-0.2109375 0.55078,-0.5976562 0,-0.4570313 -0.45703,-0.6796875 -0.86719,-0.6796875 -0.33984,0 -0.96094,0.1757812 -1.26562,1.1601562 -0.0586,0.2109375 -0.082,0.3164063 -0.32813,1.5703125 h -0.67969 c -0.19922,0 -0.30468,0 -0.30468,0.1875 0,0.1171875 0.0937,0.1171875 0.28125,0.1171875 h 0.65625 l -0.75,3.93750004 c -0.17579,0.9609375 -0.33985,1.87499996 -0.86719,1.87499996 -0.0352,0 -0.28125,0 -0.46875,-0.1875 0.45703,-0.023437 0.53906,-0.3867187 0.53906,-0.5390625 0,-0.22265621 -0.17578,-0.33984371 -0.36328,-0.33984371 -0.25781,0 -0.55078,0.2109375 -0.55078,0.59765621 0,0.4453125 0.43359,0.6796875 0.84375,0.6796875 0.55078,0 0.94922,-0.5859375 1.125,-0.9609375 0.32812,-0.63281246 0.55078,-1.83984371 0.5625,-1.91015621 z m 0,0"
             style="fill:#000000;fill-opacity:1;fill-rule:nonzero;stroke:none" /><path
             id="path118"
             d="m 111.88085,0.93166406 c -0.0352,0.14062504 -0.0937,0.37500004 -0.0937,0.41015624 0,0.1523438 0.12891,0.2226563 0.23438,0.2226563 0.1289,0 0.23437,-0.09375 0.26953,-0.1523438 0.0352,-0.058594 0.0937,-0.2929687 0.1289,-0.43359374 0.0352,-0.12890625 0.11719,-0.45703125 0.15235,-0.6328125 0.0469,-0.15234375 0.082,-0.3046875 0.11719,-0.45703125 0.082,-0.3046875 0.082,-0.31640625 0.22265,-0.5390625 0.22266,-0.33984375 0.5625,-0.73828121 1.11328,-0.73828121 0.38672,0 0.41016,0.328125 0.41016,0.49218746 0,0.421875 -0.30469,1.1953125 -0.41016,1.48828125 -0.082,0.1875 -0.10547,0.2578125 -0.10547,0.375 0,0.36328129 0.30469,0.59765629 0.65625,0.59765629 0.70313,0 1.00782,-0.96093754 1.00782,-1.06640629 0,-0.09375 -0.0937,-0.09375 -0.10547,-0.09375 -0.10547,0 -0.10547,0.046875 -0.14063,0.1171875 -0.15234,0.56249999 -0.45703,0.84374999 -0.73828,0.84374999 -0.14062,0 -0.17578,-0.09375 -0.17578,-0.2460937 0,-0.15234379 0.0352,-0.24609379 0.16406,-0.56250004 0.082,-0.2109375 0.375,-0.94921875 0.375,-1.34765625 0,-0.10546875 0,-0.39843751 -0.25781,-0.59765621 -0.12891,-0.09375 -0.32812,-0.1875 -0.65625,-0.1875 -0.62109,0 -1.00781,0.4101562 -1.23047,0.70312496 -0.0586,-0.59765626 -0.55078,-0.70312496 -0.90234,-0.70312496 -0.58594,0 -0.97266,0.3515625 -1.1836,0.63281246 -0.0469,-0.48046876 -0.45703,-0.63281246 -0.75,-0.63281246 -0.29296,0 -0.45703,0.2109375 -0.55078,0.375 -0.15234,0.25781246 -0.24609,0.65624996 -0.24609,0.69140621 0,0.0820313 0.0937,0.0820313 0.11719,0.0820313 0.0937,0 0.10547,-0.0117188 0.15234,-0.19921875 0.10547,-0.42187506 0.23438,-0.76171876 0.51563,-0.76171876 0.17578,0 0.22265,0.1523437 0.22265,0.3398437 0,0.14062506 -0.0586,0.39843756 -0.10547,0.58593756 -0.0469,0.1875 -0.11718,0.46875 -0.15234,0.62109375 l -0.22266,0.90234369 c -0.0352,0.082031 -0.0703,0.2578125 -0.0703,0.28125 0,0.1523438 0.11719,0.2226563 0.23438,0.2226563 0.1289,0 0.23437,-0.09375 0.26953,-0.1523438 0.0352,-0.058594 0.0937,-0.2929687 0.1289,-0.43359369 0.0352,-0.12890625 0.10547,-0.45703125 0.15235,-0.6328125 0.0352,-0.15234375 0.082,-0.3046875 0.11718,-0.45703125 0.082,-0.29296875 0.0937,-0.3515625 0.29297,-0.6328125 0.19922,-0.28125006 0.52735,-0.64453126 1.04297,-0.64453126 0.41016,0 0.41016,0.3632812 0.41016,0.49218751 0,0.17578125 -0.0117,0.26953125 -0.11719,0.65625 z m 6.98731,-2.09765626 c -0.14063,-0.234375 -0.38672,-0.4101562 -0.71485,-0.4101562 -0.89062,0 -1.80468,0.97265621 -1.80468,1.98046871 0,0.67968749 0.45703,1.16015629 1.05468,1.16015629 0.375,0 0.71485,-0.2109375 0.9961,-0.4921875 0.1289,0.421875 0.52734,0.4921875 0.71484,0.4921875 0.24609,0 0.42188,-0.1523438 0.55078,-0.375 0.15235,-0.26953129 0.2461,-0.66796879 0.2461,-0.69140629 0,-0.09375 -0.0937,-0.09375 -0.11719,-0.09375 -0.0937,0 -0.10547,0.0351563 -0.15235,0.22265625 -0.082,0.328125 -0.21093,0.73828124 -0.5039,0.73828124 -0.1875,0 -0.23438,-0.1523437 -0.23438,-0.3398437 0,-0.11718754 0.0586,-0.36328129 0.10547,-0.55078129 0.0469,-0.1875 0.11719,-0.46875 0.15235,-0.62109375 l 0.14062,-0.5390625 c 0.0469,-0.17578125 0.12891,-0.50390626 0.12891,-0.53906246 0,-0.1523438 -0.12891,-0.2226563 -0.2461,-0.2226563 -0.11718,0 -0.26953,0.082031 -0.3164,0.28125 z m -0.44532,1.79296876 c -0.0469,0.1875 -0.19921,0.328125 -0.35156,0.45703124 -0.0703,0.058594 -0.33984,0.28125 -0.64453,0.28125 -0.25781,0 -0.51562,-0.1757812 -0.51562,-0.66796874 0,-0.375 0.21093,-1.13671875 0.36328,-1.41796875 0.32812,-0.56250001 0.67968,-0.66796871 0.8789,-0.66796871 0.48047,0 0.6211,0.52734371 0.6211,0.60937496 0,0.0234375 -0.0117,0.0820313 -0.0234,0.09375 z m 3.55957,0.12890625 c -0.0703,0.234375 -0.29296,0.60937499 -0.65625,0.60937499 -0.0234,0 -0.22265,0 -0.375,-0.09375 0.28125,-0.09375 0.30469,-0.33984374 0.30469,-0.38671874 0,-0.15234375 -0.11719,-0.2578125 -0.28125,-0.2578125 -0.1875,0 -0.38672,0.1640625 -0.38672,0.43359374 0,0.3398438 0.38672,0.5039063 0.72657,0.5039063 0.3164,0 0.60937,-0.1992188 0.78515,-0.4921875 0.16406,0.3632812 0.55078,0.4921875 0.82031,0.4921875 0.8086,0 1.23047,-0.86718754 1.23047,-1.06640629 0,-0.09375 -0.0937,-0.09375 -0.10547,-0.09375 -0.10546,0 -0.10546,0.0351563 -0.14062,0.1171875 -0.14063,0.48046879 -0.5625,0.84374999 -0.94922,0.84374999 -0.28125,0 -0.42187,-0.1875 -0.42187,-0.44531249 0,-0.1875 0.16406,-0.8203125 0.36328,-1.59375 0.1289,-0.53906251 0.44531,-0.71484371 0.67968,-0.71484371 0.0117,0 0.22266,0 0.375,0.1054687 -0.22265,0.058594 -0.30468,0.2578125 -0.30468,0.37500001 0,0.15234375 0.11718,0.2578125 0.28125,0.2578125 0.15234,0 0.38672,-0.12890625 0.38672,-0.42187501 0,-0.3867187 -0.44532,-0.5039062 -0.72657,-0.5039062 -0.35156,0 -0.63281,0.2226562 -0.78515,0.4921875 -0.11719,-0.2929688 -0.44532,-0.4921875 -0.83203,-0.4921875 -0.78516,0 -1.23047,0.85546871 -1.23047,1.06640621 0,0.0820313 0.10547,0.0820313 0.11718,0.0820313 0.0937,0 0.10547,-0.0234375 0.14063,-0.1171875 0.17578,-0.53906241 0.60937,-0.84374991 0.94922,-0.84374991 0.23437,0 0.42187,0.1289062 0.42187,0.46874991 0,0.12890625 -0.082,0.48046875 -0.15234,0.71484375 z m 0,0"
             style="fill:#000000;fill-opacity:1;fill-rule:nonzero;stroke:none" /></g><path
           style="opacity:1;fill:#fffe00;fill-opacity:0.410448;stroke:#ff000e;stroke-width:1.01291;stroke-dasharray:none;stroke-opacity:1"
           d="M 423.49359,465.19805 V 569.52669"
           id="path144" /><path
           style="opacity:1;fill:#fffe00;fill-opacity:0.410448;stroke:#ff000e;stroke-width:1.01291;stroke-dasharray:none;stroke-opacity:1"
           d="M 456.38354,465.15447 V 569.48311"
           id="path145" /></g></g></g></svg>
